  0
SECTION
  2
HEADER
  9
$ACADVER
  1
AC1009
  9
$DWGCODEPAGE
  3
undefined
  9
$INSBASE
 10
0.0
 20
0.0
 30
0.0
  9
$EXTMIN
 10
812.3825441375252
 20
685.7739141873371
 30
0.0
  9
$EXTMAX
 10
1012.382544137525
 20
806.0067168606942
 30
0.0
  9
$LIMMIN
 10
0.0
 20
0.0
  9
$LIMMAX
 10
12.0
 20
9.0
  9
$ORTHOMODE
 70
     0
  9
$REGENMODE
 70
     1
  9
$FILLMODE
 70
     1
  9
$QTEXTMODE
 70
     0
  9
$MIRRTEXT
 70
     1
  9
$DRAGMODE
 70
     2
  9
$LTSCALE
 40
1.0
  9
$OSMODE
 70
    37
  9
$ATTMODE
 70
     1
  9
$TEXTSIZE
 40
0.2
  9
$TRACEWID
 40
0.05
  9
$TEXTSTYLE
  7
STANDARD
  9
$CLAYER
  8
0
  9
$CELTYPE
  6
BYLAYER
  9
$CECOLOR
 62
   256
  9
$DIMSCALE
 40
1.0
  9
$DIMASZ
 40
0.18
  9
$DIMEXO
 40
0.0625
  9
$DIMDLI
 40
0.38
  9
$DIMRND
 40
0.0
  9
$DIMDLE
 40
0.0
  9
$DIMEXE
 40
0.18
  9
$DIMTP
 40
0.0
  9
$DIMTM
 40
0.0
  9
$DIMTXT
 40
0.18
  9
$DIMCEN
 40
0.09
  9
$DIMTSZ
 40
0.0
  9
$DIMTOL
 70
     0
  9
$DIMLIM
 70
     0
  9
$DIMTIH
 70
     1
  9
$DIMTOH
 70
     1
  9
$DIMSE1
 70
     0
  9
$DIMSE2
 70
     0
  9
$DIMTAD
 70
     0
  9
$DIMZIN
 70
     0
  9
$DIMBLK
  1

  9
$DIMASO
 70
     1
  9
$DIMSHO
 70
     1
  9
$DIMPOST
  1

  9
$DIMAPOST
  1

  9
$DIMALT
 70
     0
  9
$DIMALTD
 70
     2
  9
$DIMALTF
 40
25.4
  9
$DIMLFAC
 40
1.0
  9
$DIMTOFL
 70
     0
  9
$DIMTVP
 40
0.0
  9
$DIMTIX
 70
     0
  9
$DIMSOXD
 70
     0
  9
$DIMSAH
 70
     0
  9
$DIMBLK1
  1

  9
$DIMBLK2
  1

  9
$DIMSTYLE
  2
STANDARD
  9
$DIMCLRD
 70
     0
  9
$DIMCLRE
 70
     0
  9
$DIMCLRT
 70
     0
  9
$DIMTFAC
 40
1.0
  9
$DIMGAP
 40
0.09
  9
$LUNITS
 70
     2
  9
$LUPREC
 70
     4
  9
$SKETCHINC
 40
0.1
  9
$FILLETRAD
 40
0.5
  9
$AUNITS
 70
     0
  9
$AUPREC
 70
     0
  9
$MENU
  1
.
  9
$ELEVATION
 40
0.0
  9
$PELEVATION
 40
0.0
  9
$THICKNESS
 40
0.0
  9
$LIMCHECK
 70
     0
  9
$CHAMFERA
 40
0.0
  9
$CHAMFERB
 40
0.0
  9
$SKPOLY
 70
     0
  9
$TDCREATE
 40
2454910.5
  9
$TDUPDATE
 40
2461019.442488403
  9
$TDINDWG
 40
0.0000000116
  9
$TDUSRTIMER
 40
0.0000000116
  9
$USRTIMER
 70
     1
  9
$ANGBASE
 50
0.0
  9
$ANGDIR
 70
     0
  9
$PDMODE
 70
     0
  9
$PDSIZE
 40
0.0
  9
$PLINEWID
 40
0.0
  9
$COORDS
 70
     1
  9
$SPLFRAME
 70
     0
  9
$SPLINETYPE
 70
     6
  9
$SPLINESEGS
 70
     8
  9
$ATTDIA
 70
     0
  9
$ATTREQ
 70
     1
  9
$HANDLING
 70
     1
  9
$HANDSEED
  5
89B
  9
$SURFTAB1
 70
     6
  9
$SURFTAB2
 70
     6
  9
$SURFTYPE
 70
     6
  9
$SURFU
 70
     6
  9
$SURFV
 70
     6
  9
$UCSNAME
  2

  9
$UCSORG
 10
0.0
 20
0.0
 30
0.0
  9
$UCSXDIR
 10
1.0
 20
0.0
 30
0.0
  9
$UCSYDIR
 10
0.0
 20
1.0
 30
0.0
  9
$PUCSNAME
  2

  9
$PUCSORG
 10
0.0
 20
0.0
 30
0.0
  9
$PUCSXDIR
 10
1.0
 20
0.0
 30
0.0
  9
$PUCSYDIR
 10
0.0
 20
1.0
 30
0.0
  9
$USERI1
 70
     0
  9
$USERI2
 70
     0
  9
$USERI3
 70
     0
  9
$USERI4
 70
     0
  9
$USERI5
 70
     0
  9
$USERR1
 40
0.0
  9
$USERR2
 40
0.0
  9
$USERR3
 40
0.0
  9
$USERR4
 40
0.0
  9
$USERR5
 40
0.0
  9
$WORLDVIEW
 70
     1
  9
$SHADEDGE
 70
     3
  9
$SHADEDIF
 70
    70
  9
$TILEMODE
 70
     1
  9
$MAXACTVP
 70
    64
  9
$PLIMCHECK
 70
     0
  9
$PEXTMIN
 10
1.000000000000000E+20
 20
1.000000000000000E+20
 30
1.000000000000000E+20
  9
$PEXTMAX
 10
-1.000000000000000E+20
 20
-1.000000000000000E+20
 30
-1.000000000000000E+20
  9
$PLIMMIN
 10
0.0
 20
0.0
  9
$PLIMMAX
 10
12.0
 20
9.0
  9
$UNITMODE
 70
     0
  9
$VISRETAIN
 70
     1
  9
$PLINEGEN
 70
     0
  9
$PSLTSCALE
 70
     1
  0
ENDSEC
  0
SECTION
  2
TABLES
  0
TABLE
  2
VPORT
 70
     1
  0
VPORT
  2
*ACTIVE
 70
     0
 10
0.0
 20
0.0
 11
1.0
 21
1.0
 12
10.42990654205607
 22
4.5
 13
0.0
 23
0.0
 14
0.5
 24
0.5
 15
0.5
 25
0.5
 16
0.0
 26
0.0
 36
1.0
 17
0.0
 27
0.0
 37
0.0
 40
9.0
 41
1.972972972850329
 42
50.0
 43
0.0
 44
0.0
 50
0.0
 51
0.0
 71
     0
 72
   100
 73
     1
 74
     3
 75
     0
 76
     0
 77
     0
 78
     0
  0
ENDTAB
  0
TABLE
  2
LTYPE
 70
     2
  0
LTYPE
  2
CONTINUOUS
 70
     0
  3
Solid line
 72
    65
 73
     0
 40
0.0
  0
LTYPE
  2
CONTINUOUS2
 70
     0
  3
Solid Line
 72
    65
 73
     0
 40
0.0
  0
ENDTAB
  0
TABLE
  2
LAYER
 70
     1
  0
LAYER
  2
0
 70
     0
 62
     7
  6
CONTINUOUS
  0
ENDTAB
  0
TABLE
  2
STYLE
 70
     1
  0
STYLE
  2
STANDARD
 70
     0
 40
0.0
 41
1.0
 50
0.0
 71
     0
 42
0.2
  3
txt
  4

  0
ENDTAB
  0
TABLE
  2
VIEW
 70
     0
  0
ENDTAB
  0
TABLE
  2
UCS
 70
     0
  0
ENDTAB
  0
TABLE
  2
APPID
 70
     1
  0
APPID
  2
ACAD
 70
     0
  0
ENDTAB
  0
TABLE
  2
DIMSTYLE
 70
     1
  0
DIMSTYLE
  2
STANDARD
 70
     0
  3

  4

  5

  6

  7

 40
1.0
 41
0.18
 42
0.0625
 43
0.38
 44
0.18
 45
0.0
 46
0.0
 47
0.0
 48
0.0
140
0.18
141
0.09
142
0.0
143
25.4
144
1.0
145
0.0
146
1.0
147
0.09
 71
     0
 72
     0
 73
     1
 74
     1
 75
     0
 76
     0
 77
     0
 78
     0
170
     0
171
     2
172
     0
173
     0
174
     0
175
     0
176
     0
177
     0
178
     0
  0
ENDTAB
  0
ENDSEC
  0
SECTION
  2
BLOCKS
  0
BLOCK
  8
0
  2
$MODEL_SPACE
 70
     0
 10
0.0
 20
0.0
 30
0.0
  3
$MODEL_SPACE
  1

  0
ENDBLK
  5
21
  8
0
  0
BLOCK
 67
     1
  8
0
  2
$PAPER_SPACE
 70
     0
 10
0.0
 20
0.0
 30
0.0
  3
$PAPER_SPACE
  1

  0
ENDBLK
  5
1D
 67
     1
  8
0
  0
ENDSEC
  0
SECTION
  2
ENTITIES
  0
POLYLINE
  5
6F
  8
0
 66
     1
 10
0.0
 20
0.0
 30
0.0
 70
     1
  0
VERTEX
  5
80
  8
0
 10
812.3825441375252
 20
685.7739141873371
 30
0.0
  0
VERTEX
  5
81
  8
0
 10
1012.382544137525
 20
685.7739141873371
 30
0.0
  0
VERTEX
  5
82
  8
0
 10
1012.382544137525
 20
750.6263861447624
 30
0.0
  0
VERTEX
  5
83
  8
0
 10
812.3825441375252
 20
750.6263861447624
 30
0.0
  0
SEQEND
  5
891
  8
0
  0
POLYLINE
  5
70
  8
0
 66
     1
 10
0.0
 20
0.0
 30
0.0
 70
     1
  0
VERTEX
  5
84
  8
0
 10
1001.874065544461
 20
699.6481093292898
 30
0.0
 42
0.4142135623730951
  0
VERTEX
  5
85
  8
0
 10
996.874065544461
 20
694.6481093292898
 30
0.0
 42
0.4142135623730951
  0
VERTEX
  5
86
  8
0
 10
1001.874065544461
 20
689.6481093292898
 30
0.0
 42
0.4142135623730951
  0
VERTEX
  5
87
  8
0
 10
1006.874065544461
 20
694.6481093292898
 30
0.0
 42
0.4142135623730951
  0
SEQEND
  5
892
  8
0
  0
POLYLINE
  5
71
  8
0
 66
     1
 10
0.0
 20
0.0
 30
0.0
 70
     1
  0
VERTEX
  5
88
  8
0
 10
820.6753640109032
 20
699.6481093292898
 30
0.0
 42
0.4142135623730951
  0
VERTEX
  5
89
  8
0
 10
815.6753640109032
 20
694.6481093292898
 30
0.0
 42
0.4142135623730951
  0
VERTEX
  5
8A
  8
0
 10
820.6753640109032
 20
689.6481093292898
 30
0.0
 42
0.4142135623730951
  0
VERTEX
  5
8B
  8
0
 10
825.6753640109032
 20
694.6481093292898
 30
0.0
 42
0.4142135623730951
  0
SEQEND
  5
893
  8
0
  0
POLYLINE
  5
72
  8
0
 66
     1
 10
0.0
 20
0.0
 30
0.0
 70
     1
  0
VERTEX
  5
8C
  8
0
 10
820.6753640109032
 20
746.0707710046372
 30
0.0
 42
0.4142135623730951
  0
VERTEX
  5
8D
  8
0
 10
815.6753640109032
 20
741.0707710046372
 30
0.0
 42
0.4142135623730951
  0
VERTEX
  5
8E
  8
0
 10
820.6753640109032
 20
736.0707710046372
 30
0.0
 42
0.4142135623730951
  0
VERTEX
  5
8F
  8
0
 10
825.6753640109032
 20
741.0707710046372
 30
0.0
 42
0.4142135623730951
  0
SEQEND
  5
894
  8
0
  0
POLYLINE
  5
73
  8
0
 66
     1
 10
0.0
 20
0.0
 30
0.0
 70
     1
  0
VERTEX
  5
90
  8
0
 10
1001.874065544461
 20
746.0707710046372
 30
0.0
 42
0.4142135623730951
  0
VERTEX
  5
91
  8
0
 10
996.874065544461
 20
741.0707710046372
 30
0.0
 42
0.4142135623730951
  0
VERTEX
  5
92
  8
0
 10
1001.874065544461
 20
736.0707710046372
 30
0.0
 42
0.4142135623730951
  0
VERTEX
  5
93
  8
0
 10
1006.874065544461
 20
741.0707710046372
 30
0.0
 42
0.4142135623730951
  0
SEQEND
  5
895
  8
0
  0
POLYLINE
  5
74
  8
0
 66
     1
 10
0.0
 20
0.0
 30
0.0
 70
     1
  0
VERTEX
  5
94
  8
0
 10
862.9483614677308
 20
800.1245337437279
 30
0.0
  0
VERTEX
  5
95
  8
0
 10
862.7126526045897
 20
799.9257657280949
 30
0.0
  0
VERTEX
  5
96
  8
0
 10
862.4868492320668
 20
799.7253352625811
 30
0.0
  0
VERTEX
  5
97
  8
0
 10
862.270951350162
 20
799.5232423471862
 30
0.0
  0
VERTEX
  5
98
  8
0
 10
862.0649589588752
 20
799.3194869819101
 30
0.0
  0
VERTEX
  5
99
  8
0
 10
861.8688720582065
 20
799.1140691667531
 30
0.0
  0
VERTEX
  5
9A
  8
0
 10
861.682690648156
 20
798.9069889017152
 30
0.0
  0
VERTEX
  5
9B
  8
0
 10
861.5064147287237
 20
798.698246186796
 30
0.0
  0
VERTEX
  5
9C
  8
0
 10
861.3400442999096
 20
798.487841021996
 30
0.0
  0
VERTEX
  5
9D
  8
0
 10
861.1835793617136
 20
798.2757734073149
 30
0.0
  0
VERTEX
  5
9E
  8
0
 10
861.0370199141355
 20
798.0620433427528
 30
0.0
  0
VERTEX
  5
9F
  8
0
 10
860.9003659571756
 20
797.8466508283095
 30
0.0
  0
VERTEX
  5
A0
  8
0
 10
860.7736174908339
 20
797.6295958639853
 30
0.0
  0
VERTEX
  5
A1
  8
0
 10
860.6567745151102
 20
797.4108784497801
 30
0.0
  0
VERTEX
  5
A2
  8
0
 10
860.5498370300047
 20
797.1904985856938
 30
0.0
  0
VERTEX
  5
A3
  8
0
 10
860.4528050355174
 20
796.9684562717265
 30
0.0
  0
VERTEX
  5
A4
  8
0
 10
860.3656785316482
 20
796.7447515078782
 30
0.0
  0
VERTEX
  5
A5
  8
0
 10
860.2011897134972
 20
796.2486435892604
 30
0.0
  0
VERTEX
  5
A6
  8
0
 10
860.036418293285
 20
795.6584637885628
 30
0.0
  0
VERTEX
  5
A7
  8
0
 10
859.8713642710114
 20
794.9742121057851
 30
0.0
  0
VERTEX
  5
A8
  8
0
 10
859.7060276466766
 20
794.1958885409277
 30
0.0
  0
VERTEX
  5
A9
  8
0
 10
859.5404084202804
 20
793.3234930939904
 30
0.0
  0
VERTEX
  5
AA
  8
0
 10
859.3745065918229
 20
792.3570257649731
 30
0.0
  0
VERTEX
  5
AB
  8
0
 10
859.2083221613041
 20
791.2964865538758
 30
0.0
  0
VERTEX
  5
AC
  8
0
 10
859.041855128724
 20
790.1418754606987
 30
0.0
  0
VERTEX
  5
AD
  8
0
 10
858.872550540753
 20
788.9708561457988
 30
0.0
  0
VERTEX
  5
AE
  8
0
 10
858.697853444061
 20
787.8610922695339
 30
0.0
  0
VERTEX
  5
AF
  8
0
 10
858.5177638386483
 20
786.8125838319035
 30
0.0
  0
VERTEX
  5
B0
  8
0
 10
858.3322817245148
 20
785.8253308329079
 30
0.0
  0
VERTEX
  5
B1
  8
0
 10
858.1414071016607
 20
784.8993332725469
 30
0.0
  0
VERTEX
  5
B2
  8
0
 10
857.9451399700855
 20
784.0345911508207
 30
0.0
  0
VERTEX
  5
B3
  8
0
 10
857.7434803297897
 20
783.2311044677292
 30
0.0
  0
VERTEX
  5
B4
  8
0
 10
857.5364281807731
 20
782.4888732232725
 30
0.0
  0
VERTEX
  5
B5
  8
0
 10
857.4267072095483
 20
782.1343172167282
 30
0.0
  0
VERTEX
  5
B6
  8
0
 10
857.3072926992518
 20
781.7822527222345
 30
0.0
  0
VERTEX
  5
B7
  8
0
 10
857.1781846498827
 20
781.4326797397915
 30
0.0
  0
VERTEX
  5
B8
  8
0
 10
857.0393830614419
 20
781.0855982693992
 30
0.0
  0
VERTEX
  5
B9
  8
0
 10
856.8908879339285
 20
780.7410083110574
 30
0.0
  0
VERTEX
  5
BA
  8
0
 10
856.7326992673433
 20
780.3989098647664
 30
0.0
  0
VERTEX
  5
BB
  8
0
 10
856.5648170616857
 20
780.0593029305262
 30
0.0
  0
VERTEX
  5
BC
  8
0
 10
856.3872413169562
 20
779.7221875083364
 30
0.0
  0
VERTEX
  5
BD
  8
0
 10
856.1999720331544
 20
779.3875635981974
 30
0.0
  0
VERTEX
  5
BE
  8
0
 10
856.0030092102805
 20
779.0554312001093
 30
0.0
  0
VERTEX
  5
BF
  8
0
 10
855.7963528483344
 20
778.7257903140717
 30
0.0
  0
VERTEX
  5
C0
  8
0
 10
855.5800029473162
 20
778.3986409400846
 30
0.0
  0
VERTEX
  5
C1
  8
0
 10
855.3539595072257
 20
778.0739830781483
 30
0.0
  0
VERTEX
  5
C2
  8
0
 10
855.1182225280633
 20
777.7518167282627
 30
0.0
  0
VERTEX
  5
C3
  8
0
 10
854.8727920098286
 20
777.4321418904278
 30
0.0
  0
VERTEX
  5
C4
  8
0
 10
854.6176679525219
 20
777.1149585646435
 30
0.0
  0
VERTEX
  5
C5
  8
0
 10
854.3543268077285
 20
776.8033580714173
 30
0.0
  0
VERTEX
  5
C6
  8
0
 10
854.0842450270343
 20
776.5004317312563
 30
0.0
  0
VERTEX
  5
C7
  8
0
 10
853.8074226104388
 20
776.2061795441607
 30
0.0
  0
VERTEX
  5
C8
  8
0
 10
853.5238595579426
 20
775.9206015101304
 30
0.0
  0
VERTEX
  5
C9
  8
0
 10
853.2335558695452
 20
775.6436976291653
 30
0.0
  0
VERTEX
  5
CA
  8
0
 10
852.936511545247
 20
775.3754679012654
 30
0.0
  0
VERTEX
  5
CB
  8
0
 10
852.6327265850475
 20
775.115912326431
 30
0.0
  0
VERTEX
  5
CC
  8
0
 10
852.3222009889473
 20
774.8650309046618
 30
0.0
  0
VERTEX
  5
CD
  8
0
 10
852.004934756946
 20
774.6228236359581
 30
0.0
  0
VERTEX
  5
CE
  8
0
 10
851.6809278890439
 20
774.3892905203195
 30
0.0
  0
VERTEX
  5
CF
  8
0
 10
851.3501803852407
 20
774.1644315577464
 30
0.0
  0
VERTEX
  5
D0
  8
0
 10
851.0126922455365
 20
773.9482467482385
 30
0.0
  0
VERTEX
  5
D1
  8
0
 10
850.6684634699313
 20
773.7407360917958
 30
0.0
  0
VERTEX
  5
D2
  8
0
 10
850.3174940584253
 20
773.5418995884185
 30
0.0
  0
VERTEX
  5
D3
  8
0
 10
849.9597840110181
 20
773.3517372381065
 30
0.0
  0
VERTEX
  5
D4
  8
0
 10
849.59533332771
 20
773.1702490408597
 30
0.0
  0
VERTEX
  5
D5
  8
0
 10
849.2267279615467
 20
772.9986338926681
 30
0.0
  0
VERTEX
  5
D6
  8
0
 10
848.8565538655736
 20
772.8380906895209
 30
0.0
  0
VERTEX
  5
D7
  8
0
 10
848.4848110397908
 20
772.6886194314184
 30
0.0
  0
VERTEX
  5
D8
  8
0
 10
848.1114994841982
 20
772.5502201183606
 30
0.0
  0
VERTEX
  5
D9
  8
0
 10
847.7366191987961
 20
772.4228927503473
 30
0.0
  0
VERTEX
  5
DA
  8
0
 10
847.3601701835843
 20
772.3066373273787
 30
0.0
  0
VERTEX
  5
DB
  8
0
 10
846.9821524385627
 20
772.2014538494548
 30
0.0
  0
VERTEX
  5
DC
  8
0
 10
846.6025659637314
 20
772.1073423165755
 30
0.0
  0
VERTEX
  5
DD
  8
0
 10
846.2214107590905
 20
772.0243027287408
 30
0.0
  0
VERTEX
  5
DE
  8
0
 10
845.8386868246399
 20
771.9523350859506
 30
0.0
  0
VERTEX
  5
DF
  8
0
 10
845.4543941603796
 20
771.8914393882053
 30
0.0
  0
VERTEX
  5
E0
  8
0
 10
845.0685327663097
 20
771.8416156355044
 30
0.0
  0
VERTEX
  5
E1
  8
0
 10
844.6811026424301
 20
771.8028638278481
 30
0.0
  0
VERTEX
  5
E2
  8
0
 10
844.2921037887409
 20
771.7751839652365
 30
0.0
  0
VERTEX
  5
E3
  8
0
 10
843.9015362052419
 20
771.7585760476696
 30
0.0
  0
VERTEX
  5
E4
  8
0
 10
843.5093998919331
 20
771.7530400751473
 30
0.0
  0
VERTEX
  5
E5
  8
0
 10
843.0906903337784
 20
771.7594534117221
 30
0.0
  0
VERTEX
  5
E6
  8
0
 10
842.685366885507
 20
771.7786934214469
 30
0.0
  0
VERTEX
  5
E7
  8
0
 10
842.2934295471191
 20
771.8107601043212
 30
0.0
  0
VERTEX
  5
E8
  8
0
 10
841.9148783186145
 20
771.8556534603454
 30
0.0
  0
VERTEX
  5
E9
  8
0
 10
841.5497131999932
 20
771.9133734895192
 30
0.0
  0
VERTEX
  5
EA
  8
0
 10
841.1979341912553
 20
771.983920191843
 30
0.0
  0
VERTEX
  5
EB
  8
0
 10
840.8595412924008
 20
772.0672935673165
 30
0.0
  0
VERTEX
  5
EC
  8
0
 10
840.5345345034295
 20
772.1634936159396
 30
0.0
  0
VERTEX
  5
ED
  8
0
 10
840.2229138243417
 20
772.2725203377126
 30
0.0
  0
VERTEX
  5
EE
  8
0
 10
839.9246792551373
 20
772.3943737326354
 30
0.0
  0
VERTEX
  5
EF
  8
0
 10
839.6398307958162
 20
772.5290538007077
 30
0.0
  0
VERTEX
  5
F0
  8
0
 10
839.3683684463786
 20
772.67656054193
 30
0.0
  0
VERTEX
  5
F1
  8
0
 10
839.1102922068242
 20
772.836893956302
 30
0.0
  0
VERTEX
  5
F2
  8
0
 10
838.8656020771532
 20
773.0100540438239
 30
0.0
  0
VERTEX
  5
F3
  8
0
 10
838.6342980573655
 20
773.1960408044954
 30
0.0
  0
VERTEX
  5
F4
  8
0
 10
838.4163801474613
 20
773.3948542383166
 30
0.0
  0
VERTEX
  5
F5
  8
0
 10
838.2117560692162
 20
773.602064990531
 30
0.0
  0
VERTEX
  5
F6
  8
0
 10
838.0203335444064
 20
773.8132437063816
 30
0.0
  0
VERTEX
  5
F7
  8
0
 10
837.8421125730317
 20
774.0283903858683
 30
0.0
  0
VERTEX
  5
F8
  8
0
 10
837.6770931550922
 20
774.2475050289913
 30
0.0
  0
VERTEX
  5
F9
  8
0
 10
837.5252752905878
 20
774.4705876357507
 30
0.0
  0
VERTEX
  5
FA
  8
0
 10
837.3866589795186
 20
774.6976382061464
 30
0.0
  0
VERTEX
  5
FB
  8
0
 10
837.2612442218846
 20
774.9286567401781
 30
0.0
  0
VERTEX
  5
FC
  8
0
 10
837.1490310176857
 20
775.1636432378461
 30
0.0
  0
VERTEX
  5
FD
  8
0
 10
837.050019366922
 20
775.4025976991505
 30
0.0
  0
VERTEX
  5
FE
  8
0
 10
836.9642092695935
 20
775.6455201240913
 30
0.0
  0
VERTEX
  5
FF
  8
0
 10
836.8916007257001
 20
775.8924105126681
 30
0.0
  0
VERTEX
  5
100
  8
0
 10
836.8321937352418
 20
776.1432688648812
 30
0.0
  0
VERTEX
  5
101
  8
0
 10
836.7859882982187
 20
776.3980951807305
 30
0.0
  0
VERTEX
  5
102
  8
0
 10
836.7529844146309
 20
776.6568894602162
 30
0.0
  0
VERTEX
  5
103
  8
0
 10
836.7331820844781
 20
776.9196517033381
 30
0.0
  0
VERTEX
  5
104
  8
0
 10
836.7265813077605
 20
777.1863819100962
 30
0.0
  0
VERTEX
  5
105
  8
0
 10
836.7348863479294
 20
777.3554356166455
 30
0.0
  0
VERTEX
  5
106
  8
0
 10
836.7598014684361
 20
777.5200599684381
 30
0.0
  0
VERTEX
  5
107
  8
0
 10
836.8013266692807
 20
777.680254965474
 30
0.0
  0
VERTEX
  5
108
  8
0
 10
836.8594619504631
 20
777.8360206077532
 30
0.0
  0
VERTEX
  5
109
  8
0
 10
836.9342073119833
 20
777.9873568952755
 30
0.0
  0
VERTEX
  5
10A
  8
0
 10
837.0255627538413
 20
778.1342638280411
 30
0.0
  0
VERTEX
  5
10B
  8
0
 10
837.1335282760372
 20
778.27674140605
 30
0.0
  0
VERTEX
  5
10C
  8
0
 10
837.2581038785708
 20
778.414789629302
 30
0.0
  0
VERTEX
  5
10D
  8
0
 10
837.4085173838521
 20
778.5568980944145
 30
0.0
  0
VERTEX
  5
10E
  8
0
 10
837.593996614291
 20
778.7115563980044
 30
0.0
  0
VERTEX
  5
10F
  8
0
 10
837.8145415698876
 20
778.8787645400716
 30
0.0
  0
VERTEX
  5
110
  8
0
 10
838.0701522506419
 20
779.0585225206164
 30
0.0
  0
VERTEX
  5
111
  8
0
 10
838.3608286565538
 20
779.2508303396387
 30
0.0
  0
VERTEX
  5
112
  8
0
 10
838.6865707876232
 20
779.4556879971385
 30
0.0
  0
VERTEX
  5
113
  8
0
 10
839.4432522252349
 20
779.9030528275705
 30
0.0
  0
VERTEX
  5
114
  8
0
 10
839.8404177017571
 20
780.1245205654081
 30
0.0
  0
VERTEX
  5
115
  8
0
 10
840.2051012433963
 20
780.3164592715341
 30
0.0
  0
VERTEX
  5
116
  8
0
 10
840.5373028501526
 20
780.4788689459483
 30
0.0
  0
VERTEX
  5
117
  8
0
 10
840.8370225220261
 20
780.6117495886508
 30
0.0
  0
VERTEX
  5
118
  8
0
 10
841.1042602590169
 20
780.7151011996418
 30
0.0
  0
VERTEX
  5
119
  8
0
 10
841.3390160611247
 20
780.788923778921
 30
0.0
  0
VERTEX
  5
11A
  8
0
 10
841.5412899283497
 20
780.8332173264886
 30
0.0
  0
VERTEX
  5
11B
  8
0
 10
841.7110818606918
 20
780.8479818423443
 30
0.0
  0
VERTEX
  5
11C
  8
0
 10
841.893792744408
 20
780.8339555522812
 30
0.0
  0
VERTEX
  5
11D
  8
0
 10
841.9760126420801
 20
780.8164226897024
 30
0.0
  0
VERTEX
  5
11E
  8
0
 10
842.0521421769618
 20
780.7918766820922
 30
0.0
  0
VERTEX
  5
11F
  8
0
 10
842.1221813490529
 20
780.7603175294503
 30
0.0
  0
VERTEX
  5
120
  8
0
 10
842.1861301583535
 20
780.7217452317768
 30
0.0
  0
VERTEX
  5
121
  8
0
 10
842.2439886048635
 20
780.6761597890719
 30
0.0
  0
VERTEX
  5
122
  8
0
 10
842.2957566885831
 20
780.6235612013355
 30
0.0
  0
VERTEX
  5
123
  8
0
 10
842.3414344095121
 20
780.5639494685676
 30
0.0
  0
VERTEX
  5
124
  8
0
 10
842.3810217676505
 20
780.497324590768
 30
0.0
  0
VERTEX
  5
125
  8
0
 10
842.4145187629985
 20
780.423686567937
 30
0.0
  0
VERTEX
  5
126
  8
0
 10
842.4419253955558
 20
780.3430354000745
 30
0.0
  0
VERTEX
  5
127
  8
0
 10
842.4784675722991
 20
780.1606936292549
 30
0.0
  0
VERTEX
  5
128
  8
0
 10
842.4906482978802
 20
779.9502992783092
 30
0.0
  0
VERTEX
  5
129
  8
0
 10
842.4751455562315
 20
779.7701721848681
 30
0.0
  0
VERTEX
  5
12A
  8
0
 10
842.4286373312857
 20
779.4423999328684
 30
0.0
  0
VERTEX
  5
12B
  8
0
 10
842.2426044315021
 20
778.343919953194
 30
0.0
  0
VERTEX
  5
12C
  8
0
 10
842.0565715317184
 20
777.2336283608349
 30
0.0
  0
VERTEX
  5
12D
  8
0
 10
842.0100633067726
 20
776.8910915929794
 30
0.0
  0
VERTEX
  5
12E
  8
0
 10
841.994560565124
 20
776.6902941773399
 30
0.0
  0
VERTEX
  5
12F
  8
0
 10
842.0063721778087
 20
776.3667667236487
 30
0.0
  0
VERTEX
  5
130
  8
0
 10
842.0418070158627
 20
776.0576346729172
 30
0.0
  0
VERTEX
  5
131
  8
0
 10
842.100865079286
 20
775.762898025145
 30
0.0
  0
VERTEX
  5
132
  8
0
 10
842.1835463680786
 20
775.4825567803323
 30
0.0
  0
VERTEX
  5
133
  8
0
 10
842.2898508822407
 20
775.216610938479
 30
0.0
  0
VERTEX
  5
134
  8
0
 10
842.4197786217721
 20
774.9650604995852
 30
0.0
  0
VERTEX
  5
135
  8
0
 10
842.5733295866728
 20
774.7279054636507
 30
0.0
  0
VERTEX
  5
136
  8
0
 10
842.7505037769429
 20
774.5051458306757
 30
0.0
  0
VERTEX
  5
137
  8
0
 10
842.9457644991363
 20
774.303056519899
 30
0.0
  0
VERTEX
  5
138
  8
0
 10
843.1535750598073
 20
774.127912450559
 30
0.0
  0
VERTEX
  5
139
  8
0
 10
843.3739354589557
 20
773.9797136226562
 30
0.0
  0
VERTEX
  5
13A
  8
0
 10
843.6068456965816
 20
773.8584600361901
 30
0.0
  0
VERTEX
  5
13B
  8
0
 10
843.8523057726849
 20
773.7641516911609
 30
0.0
  0
VERTEX
  5
13C
  8
0
 10
844.1103156872657
 20
773.6967885875686
 30
0.0
  0
VERTEX
  5
13D
  8
0
 10
844.380875440324
 20
773.6563707254132
 30
0.0
  0
VERTEX
  5
13E
  8
0
 10
844.6639850318597
 20
773.6428981046947
 30
0.0
  0
VERTEX
  5
13F
  8
0
 10
844.9688722842828
 20
773.6550788302758
 30
0.0
  0
VERTEX
  5
140
  8
0
 10
845.2693301819492
 20
773.6916210070191
 30
0.0
  0
VERTEX
  5
141
  8
0
 10
845.5653587248587
 20
773.7525246349244
 30
0.0
  0
VERTEX
  5
142
  8
0
 10
845.8569579130116
 20
773.8377897139918
 30
0.0
  0
VERTEX
  5
143
  8
0
 10
846.1441277464077
 20
773.9474162442214
 30
0.0
  0
VERTEX
  5
144
  8
0
 10
846.4268682250469
 20
774.0814042256131
 30
0.0
  0
VERTEX
  5
145
  8
0
 10
846.7051793489294
 20
774.2397536581669
 30
0.0
  0
VERTEX
  5
146
  8
0
 10
846.9790611180553
 20
774.422464541883
 30
0.0
  0
VERTEX
  5
147
  8
0
 10
847.2485135324243
 20
774.629536876761
 30
0.0
  0
VERTEX
  5
148
  8
0
 10
847.5135365920366
 20
774.8609706628015
 30
0.0
  0
VERTEX
  5
149
  8
0
 10
847.7741302968923
 20
775.1167659000039
 30
0.0
  0
VERTEX
  5
14A
  8
0
 10
848.030294646991
 20
775.3969225883684
 30
0.0
  0
VERTEX
  5
14B
  8
0
 10
848.2820296423331
 20
775.701440727895
 30
0.0
  0
VERTEX
  5
14C
  8
0
 10
848.5293352829183
 20
776.030320318584
 30
0.0
  0
VERTEX
  5
14D
  8
0
 10
848.7722115687468
 20
776.3835613604349
 30
0.0
  0
VERTEX
  5
14E
  8
0
 10
849.0106584998186
 20
776.7611638534479
 30
0.0
  0
VERTEX
  5
14F
  8
0
 10
849.2425075378675
 20
777.1625279891665
 30
0.0
  0
VERTEX
  5
150
  8
0
 10
849.4655901446267
 20
777.587053959134
 30
0.0
  0
VERTEX
  5
151
  8
0
 10
849.6799063200967
 20
778.0347417633502
 30
0.0
  0
VERTEX
  5
152
  8
0
 10
849.8854560642772
 20
778.5055914018153
 30
0.0
  0
VERTEX
  5
153
  8
0
 10
850.0822393771682
 20
778.9996028745293
 30
0.0
  0
VERTEX
  5
154
  8
0
 10
850.2702562587699
 20
779.5167761814921
 30
0.0
  0
VERTEX
  5
155
  8
0
 10
850.4495067090822
 20
780.0571113227038
 30
0.0
  0
VERTEX
  5
156
  8
0
 10
850.6199907281051
 20
780.6206082981644
 30
0.0
  0
VERTEX
  5
157
  8
0
 10
850.7817083158386
 20
781.2072671078737
 30
0.0
  0
VERTEX
  5
158
  8
0
 10
850.9346594722826
 20
781.8170877518319
 30
0.0
  0
VERTEX
  5
159
  8
0
 10
851.0788441974374
 20
782.4500702300389
 30
0.0
  0
VERTEX
  5
15A
  8
0
 10
851.2142624913027
 20
783.1062145424949
 30
0.0
  0
VERTEX
  5
15B
  8
0
 10
851.3409143538787
 20
783.7855206891995
 30
0.0
  0
VERTEX
  5
15C
  8
0
 10
851.4587997851651
 20
784.4879886701532
 30
0.0
  0
VERTEX
  5
15D
  8
0
 10
851.5679187851622
 20
785.2136184853557
 30
0.0
  0
VERTEX
  5
15E
  8
0
 10
851.6682713538698
 20
785.962410134807
 30
0.0
  0
VERTEX
  5
15F
  8
0
 10
851.8677768743719
 20
787.4311103495668
 30
0.0
  0
VERTEX
  5
160
  8
0
 10
851.9732047454049
 20
788.1264267681527
 30
0.0
  0
VERTEX
  5
161
  8
0
 10
852.0824160236261
 20
788.7957207275426
 30
0.0
  0
VERTEX
  5
162
  8
0
 10
852.1954107090353
 20
789.4389922277367
 30
0.0
  0
VERTEX
  5
163
  8
0
 10
852.3121888016326
 20
790.0562412687349
 30
0.0
  0
VERTEX
  5
164
  8
0
 10
852.4327503014179
 20
790.647467850537
 30
0.0
  0
VERTEX
  5
165
  8
0
 10
852.5570952083913
 20
791.2126719731434
 30
0.0
  0
VERTEX
  5
166
  8
0
 10
852.6852235225526
 20
791.7518536365537
 30
0.0
  0
VERTEX
  5
167
  8
0
 10
852.8171352439022
 20
792.2650128407683
 30
0.0
  0
VERTEX
  5
168
  8
0
 10
852.9528303724396
 20
792.7521495857868
 30
0.0
  0
VERTEX
  5
169
  8
0
 10
853.0923089081654
 20
793.2132638716096
 30
0.0
  0
VERTEX
  5
16A
  8
0
 10
853.235570851079
 20
793.6483556982364
 30
0.0
  0
VERTEX
  5
16B
  8
0
 10
853.3826162011808
 20
794.0574250656673
 30
0.0
  0
VERTEX
  5
16C
  8
0
 10
853.5334449584707
 20
794.440471973902
 30
0.0
  0
VERTEX
  5
16D
  8
0
 10
853.6880571229485
 20
794.7974964229411
 30
0.0
  0
VERTEX
  5
16E
  8
0
 10
853.8490364848892
 20
795.1373571222978
 30
0.0
  0
VERTEX
  5
16F
  8
0
 10
854.0189668345675
 20
795.4689127814854
 30
0.0
  0
VERTEX
  5
170
  8
0
 10
854.1978481719834
 20
795.7921634005043
 30
0.0
  0
VERTEX
  5
171
  8
0
 10
854.385680497137
 20
796.107108979354
 30
0.0
  0
VERTEX
  5
172
  8
0
 10
854.582463810028
 20
796.413749518035
 30
0.0
  0
VERTEX
  5
173
  8
0
 10
854.7881981106567
 20
796.712085016547
 30
0.0
  0
VERTEX
  5
174
  8
0
 10
855.0028833990231
 20
797.0021154748903
 30
0.0
  0
VERTEX
  5
175
  8
0
 10
855.226519675127
 20
797.2838408930644
 30
0.0
  0
VERTEX
  5
176
  8
0
 10
855.4591069389684
 20
797.5572612710697
 30
0.0
  0
VERTEX
  5
177
  8
0
 10
855.7006451905476
 20
797.8223766089061
 30
0.0
  0
VERTEX
  5
178
  8
0
 10
855.9511344298643
 20
798.0791869065737
 30
0.0
  0
VERTEX
  5
179
  8
0
 10
856.2105746569187
 20
798.3276921640722
 30
0.0
  0
VERTEX
  5
17A
  8
0
 10
856.4789658717107
 20
798.567892381402
 30
0.0
  0
VERTEX
  5
17B
  8
0
 10
856.7563080742402
 20
798.7997875585627
 30
0.0
  0
VERTEX
  5
17C
  8
0
 10
857.0426012645073
 20
799.0233776955546
 30
0.0
  0
VERTEX
  5
17D
  8
0
 10
857.337845442512
 20
799.2386627923775
 30
0.0
  0
VERTEX
  5
17E
  8
0
 10
857.6356734107916
 20
799.4431974760928
 30
0.0
  0
VERTEX
  5
17F
  8
0
 10
857.929717971883
 20
799.6345363737621
 30
0.0
  0
VERTEX
  5
180
  8
0
 10
858.2199791257864
 20
799.8126794853853
 30
0.0
  0
VERTEX
  5
181
  8
0
 10
858.5064568725016
 20
799.9776268109622
 30
0.0
  0
VERTEX
  5
182
  8
0
 10
858.789151212029
 20
800.129378350493
 30
0.0
  0
VERTEX
  5
183
  8
0
 10
859.0680621443681
 20
800.2679341039777
 30
0.0
  0
VERTEX
  5
184
  8
0
 10
859.3431896695193
 20
800.3932940714161
 30
0.0
  0
VERTEX
  5
185
  8
0
 10
859.6145337874824
 20
800.5054582528085
 30
0.0
  0
VERTEX
  5
186
  8
0
 10
859.8820944982575
 20
800.6044266481546
 30
0.0
  0
VERTEX
  5
187
  8
0
 10
860.1458718018445
 20
800.6901992574547
 30
0.0
  0
VERTEX
  5
188
  8
0
 10
860.4058656982434
 20
800.7627760807085
 30
0.0
  0
VERTEX
  5
189
  8
0
 10
860.6620761874542
 20
800.8221571179163
 30
0.0
  0
VERTEX
  5
18A
  8
0
 10
860.9145032694771
 20
800.8683423690778
 30
0.0
  0
VERTEX
  5
18B
  8
0
 10
861.1631469443117
 20
800.9013318341932
 30
0.0
  0
VERTEX
  5
18C
  8
0
 10
861.4080072119584
 20
800.9211255132625
 30
0.0
  0
VERTEX
  5
18D
  8
0
 10
861.649084072417
 20
800.9277234062855
 30
0.0
  0
VERTEX
  5
18E
  8
0
 10
861.7882396343583
 20
800.9151735678081
 30
0.0
  0
VERTEX
  5
18F
  8
0
 10
861.9340392284347
 20
800.8775240523756
 30
0.0
  0
VERTEX
  5
190
  8
0
 10
862.0864828546462
 20
800.8147748599883
 30
0.0
  0
VERTEX
  5
191
  8
0
 10
862.2455705129929
 20
800.7269259906461
 30
0.0
  0
VERTEX
  5
192
  8
0
 10
862.4113022034747
 20
800.6139774443488
 30
0.0
  0
VERTEX
  5
193
  8
0
 10
862.5836779260916
 20
800.4759292210967
 30
0.0
  0
VERTEX
  5
194
  8
0
 10
862.7626976808436
 20
800.3127813208898
 30
0.0
  0
SEQEND
  5
896
  8
0
  0
POLYLINE
  5
75
  8
0
 66
     1
 10
0.0
 20
0.0
 30
0.0
 70
     1
  0
VERTEX
  5
195
  8
0
 10
880.3586785649363
 20
781.8874037585954
 30
0.0
  0
VERTEX
  5
196
  8
0
 10
880.7307443645034
 20
781.9965227585924
 30
0.0
  0
VERTEX
  5
197
  8
0
 10
881.090998551386
 20
782.1112707302595
 30
0.0
  0
VERTEX
  5
198
  8
0
 10
881.4394411255837
 20
782.2316476735967
 30
0.0
  0
VERTEX
  5
199
  8
0
 10
881.7760720870968
 20
782.3576535886039
 30
0.0
  0
VERTEX
  5
19A
  8
0
 10
882.1008914359252
 20
782.489288475281
 30
0.0
  0
VERTEX
  5
19B
  8
0
 10
882.413899172069
 20
782.6265523336283
 30
0.0
  0
VERTEX
  5
19C
  8
0
 10
882.7150952955283
 20
782.7694451636457
 30
0.0
  0
VERTEX
  5
19D
  8
0
 10
883.0044798063027
 20
782.917966965333
 30
0.0
  0
VERTEX
  5
19E
  8
0
 10
883.2820527043923
 20
783.0721177386903
 30
0.0
  0
VERTEX
  5
19F
  8
0
 10
883.5478139897975
 20
783.2318974837177
 30
0.0
  0
VERTEX
  5
1A0
  8
0
 10
883.8017636625179
 20
783.3973062004152
 30
0.0
  0
VERTEX
  5
1A1
  8
0
 10
884.0439017225538
 20
783.5683438887827
 30
0.0
  0
VERTEX
  5
1A2
  8
0
 10
884.2742281699047
 20
783.7450105488201
 30
0.0
  0
VERTEX
  5
1A3
  8
0
 10
884.4927430045711
 20
783.9273061805277
 30
0.0
  0
VERTEX
  5
1A4
  8
0
 10
884.6994462265528
 20
784.1152307839054
 30
0.0
  0
VERTEX
  5
1A5
  8
0
 10
884.89433783585
 20
784.3087843589531
 30
0.0
  0
VERTEX
  5
1A6
  8
0
 10
885.0774178324624
 20
784.5079669056706
 30
0.0
  0
VERTEX
  5
1A7
  8
0
 10
885.2486862163902
 20
784.7127784240583
 30
0.0
  0
VERTEX
  5
1A8
  8
0
 10
885.4081429876333
 20
784.9232189141162
 30
0.0
  0
VERTEX
  5
1A9
  8
0
 10
885.5557881461916
 20
785.139288375844
 30
0.0
  0
VERTEX
  5
1AA
  8
0
 10
885.6916216920652
 20
785.3609868092418
 30
0.0
  0
VERTEX
  5
1AB
  8
0
 10
885.8156436252543
 20
785.5883142143097
 30
0.0
  0
VERTEX
  5
1AC
  8
0
 10
885.9278539457587
 20
785.8212705910476
 30
0.0
  0
VERTEX
  5
1AD
  8
0
 10
886.0282526535785
 20
786.0598559394555
 30
0.0
  0
VERTEX
  5
1AE
  8
0
 10
886.1168397487136
 20
786.3040702595333
 30
0.0
  0
VERTEX
  5
1AF
  8
0
 10
886.1936152311639
 20
786.5539135512814
 30
0.0
  0
VERTEX
  5
1B0
  8
0
 10
886.2585791009296
 20
786.8093858146995
 30
0.0
  0
VERTEX
  5
1B1
  8
0
 10
886.3117313580107
 20
787.0704870497876
 30
0.0
  0
VERTEX
  5
1B2
  8
0
 10
886.3530720024069
 20
787.3372172565457
 30
0.0
  0
VERTEX
  5
1B3
  8
0
 10
886.3826010341186
 20
787.609576434974
 30
0.0
  0
VERTEX
  5
1B4
  8
0
 10
886.4003184531456
 20
787.8875645850721
 30
0.0
  0
VERTEX
  5
1B5
  8
0
 10
886.406224259488
 20
788.1711817068405
 30
0.0
  0
VERTEX
  5
1B6
  8
0
 10
886.3997647838011
 20
788.445801701759
 30
0.0
  0
VERTEX
  5
1B7
  8
0
 10
886.3803863567404
 20
788.7027042776507
 30
0.0
  0
VERTEX
  5
1B8
  8
0
 10
886.3480889783057
 20
788.9418894345154
 30
0.0
  0
VERTEX
  5
1B9
  8
0
 10
886.3028726484972
 20
789.1633571723529
 30
0.0
  0
VERTEX
  5
1BA
  8
0
 10
886.2447373673149
 20
789.3671074911636
 30
0.0
  0
VERTEX
  5
1BB
  8
0
 10
886.1736831347587
 20
789.5531403909471
 30
0.0
  0
VERTEX
  5
1BC
  8
0
 10
886.0897099508285
 20
789.7214558717036
 30
0.0
  0
VERTEX
  5
1BD
  8
0
 10
885.9928178155245
 20
789.8720539334332
 30
0.0
  0
VERTEX
  5
1BE
  8
0
 10
885.8830067288466
 20
790.0049345761358
 30
0.0
  0
VERTEX
  5
1BF
  8
0
 10
885.7602766907951
 20
790.1200977998113
 30
0.0
  0
VERTEX
  5
1C0
  8
0
 10
885.6246277013695
 20
790.2175436044599
 30
0.0
  0
VERTEX
  5
1C1
  8
0
 10
885.4760597605703
 20
790.2972719900814
 30
0.0
  0
VERTEX
  5
1C2
  8
0
 10
885.3145728683969
 20
790.3592829566759
 30
0.0
  0
VERTEX
  5
1C3
  8
0
 10
885.1401670248499
 20
790.4035765042435
 30
0.0
  0
VERTEX
  5
1C4
  8
0
 10
884.9528422299288
 20
790.4301526327839
 30
0.0
  0
VERTEX
  5
1C5
  8
0
 10
884.7525984836341
 20
790.4390113422974
 30
0.0
  0
VERTEX
  5
1C6
  8
0
 10
884.5582605436816
 20
790.4297373807754
 30
0.0
  0
VERTEX
  5
1C7
  8
0
 10
884.3650299424182
 20
790.4019154962095
 30
0.0
  0
VERTEX
  5
1C8
  8
0
 10
884.1729066798441
 20
790.3555456885998
 30
0.0
  0
VERTEX
  5
1C9
  8
0
 10
883.9818907559593
 20
790.2906279579462
 30
0.0
  0
VERTEX
  5
1CA
  8
0
 10
883.7919821707635
 20
790.2071623042486
 30
0.0
  0
VERTEX
  5
1CB
  8
0
 10
883.6031809242569
 20
790.1051487275072
 30
0.0
  0
VERTEX
  5
1CC
  8
0
 10
883.4154870164396
 20
789.9845872277219
 30
0.0
  0
VERTEX
  5
1CD
  8
0
 10
883.2289004473114
 20
789.8454778048927
 30
0.0
  0
VERTEX
  5
1CE
  8
0
 10
883.0434212168725
 20
789.6878204590196
 30
0.0
  0
VERTEX
  5
1CF
  8
0
 10
882.8590493251227
 20
789.5116151901025
 30
0.0
  0
VERTEX
  5
1D0
  8
0
 10
882.675784772062
 20
789.3168619981416
 30
0.0
  0
VERTEX
  5
1D1
  8
0
 10
882.4936275576907
 20
789.1035608831368
 30
0.0
  0
VERTEX
  5
1D2
  8
0
 10
882.3125776820086
 20
788.871711845088
 30
0.0
  0
VERTEX
  5
1D3
  8
0
 10
882.1326351450155
 20
788.6213148839954
 30
0.0
  0
VERTEX
  5
1D4
  8
0
 10
881.9537999467116
 20
788.3523699998589
 30
0.0
  0
VERTEX
  5
1D5
  8
0
 10
881.776072087097
 20
788.0648771926784
 30
0.0
  0
VERTEX
  5
1D6
  8
0
 10
881.6044345902728
 20
787.762527591418
 30
0.0
  0
VERTEX
  5
1D7
  8
0
 10
881.4438704803405
 20
787.4490123250417
 30
0.0
  0
VERTEX
  5
1D8
  8
0
 10
881.2943797573
 20
787.1243313935494
 30
0.0
  0
VERTEX
  5
1D9
  8
0
 10
881.1559624211516
 20
786.7884847969411
 30
0.0
  0
VERTEX
  5
1DA
  8
0
 10
881.028618471895
 20
786.4414725352169
 30
0.0
  0
VERTEX
  5
1DB
  8
0
 10
880.9123479095302
 20
786.0832946083766
 30
0.0
  0
VERTEX
  5
1DC
  8
0
 10
880.8071507340574
 20
785.7139510164204
 30
0.0
  0
VERTEX
  5
1DD
  8
0
 10
880.7130269454765
 20
785.3334417593481
 30
0.0
  0
VERTEX
  5
1DE
  8
0
 10
880.6299765437873
 20
784.94176683716
 30
0.0
  0
VERTEX
  5
1DF
  8
0
 10
880.5579995289902
 20
784.5389262498559
 30
0.0
  0
VERTEX
  5
1E0
  8
0
 10
880.4970959010848
 20
784.1249199974357
 30
0.0
  0
VERTEX
  5
1E1
  8
0
 10
880.4472656600714
 20
783.6997480798996
 30
0.0
  0
VERTEX
  5
1E2
  8
0
 10
880.4085088059499
 20
783.2634104972475
 30
0.0
  0
VERTEX
  5
1E3
  8
0
 10
880.3808253387201
 20
782.8159072494794
 30
0.0
  0
VERTEX
  5
1E4
  8
0
 10
880.3642152583823
 20
782.3572383365954
 30
0.0
  0
SEQEND
  5
897
  8
0
  0
POLYLINE
  5
76
  8
0
 66
     1
 10
0.0
 20
0.0
 30
0.0
 70
     1
  0
VERTEX
  5
1E5
  8
0
 10
923.8490364698962
 20
776.2178296699531
 30
0.0
  0
VERTEX
  5
1E6
  8
0
 10
923.9964163285604
 20
776.2217630292554
 30
0.0
  0
VERTEX
  5
1E7
  8
0
 10
924.1432655874357
 20
776.233563107162
 30
0.0
  0
VERTEX
  5
1E8
  8
0
 10
924.2895842465227
 20
776.2532299036732
 30
0.0
  0
VERTEX
  5
1E9
  8
0
 10
924.4353723058211
 20
776.2807634187886
 30
0.0
  0
VERTEX
  5
1EA
  8
0
 10
924.580629765331
 20
776.3161636525087
 30
0.0
  0
VERTEX
  5
1EB
  8
0
 10
924.7253566250522
 20
776.359430604833
 30
0.0
  0
VERTEX
  5
1EC
  8
0
 10
924.8695528849848
 20
776.4105642757619
 30
0.0
  0
VERTEX
  5
1ED
  8
0
 10
925.0132185451289
 20
776.4695646652951
 30
0.0
  0
VERTEX
  5
1EE
  8
0
 10
925.2989580660515
 20
776.6111656001751
 30
0.0
  0
VERTEX
  5
1EF
  8
0
 10
925.5825751878198
 20
776.7842334094727
 30
0.0
  0
VERTEX
  5
1F0
  8
0
 10
925.8640699104337
 20
776.9887680931881
 30
0.0
  0
VERTEX
  5
1F1
  8
0
 10
926.1434422338934
 20
777.2247696513214
 30
0.0
  0
VERTEX
  5
1F2
  8
0
 10
926.4206921581989
 20
777.4922380838723
 30
0.0
  0
VERTEX
  5
1F3
  8
0
 10
926.6958196833501
 20
777.7911733908411
 30
0.0
  0
VERTEX
  5
1F4
  8
0
 10
926.968824809347
 20
778.1215755722276
 30
0.0
  0
VERTEX
  5
1F5
  8
0
 10
927.2397075361896
 20
778.4834446280317
 30
0.0
  0
VERTEX
  5
1F6
  8
0
 10
927.5084678638779
 20
778.8767805582538
 30
0.0
  0
VERTEX
  5
1F7
  8
0
 10
927.775105792412
 20
779.3015833628933
 30
0.0
  0
VERTEX
  5
1F8
  8
0
 10
928.0396213217916
 20
779.757853041951
 30
0.0
  0
VERTEX
  5
1F9
  8
0
 10
928.3020144520171
 20
780.245589595426
 30
0.0
  0
VERTEX
  5
1FA
  8
0
 10
928.5551797598328
 20
780.7466142131716
 30
0.0
  0
VERTEX
  5
1FB
  8
0
 10
928.7920118219829
 20
781.2427480850398
 30
0.0
  0
VERTEX
  5
1FC
  8
0
 10
929.0125106384675
 20
781.7339912110308
 30
0.0
  0
VERTEX
  5
1FD
  8
0
 10
929.2166762092866
 20
782.2203435911445
 30
0.0
  0
VERTEX
  5
1FE
  8
0
 10
929.40450853444
 20
782.701805225381
 30
0.0
  0
VERTEX
  5
1FF
  8
0
 10
929.5760076139279
 20
783.1783761137402
 30
0.0
  0
VERTEX
  5
200
  8
0
 10
929.7311734477503
 20
783.6500562562222
 30
0.0
  0
VERTEX
  5
201
  8
0
 10
929.8700060359074
 20
784.116845652827
 30
0.0
  0
VERTEX
  5
202
  8
0
 10
929.9925053783986
 20
784.5787443035546
 30
0.0
  0
VERTEX
  5
203
  8
0
 10
930.0986714752246
 20
785.0357522084048
 30
0.0
  0
VERTEX
  5
204
  8
0
 10
930.1885043263849
 20
785.4878693673778
 30
0.0
  0
VERTEX
  5
205
  8
0
 10
930.2620039318799
 20
785.9350957804736
 30
0.0
  0
VERTEX
  5
206
  8
0
 10
930.319170291709
 20
786.3774314476923
 30
0.0
  0
VERTEX
  5
207
  8
0
 10
930.3600034058729
 20
786.8148763690335
 30
0.0
  0
VERTEX
  5
208
  8
0
 10
930.3845032743712
 20
787.2474305444975
 30
0.0
  0
VERTEX
  5
209
  8
0
 10
930.3926698972041
 20
787.6750939740843
 30
0.0
  0
VERTEX
  5
20A
  8
0
 10
930.3834420747943
 20
787.9967758632935
 30
0.0
  0
VERTEX
  5
20B
  8
0
 10
930.3557586075646
 20
788.3003712205791
 30
0.0
  0
VERTEX
  5
20C
  8
0
 10
930.3096194955151
 20
788.5858800459414
 30
0.0
  0
VERTEX
  5
20D
  8
0
 10
930.2450247386457
 20
788.8533023393803
 30
0.0
  0
VERTEX
  5
20E
  8
0
 10
930.1619743369567
 20
789.1026381008958
 30
0.0
  0
VERTEX
  5
20F
  8
0
 10
930.0604682904478
 20
789.3338873304879
 30
0.0
  0
VERTEX
  5
210
  8
0
 10
929.9405065991192
 20
789.5470500281565
 30
0.0
  0
VERTEX
  5
211
  8
0
 10
929.8020892629705
 20
789.7421261939018
 30
0.0
  0
VERTEX
  5
212
  8
0
 10
929.6481691851733
 20
789.9165320374489
 30
0.0
  0
VERTEX
  5
213
  8
0
 10
929.4816992688986
 20
790.067683768523
 30
0.0
  0
VERTEX
  5
214
  8
0
 10
929.3026795141467
 20
790.1955813871241
 30
0.0
  0
VERTEX
  5
215
  8
0
 10
929.1111099209172
 20
790.3002248932524
 30
0.0
  0
VERTEX
  5
216
  8
0
 10
928.9069904892102
 20
790.3816142869078
 30
0.0
  0
VERTEX
  5
217
  8
0
 10
928.6903212190257
 20
790.4397495680902
 30
0.0
  0
VERTEX
  5
218
  8
0
 10
928.4611021103639
 20
790.4746307367996
 30
0.0
  0
VERTEX
  5
219
  8
0
 10
928.2193331632245
 20
790.486257793036
 30
0.0
  0
VERTEX
  5
21A
  8
0
 10
928.0719302350044
 20
790.4823359685118
 30
0.0
  0
VERTEX
  5
21B
  8
0
 10
927.9250117674608
 20
790.4705704949392
 30
0.0
  0
VERTEX
  5
21C
  8
0
 10
927.7785777605936
 20
790.4509613723183
 30
0.0
  0
VERTEX
  5
21D
  8
0
 10
927.6326282144032
 20
790.4235086006487
 30
0.0
  0
VERTEX
  5
21E
  8
0
 10
927.487163128889
 20
790.3882121799309
 30
0.0
  0
VERTEX
  5
21F
  8
0
 10
927.3421825040515
 20
790.3450721101647
 30
0.0
  0
VERTEX
  5
220
  8
0
 10
927.1976863398904
 20
790.29408839135
 30
0.0
  0
VERTEX
  5
221
  8
0
 10
927.053674636406
 20
790.2352610234868
 30
0.0
  0
VERTEX
  5
222
  8
0
 10
926.7671046114665
 20
790.0940753406154
 30
0.0
  0
VERTEX
  5
223
  8
0
 10
926.4824724292332
 20
789.9215150615502
 30
0.0
  0
VERTEX
  5
224
  8
0
 10
926.1997780897059
 20
789.7175801862913
 30
0.0
  0
VERTEX
  5
225
  8
0
 10
925.9190215928847
 20
789.4822707148389
 30
0.0
  0
VERTEX
  5
226
  8
0
 10
925.6402029387697
 20
789.2155866471929
 30
0.0
  0
VERTEX
  5
227
  8
0
 10
925.3633221273608
 20
788.9175279833531
 30
0.0
  0
VERTEX
  5
228
  8
0
 10
925.0883791586577
 20
788.5880947233197
 30
0.0
  0
VERTEX
  5
229
  8
0
 10
924.8153740326609
 20
788.2272868670927
 30
0.0
  0
VERTEX
  5
22A
  8
0
 10
924.5443067493701
 20
787.8351044146721
 30
0.0
  0
VERTEX
  5
22B
  8
0
 10
924.2751773087854
 20
787.4115473660576
 30
0.0
  0
VERTEX
  5
22C
  8
0
 10
924.0079857109067
 20
786.9566157212496
 30
0.0
  0
VERTEX
  5
22D
  8
0
 10
923.7427319557341
 20
786.4703094802478
 30
0.0
  0
VERTEX
  5
22E
  8
0
 10
923.4867060229715
 20
785.9708074531999
 30
0.0
  0
VERTEX
  5
22F
  8
0
 10
923.2471978923226
 20
785.4762884502534
 30
0.0
  0
VERTEX
  5
230
  8
0
 10
923.0242075637873
 20
784.9867524714082
 30
0.0
  0
VERTEX
  5
231
  8
0
 10
922.8177350373658
 20
784.5021995166644
 30
0.0
  0
VERTEX
  5
232
  8
0
 10
922.627780313058
 20
784.022629586022
 30
0.0
  0
VERTEX
  5
233
  8
0
 10
922.454343390864
 20
783.5480426794809
 30
0.0
  0
VERTEX
  5
234
  8
0
 10
922.2974242707837
 20
783.0784387970411
 30
0.0
  0
VERTEX
  5
235
  8
0
 10
922.157022952817
 20
782.6138179387026
 30
0.0
  0
VERTEX
  5
236
  8
0
 10
922.0331394369641
 20
782.1541801044655
 30
0.0
  0
VERTEX
  5
237
  8
0
 10
921.9257737232249
 20
781.6995252943298
 30
0.0
  0
VERTEX
  5
238
  8
0
 10
921.8349258115995
 20
781.2498535082954
 30
0.0
  0
VERTEX
  5
239
  8
0
 10
921.7605957020877
 20
780.8051647463624
 30
0.0
  0
VERTEX
  5
23A
  8
0
 10
921.7027833946897
 20
780.3654590085307
 30
0.0
  0
VERTEX
  5
23B
  8
0
 10
921.6614888894054
 20
779.9307362948002
 30
0.0
  0
VERTEX
  5
23C
  8
0
 10
921.636712186235
 20
779.5009966051712
 30
0.0
  0
VERTEX
  5
23D
  8
0
 10
921.628453285178
 20
779.0762399396435
 30
0.0
  0
VERTEX
  5
23E
  8
0
 10
921.6382347769324
 20
778.7648932115335
 30
0.0
  0
VERTEX
  5
23F
  8
0
 10
921.667579252196
 20
778.4686801121757
 30
0.0
  0
VERTEX
  5
240
  8
0
 10
921.7164867109684
 20
778.1876006415703
 30
0.0
  0
VERTEX
  5
241
  8
0
 10
921.7849571532499
 20
777.9216547997169
 30
0.0
  0
VERTEX
  5
242
  8
0
 10
921.8729905790403
 20
777.6708425866159
 30
0.0
  0
VERTEX
  5
243
  8
0
 10
921.9805869883398
 20
777.435164002267
 30
0.0
  0
VERTEX
  5
244
  8
0
 10
922.1077463811481
 20
777.2146190466704
 30
0.0
  0
VERTEX
  5
245
  8
0
 10
922.2544687574655
 20
777.009207719826
 30
0.0
  0
VERTEX
  5
246
  8
0
 10
922.4163247625352
 20
776.8237284893871
 30
0.0
  0
VERTEX
  5
247
  8
0
 10
922.5888850416002
 20
776.6629798230067
 30
0.0
  0
VERTEX
  5
248
  8
0
 10
922.7721495946608
 20
776.5269617206848
 30
0.0
  0
VERTEX
  5
249
  8
0
 10
922.9661184217169
 20
776.4156741824213
 30
0.0
  0
VERTEX
  5
24A
  8
0
 10
923.1707915227686
 20
776.3291172082165
 30
0.0
  0
VERTEX
  5
24B
  8
0
 10
923.3861688978157
 20
776.2672907980701
 30
0.0
  0
VERTEX
  5
24C
  8
0
 10
923.6122505468581
 20
776.2301949519823
 30
0.0
  0
SEQEND
  5
898
  8
0
  0
POLYLINE
  5
77
  8
0
 66
     1
 10
0.0
 20
0.0
 30
0.0
 70
     1
  0
VERTEX
  5
24D
  8
0
 10
962.6383725263568
 20
776.2178296699531
 30
0.0
  0
VERTEX
  5
24E
  8
0
 10
962.7857523850209
 20
776.2217630292554
 30
0.0
  0
VERTEX
  5
24F
  8
0
 10
962.9326016438963
 20
776.233563107162
 30
0.0
  0
VERTEX
  5
250
  8
0
 10
963.0789203029833
 20
776.2532299036732
 30
0.0
  0
VERTEX
  5
251
  8
0
 10
963.2247083622817
 20
776.2807634187886
 30
0.0
  0
VERTEX
  5
252
  8
0
 10
963.3699658217915
 20
776.3161636525087
 30
0.0
  0
VERTEX
  5
253
  8
0
 10
963.5146926815128
 20
776.359430604833
 30
0.0
  0
VERTEX
  5
254
  8
0
 10
963.6588889414454
 20
776.4105642757619
 30
0.0
  0
VERTEX
  5
255
  8
0
 10
963.8025546015895
 20
776.4695646652951
 30
0.0
  0
VERTEX
  5
256
  8
0
 10
964.088294122512
 20
776.6111656001751
 30
0.0
  0
VERTEX
  5
257
  8
0
 10
964.3719112442803
 20
776.7842334094727
 30
0.0
  0
VERTEX
  5
258
  8
0
 10
964.6534059668943
 20
776.9887680931881
 30
0.0
  0
VERTEX
  5
259
  8
0
 10
964.932778290354
 20
777.2247696513214
 30
0.0
  0
VERTEX
  5
25A
  8
0
 10
965.2100282146595
 20
777.4922380838723
 30
0.0
  0
VERTEX
  5
25B
  8
0
 10
965.4851557398107
 20
777.7911733908411
 30
0.0
  0
VERTEX
  5
25C
  8
0
 10
965.7581608658076
 20
778.1215755722276
 30
0.0
  0
VERTEX
  5
25D
  8
0
 10
966.0290435926502
 20
778.4834446280317
 30
0.0
  0
VERTEX
  5
25E
  8
0
 10
966.2978039203384
 20
778.8767805582538
 30
0.0
  0
VERTEX
  5
25F
  8
0
 10
966.5644418488725
 20
779.3015833628933
 30
0.0
  0
VERTEX
  5
260
  8
0
 10
966.8289573782522
 20
779.757853041951
 30
0.0
  0
VERTEX
  5
261
  8
0
 10
967.0913505084777
 20
780.245589595426
 30
0.0
  0
VERTEX
  5
262
  8
0
 10
967.3445158162933
 20
780.7466142131716
 30
0.0
  0
VERTEX
  5
263
  8
0
 10
967.5813478784435
 20
781.2427480850398
 30
0.0
  0
VERTEX
  5
264
  8
0
 10
967.801846694928
 20
781.7339912110308
 30
0.0
  0
VERTEX
  5
265
  8
0
 10
968.0060122657471
 20
782.2203435911445
 30
0.0
  0
VERTEX
  5
266
  8
0
 10
968.1938445909005
 20
782.701805225381
 30
0.0
  0
VERTEX
  5
267
  8
0
 10
968.3653436703885
 20
783.1783761137402
 30
0.0
  0
VERTEX
  5
268
  8
0
 10
968.5205095042108
 20
783.6500562562222
 30
0.0
  0
VERTEX
  5
269
  8
0
 10
968.659342092368
 20
784.116845652827
 30
0.0
  0
VERTEX
  5
26A
  8
0
 10
968.7818414348592
 20
784.5787443035546
 30
0.0
  0
VERTEX
  5
26B
  8
0
 10
968.8880075316852
 20
785.0357522084048
 30
0.0
  0
VERTEX
  5
26C
  8
0
 10
968.9778403828454
 20
785.4878693673778
 30
0.0
  0
VERTEX
  5
26D
  8
0
 10
969.0513399883405
 20
785.9350957804736
 30
0.0
  0
VERTEX
  5
26E
  8
0
 10
969.1085063481696
 20
786.3774314476923
 30
0.0
  0
VERTEX
  5
26F
  8
0
 10
969.1493394623335
 20
786.8148763690335
 30
0.0
  0
VERTEX
  5
270
  8
0
 10
969.1738393308318
 20
787.2474305444975
 30
0.0
  0
VERTEX
  5
271
  8
0
 10
969.1820059536647
 20
787.6750939740843
 30
0.0
  0
VERTEX
  5
272
  8
0
 10
969.1727781312549
 20
787.9967758632935
 30
0.0
  0
VERTEX
  5
273
  8
0
 10
969.1450946640251
 20
788.3003712205791
 30
0.0
  0
VERTEX
  5
274
  8
0
 10
969.0989555519757
 20
788.5858800459414
 30
0.0
  0
VERTEX
  5
275
  8
0
 10
969.0343607951063
 20
788.8533023393803
 30
0.0
  0
VERTEX
  5
276
  8
0
 10
968.9513103934173
 20
789.1026381008958
 30
0.0
  0
VERTEX
  5
277
  8
0
 10
968.8498043469083
 20
789.3338873304879
 30
0.0
  0
VERTEX
  5
278
  8
0
 10
968.7298426555795
 20
789.5470500281565
 30
0.0
  0
VERTEX
  5
279
  8
0
 10
968.591425319431
 20
789.7421261939018
 30
0.0
  0
VERTEX
  5
27A
  8
0
 10
968.4375052416339
 20
789.9165320374489
 30
0.0
  0
VERTEX
  5
27B
  8
0
 10
968.2710353253592
 20
790.067683768523
 30
0.0
  0
VERTEX
  5
27C
  8
0
 10
968.0920155706073
 20
790.1955813871241
 30
0.0
  0
VERTEX
  5
27D
  8
0
 10
967.9004459773778
 20
790.3002248932524
 30
0.0
  0
VERTEX
  5
27E
  8
0
 10
967.6963265456708
 20
790.3816142869078
 30
0.0
  0
VERTEX
  5
27F
  8
0
 10
967.4796572754863
 20
790.4397495680902
 30
0.0
  0
VERTEX
  5
280
  8
0
 10
967.2504381668244
 20
790.4746307367996
 30
0.0
  0
VERTEX
  5
281
  8
0
 10
967.0086692196851
 20
790.486257793036
 30
0.0
  0
VERTEX
  5
282
  8
0
 10
966.861266291465
 20
790.4823359685118
 30
0.0
  0
VERTEX
  5
283
  8
0
 10
966.7143478239213
 20
790.4705704949392
 30
0.0
  0
VERTEX
  5
284
  8
0
 10
966.5679138170542
 20
790.4509613723183
 30
0.0
  0
VERTEX
  5
285
  8
0
 10
966.4219642708638
 20
790.4235086006487
 30
0.0
  0
VERTEX
  5
286
  8
0
 10
966.2764991853496
 20
790.3882121799309
 30
0.0
  0
VERTEX
  5
287
  8
0
 10
966.1315185605121
 20
790.3450721101647
 30
0.0
  0
VERTEX
  5
288
  8
0
 10
965.987022396351
 20
790.29408839135
 30
0.0
  0
VERTEX
  5
289
  8
0
 10
965.8430106928665
 20
790.2352610234868
 30
0.0
  0
VERTEX
  5
28A
  8
0
 10
965.5564406679271
 20
790.0940753406154
 30
0.0
  0
VERTEX
  5
28B
  8
0
 10
965.2718084856938
 20
789.9215150615502
 30
0.0
  0
VERTEX
  5
28C
  8
0
 10
964.9891141461665
 20
789.7175801862913
 30
0.0
  0
VERTEX
  5
28D
  8
0
 10
964.7083576493453
 20
789.4822707148389
 30
0.0
  0
VERTEX
  5
28E
  8
0
 10
964.4295389952302
 20
789.2155866471929
 30
0.0
  0
VERTEX
  5
28F
  8
0
 10
964.1526581838214
 20
788.9175279833531
 30
0.0
  0
VERTEX
  5
290
  8
0
 10
963.8777152151183
 20
788.5880947233197
 30
0.0
  0
VERTEX
  5
291
  8
0
 10
963.6047100891215
 20
788.2272868670927
 30
0.0
  0
VERTEX
  5
292
  8
0
 10
963.3336428058307
 20
787.8351044146721
 30
0.0
  0
VERTEX
  5
293
  8
0
 10
963.064513365246
 20
787.4115473660576
 30
0.0
  0
VERTEX
  5
294
  8
0
 10
962.7973217673673
 20
786.9566157212496
 30
0.0
  0
VERTEX
  5
295
  8
0
 10
962.5320680121947
 20
786.4703094802478
 30
0.0
  0
VERTEX
  5
296
  8
0
 10
962.276042079432
 20
785.9708074531999
 30
0.0
  0
VERTEX
  5
297
  8
0
 10
962.0365339487831
 20
785.4762884502534
 30
0.0
  0
VERTEX
  5
298
  8
0
 10
961.8135436202479
 20
784.9867524714082
 30
0.0
  0
VERTEX
  5
299
  8
0
 10
961.6070710938263
 20
784.5021995166644
 30
0.0
  0
VERTEX
  5
29A
  8
0
 10
961.4171163695186
 20
784.022629586022
 30
0.0
  0
VERTEX
  5
29B
  8
0
 10
961.2436794473246
 20
783.5480426794809
 30
0.0
  0
VERTEX
  5
29C
  8
0
 10
961.0867603272443
 20
783.0784387970411
 30
0.0
  0
VERTEX
  5
29D
  8
0
 10
960.9463590092776
 20
782.6138179387026
 30
0.0
  0
VERTEX
  5
29E
  8
0
 10
960.8224754934247
 20
782.1541801044655
 30
0.0
  0
VERTEX
  5
29F
  8
0
 10
960.7151097796855
 20
781.6995252943298
 30
0.0
  0
VERTEX
  5
2A0
  8
0
 10
960.6242618680601
 20
781.2498535082954
 30
0.0
  0
VERTEX
  5
2A1
  8
0
 10
960.5499317585483
 20
780.8051647463624
 30
0.0
  0
VERTEX
  5
2A2
  8
0
 10
960.4921194511503
 20
780.3654590085307
 30
0.0
  0
VERTEX
  5
2A3
  8
0
 10
960.450824945866
 20
779.9307362948002
 30
0.0
  0
VERTEX
  5
2A4
  8
0
 10
960.4260482426955
 20
779.5009966051712
 30
0.0
  0
VERTEX
  5
2A5
  8
0
 10
960.4177893416386
 20
779.0762399396435
 30
0.0
  0
VERTEX
  5
2A6
  8
0
 10
960.427570833393
 20
778.7648932115335
 30
0.0
  0
VERTEX
  5
2A7
  8
0
 10
960.4569153086566
 20
778.4686801121757
 30
0.0
  0
VERTEX
  5
2A8
  8
0
 10
960.505822767429
 20
778.1876006415703
 30
0.0
  0
VERTEX
  5
2A9
  8
0
 10
960.5742932097105
 20
777.9216547997169
 30
0.0
  0
VERTEX
  5
2AA
  8
0
 10
960.6623266355009
 20
777.6708425866159
 30
0.0
  0
VERTEX
  5
2AB
  8
0
 10
960.7699230448004
 20
777.435164002267
 30
0.0
  0
VERTEX
  5
2AC
  8
0
 10
960.8970824376087
 20
777.2146190466704
 30
0.0
  0
VERTEX
  5
2AD
  8
0
 10
961.043804813926
 20
777.009207719826
 30
0.0
  0
VERTEX
  5
2AE
  8
0
 10
961.2056608189957
 20
776.8237284893871
 30
0.0
  0
VERTEX
  5
2AF
  8
0
 10
961.3782210980607
 20
776.6629798230067
 30
0.0
  0
VERTEX
  5
2B0
  8
0
 10
961.5614856511214
 20
776.5269617206848
 30
0.0
  0
VERTEX
  5
2B1
  8
0
 10
961.7554544781775
 20
776.4156741824213
 30
0.0
  0
VERTEX
  5
2B2
  8
0
 10
961.9601275792292
 20
776.3291172082165
 30
0.0
  0
VERTEX
  5
2B3
  8
0
 10
962.1755049542762
 20
776.2672907980701
 30
0.0
  0
VERTEX
  5
2B4
  8
0
 10
962.4015866033187
 20
776.2301949519823
 30
0.0
  0
SEQEND
  5
899
  8
0
  0
POLYLINE
  5
78
  8
0
 66
     1
 10
0.0
 20
0.0
 30
0.0
 70
     1
  0
VERTEX
  5
2B5
  8
0
 10
875.0669397627837
 20
777.5160563431494
 30
0.0
  0
VERTEX
  5
2B6
  8
0
 10
874.3888025863481
 20
776.7981604956019
 30
0.0
  0
VERTEX
  5
2B7
  8
0
 10
873.7289253288488
 20
776.1295484863625
 30
0.0
  0
VERTEX
  5
2B8
  8
0
 10
873.0873137960691
 20
775.5102148616176
 30
0.0
  0
VERTEX
  5
2B9
  8
0
 10
872.4639737937923
 20
774.9401541675534
 30
0.0
  0
VERTEX
  5
2BA
  8
0
 10
871.8589111278017
 20
774.4193609503563
 30
0.0
  0
VERTEX
  5
2BB
  8
0
 10
871.2721316038807
 20
773.947829756213
 30
0.0
  0
VERTEX
  5
2BC
  8
0
 10
870.7036410278125
 20
773.5255551313096
 30
0.0
  0
VERTEX
  5
2BD
  8
0
 10
870.4262559095305
 20
773.3328873280061
 30
0.0
  0
VERTEX
  5
2BE
  8
0
 10
870.1534452053804
 20
773.1525316218326
 30
0.0
  0
VERTEX
  5
2BF
  8
0
 10
869.8815935571847
 20
772.9830619423511
 30
0.0
  0
VERTEX
  5
2C0
  8
0
 10
869.6093727960927
 20
772.8245257905783
 30
0.0
  0
VERTEX
  5
2C1
  8
0
 10
869.3367829221042
 20
772.6769231665137
 30
0.0
  0
VERTEX
  5
2C2
  8
0
 10
869.0638239352194
 20
772.5402540701577
 30
0.0
  0
VERTEX
  5
2C3
  8
0
 10
868.7904958354382
 20
772.4145185015103
 30
0.0
  0
VERTEX
  5
2C4
  8
0
 10
868.5167986227606
 20
772.2997164605713
 30
0.0
  0
VERTEX
  5
2C5
  8
0
 10
868.2427322971866
 20
772.1958479473408
 30
0.0
  0
VERTEX
  5
2C6
  8
0
 10
867.9682968587161
 20
772.1029129618187
 30
0.0
  0
VERTEX
  5
2C7
  8
0
 10
867.6934923073493
 20
772.0209115040051
 30
0.0
  0
VERTEX
  5
2C8
  8
0
 10
867.4183186430861
 20
771.9498435738999
 30
0.0
  0
VERTEX
  5
2C9
  8
0
 10
867.1427758659265
 20
771.8897091715032
 30
0.0
  0
VERTEX
  5
2CA
  8
0
 10
866.8668639758705
 20
771.8405082968151
 30
0.0
  0
VERTEX
  5
2CB
  8
0
 10
866.5905829729181
 20
771.8022409498353
 30
0.0
  0
VERTEX
  5
2CC
  8
0
 10
866.3139328570694
 20
771.7749071305642
 30
0.0
  0
VERTEX
  5
2CD
  8
0
 10
866.0369136283243
 20
771.7585068390015
 30
0.0
  0
VERTEX
  5
2CE
  8
0
 10
865.7595252866827
 20
771.7530400751473
 30
0.0
  0
VERTEX
  5
2CF
  8
0
 10
865.473693487536
 20
771.7589458814897
 30
0.0
  0
VERTEX
  5
2D0
  8
0
 10
865.1949671116449
 20
771.7766633005167
 30
0.0
  0
VERTEX
  5
2D1
  8
0
 10
864.9233461590096
 20
771.8061923322284
 30
0.0
  0
VERTEX
  5
2D2
  8
0
 10
864.6588306296298
 20
771.8475329766246
 30
0.0
  0
VERTEX
  5
2D3
  8
0
 10
864.4014205235056
 20
771.9006852337056
 30
0.0
  0
VERTEX
  5
2D4
  8
0
 10
864.1511158406371
 20
771.9656491034714
 30
0.0
  0
VERTEX
  5
2D5
  8
0
 10
863.9079165810242
 20
772.0424245859217
 30
0.0
  0
VERTEX
  5
2D6
  8
0
 10
863.671822744667
 20
772.1310116810567
 30
0.0
  0
VERTEX
  5
2D7
  8
0
 10
863.4428343315653
 20
772.2314103888766
 30
0.0
  0
VERTEX
  5
2D8
  8
0
 10
863.2209513417192
 20
772.343620709381
 30
0.0
  0
VERTEX
  5
2D9
  8
0
 10
863.0061737751289
 20
772.4676426425701
 30
0.0
  0
VERTEX
  5
2DA
  8
0
 10
862.7985016317941
 20
772.6034761884437
 30
0.0
  0
VERTEX
  5
2DB
  8
0
 10
862.597934911715
 20
772.751121347002
 30
0.0
  0
VERTEX
  5
2DC
  8
0
 10
862.4044736148915
 20
772.9105781182451
 30
0.0
  0
VERTEX
  5
2DD
  8
0
 10
862.2181177413236
 20
773.0818465021729
 30
0.0
  0
VERTEX
  5
2DE
  8
0
 10
862.0388672910112
 20
773.2649264987853
 30
0.0
  0
VERTEX
  5
2DF
  8
0
 10
861.8686601066606
 20
773.457603430704
 30
0.0
  0
VERTEX
  5
2E0
  8
0
 10
861.7094340309778
 20
773.6576626205506
 30
0.0
  0
VERTEX
  5
2E1
  8
0
 10
861.5611890639627
 20
773.8651040683251
 30
0.0
  0
VERTEX
  5
2E2
  8
0
 10
861.4239252056154
 20
774.0799277740275
 30
0.0
  0
VERTEX
  5
2E3
  8
0
 10
861.2976424559359
 20
774.3021337376579
 30
0.0
  0
VERTEX
  5
2E4
  8
0
 10
861.1823408149244
 20
774.5317219592162
 30
0.0
  0
VERTEX
  5
2E5
  8
0
 10
861.0780202825804
 20
774.7686924387024
 30
0.0
  0
VERTEX
  5
2E6
  8
0
 10
860.9846808589043
 20
775.0130451761166
 30
0.0
  0
VERTEX
  5
2E7
  8
0
 10
860.9023225438959
 20
775.2647801714586
 30
0.0
  0
VERTEX
  5
2E8
  8
0
 10
860.8309453375554
 20
775.5238974247286
 30
0.0
  0
VERTEX
  5
2E9
  8
0
 10
860.7705492398826
 20
775.7903969359265
 30
0.0
  0
VERTEX
  5
2EA
  8
0
 10
860.7211342508775
 20
776.0642787050523
 30
0.0
  0
VERTEX
  5
2EB
  8
0
 10
860.6827003705403
 20
776.3455427321059
 30
0.0
  0
VERTEX
  5
2EC
  8
0
 10
860.6552475988708
 20
776.6341890170876
 30
0.0
  0
VERTEX
  5
2ED
  8
0
 10
860.6387759358691
 20
776.9302175599972
 30
0.0
  0
VERTEX
  5
2EE
  8
0
 10
860.6332853815353
 20
777.2336283608348
 30
0.0
  0
VERTEX
  5
2EF
  8
0
 10
860.6438050990826
 20
777.6171366601902
 30
0.0
  0
VERTEX
  5
2F0
  8
0
 10
860.6753642517244
 20
778.035341571807
 30
0.0
  0
VERTEX
  5
2F1
  8
0
 10
860.727962839461
 20
778.4882430956848
 30
0.0
  0
VERTEX
  5
2F2
  8
0
 10
860.8016008622919
 20
778.9758412318239
 30
0.0
  0
VERTEX
  5
2F3
  8
0
 10
860.8962783202176
 20
779.4981359802242
 30
0.0
  0
VERTEX
  5
2F4
  8
0
 10
861.0119952132376
 20
780.0551273408857
 30
0.0
  0
VERTEX
  5
2F5
  8
0
 10
861.1487515413523
 20
780.6468153138085
 30
0.0
  0
VERTEX
  5
2F6
  8
0
 10
861.3065473045616
 20
781.2731998989924
 30
0.0
  0
VERTEX
  5
2F7
  8
0
 10
861.4643430677709
 20
781.8981080325908
 30
0.0
  0
VERTEX
  5
2F8
  8
0
 10
861.6010993958856
 20
782.4853666507568
 30
0.0
  0
VERTEX
  5
2F9
  8
0
 10
861.7168162889056
 20
783.0349757534904
 30
0.0
  0
VERTEX
  5
2FA
  8
0
 10
861.8114937468313
 20
783.5469353407916
 30
0.0
  0
VERTEX
  5
2FB
  8
0
 10
861.8851317696622
 20
784.0212454126605
 30
0.0
  0
VERTEX
  5
2FC
  8
0
 10
861.9377303573987
 20
784.4579059690969
 30
0.0
  0
VERTEX
  5
2FD
  8
0
 10
861.9692895100404
 20
784.856917010101
 30
0.0
  0
VERTEX
  5
2FE
  8
0
 10
861.9798092275878
 20
785.2182785356727
 30
0.0
  0
VERTEX
  5
2FF
  8
0
 10
861.9741802559178
 20
785.4845934904223
 30
0.0
  0
VERTEX
  5
300
  8
0
 10
861.9572933409075
 20
785.7342983648341
 30
0.0
  0
VERTEX
  5
301
  8
0
 10
861.9291484825574
 20
785.9673931589082
 30
0.0
  0
VERTEX
  5
302
  8
0
 10
861.8897456808671
 20
786.1838778726444
 30
0.0
  0
VERTEX
  5
303
  8
0
 10
861.8390849358368
 20
786.3837525060428
 30
0.0
  0
VERTEX
  5
304
  8
0
 10
861.7771662474663
 20
786.5670170591035
 30
0.0
  0
VERTEX
  5
305
  8
0
 10
861.703989615756
 20
786.7336715318263
 30
0.0
  0
VERTEX
  5
306
  8
0
 10
861.6195550407053
 20
786.8837159242113
 30
0.0
  0
VERTEX
  5
307
  8
0
 10
861.5238625223146
 20
787.0171502362584
 30
0.0
  0
VERTEX
  5
308
  8
0
 10
861.4169120605839
 20
787.1339744679678
 30
0.0
  0
VERTEX
  5
309
  8
0
 10
861.2987036555132
 20
787.2341886193393
 30
0.0
  0
VERTEX
  5
30A
  8
0
 10
861.1692373071022
 20
787.3177926903729
 30
0.0
  0
VERTEX
  5
30B
  8
0
 10
861.0285130153512
 20
787.3847866810688
 30
0.0
  0
VERTEX
  5
30C
  8
0
 10
860.8765307802602
 20
787.4351705914269
 30
0.0
  0
VERTEX
  5
30D
  8
0
 10
860.7132906018292
 20
787.4689444214471
 30
0.0
  0
VERTEX
  5
30E
  8
0
 10
860.538792480058
 20
787.4861081711294
 30
0.0
  0
VERTEX
  5
30F
  8
0
 10
860.3339348225581
 20
787.5145298641519
 30
0.0
  0
VERTEX
  5
310
  8
0
 10
860.1563915193917
 20
787.5643601051655
 30
0.0
  0
VERTEX
  5
311
  8
0
 10
860.0778627506834
 20
787.5973034311688
 30
0.0
  0
VERTEX
  5
312
  8
0
 10
860.0061625705584
 20
787.6355988941699
 30
0.0
  0
VERTEX
  5
313
  8
0
 10
859.9412909790169
 20
787.6792464941688
 30
0.0
  0
VERTEX
  5
314
  8
0
 10
859.8832479760587
 20
787.7282462311654
 30
0.0
  0
VERTEX
  5
315
  8
0
 10
859.8320335616838
 20
787.7825981051597
 30
0.0
  0
VERTEX
  5
316
  8
0
 10
859.787647735892
 20
787.8423021161517
 30
0.0
  0
VERTEX
  5
317
  8
0
 10
859.7500904986839
 20
787.9073582641414
 30
0.0
  0
VERTEX
  5
318
  8
0
 10
859.7193618500588
 20
787.977766549129
 30
0.0
  0
VERTEX
  5
319
  8
0
 10
859.6954617900171
 20
788.0535269711141
 30
0.0
  0
VERTEX
  5
31A
  8
0
 10
859.6783903185587
 20
788.1346395300972
 30
0.0
  0
VERTEX
  5
31B
  8
0
 10
859.6647331413922
 20
788.3129210590565
 30
0.0
  0
VERTEX
  5
31C
  8
0
 10
859.6687011050285
 20
788.4816979309335
 30
0.0
  0
VERTEX
  5
31D
  8
0
 10
859.6806049959372
 20
788.6395859723671
 30
0.0
  0
VERTEX
  5
31E
  8
0
 10
859.7004448141186
 20
788.7865851833567
 30
0.0
  0
VERTEX
  5
31F
  8
0
 10
859.7282205595723
 20
788.9226955639026
 30
0.0
  0
VERTEX
  5
320
  8
0
 10
859.7639322322987
 20
789.047917114005
 30
0.0
  0
VERTEX
  5
321
  8
0
 10
859.8075798322974
 20
789.1622498336637
 30
0.0
  0
VERTEX
  5
322
  8
0
 10
859.8591633595688
 20
789.2656937228786
 30
0.0
  0
VERTEX
  5
323
  8
0
 10
859.9186828141126
 20
789.35824878165
 30
0.0
  0
VERTEX
  5
324
  8
0
 10
859.986138195929
 20
789.4399150099775
 30
0.0
  0
VERTEX
  5
325
  8
0
 10
860.0615295050179
 20
789.5106924078616
 30
0.0
  0
VERTEX
  5
326
  8
0
 10
860.1448567413794
 20
789.5705809753017
 30
0.0
  0
VERTEX
  5
327
  8
0
 10
860.2361199050133
 20
789.6195807122983
 30
0.0
  0
VERTEX
  5
328
  8
0
 10
860.3353189959198
 20
789.6576916188512
 30
0.0
  0
VERTEX
  5
329
  8
0
 10
860.4424540140986
 20
789.6849136949604
 30
0.0
  0
VERTEX
  5
32A
  8
0
 10
860.5575249595502
 20
789.7012469406259
 30
0.0
  0
VERTEX
  5
32B
  8
0
 10
860.680531832274
 20
789.7066913558477
 30
0.0
  0
VERTEX
  5
32C
  8
0
 10
862.2632879320199
 20
789.6121984543704
 30
0.0
  0
VERTEX
  5
32D
  8
0
 10
862.537308118482
 20
789.6206880509876
 30
0.0
  0
VERTEX
  5
32E
  8
0
 10
862.8042228816884
 20
789.6461568408388
 30
0.0
  0
VERTEX
  5
32F
  8
0
 10
863.0640322216391
 20
789.6886048239244
 30
0.0
  0
VERTEX
  5
330
  8
0
 10
863.3167361383341
 20
789.7480320002442
 30
0.0
  0
VERTEX
  5
331
  8
0
 10
863.5623346317736
 20
789.8244383697981
 30
0.0
  0
VERTEX
  5
332
  8
0
 10
863.8008277019576
 20
789.9178239325863
 30
0.0
  0
VERTEX
  5
333
  8
0
 10
864.0322153488858
 20
790.0281886886087
 30
0.0
  0
VERTEX
  5
334
  8
0
 10
864.2564975725584
 20
790.1555326378652
 30
0.0
  0
VERTEX
  5
335
  8
0
 10
864.4736743729753
 20
790.2998557803561
 30
0.0
  0
VERTEX
  5
336
  8
0
 10
864.6837457501367
 20
790.4611581160812
 30
0.0
  0
VERTEX
  5
337
  8
0
 10
864.8867117040423
 20
790.6394396450404
 30
0.0
  0
VERTEX
  5
338
  8
0
 10
865.0825722346924
 20
790.8347003672338
 30
0.0
  0
VERTEX
  5
339
  8
0
 10
865.2713273420869
 20
791.0469402826616
 30
0.0
  0
VERTEX
  5
33A
  8
0
 10
865.4529770262259
 20
791.2761593913235
 30
0.0
  0
VERTEX
  5
33B
  8
0
 10
865.6275212871091
 20
791.5223576932196
 30
0.0
  0
VERTEX
  5
33C
  8
0
 10
865.7949601247367
 20
791.78553518835
 30
0.0
  0
VERTEX
  5
33D
  8
0
 10
865.9537248092988
 20
792.0607088526133
 30
0.0
  0
VERTEX
  5
33E
  8
0
 10
866.1022466109862
 20
792.342895661908
 30
0.0
  0
VERTEX
  5
33F
  8
0
 10
866.2405255297986
 20
792.6320956162342
 30
0.0
  0
VERTEX
  5
340
  8
0
 10
866.368561565736
 20
792.9283087155919
 30
0.0
  0
VERTEX
  5
341
  8
0
 10
866.4863547187983
 20
793.2315349599812
 30
0.0
  0
VERTEX
  5
342
  8
0
 10
866.5939049889857
 20
793.5417743494021
 30
0.0
  0
VERTEX
  5
343
  8
0
 10
866.6912123762982
 20
793.8590268838544
 30
0.0
  0
VERTEX
  5
344
  8
0
 10
866.7782768807356
 20
794.1832925633382
 30
0.0
  0
VERTEX
  5
345
  8
0
 10
866.8550985022979
 20
794.5145713878536
 30
0.0
  0
VERTEX
  5
346
  8
0
 10
866.9216772409853
 20
794.8528633574006
 30
0.0
  0
VERTEX
  5
347
  8
0
 10
866.9780130967978
 20
795.198168471979
 30
0.0
  0
VERTEX
  5
348
  8
0
 10
867.0241060697352
 20
795.5504867315889
 30
0.0
  0
VERTEX
  5
349
  8
0
 10
867.0599561597977
 20
795.9098181362303
 30
0.0
  0
VERTEX
  5
34A
  8
0
 10
867.0855633669852
 20
796.2761626859035
 30
0.0
  0
VERTEX
  5
34B
  8
0
 10
867.1009276912977
 20
796.649520380608
 30
0.0
  0
VERTEX
  5
34C
  8
0
 10
867.1060491327352
 20
797.029891220344
 30
0.0
  0
VERTEX
  5
34D
  8
0
 10
867.0981132054626
 20
797.4702659753004
 30
0.0
  0
VERTEX
  5
34E
  8
0
 10
867.074305423645
 20
797.8966605793058
 30
0.0
  0
VERTEX
  5
34F
  8
0
 10
867.0346257872824
 20
798.3090750323604
 30
0.0
  0
VERTEX
  5
350
  8
0
 10
866.9790742963748
 20
798.7075093344637
 30
0.0
  0
VERTEX
  5
351
  8
0
 10
866.9076509509222
 20
799.0919634856161
 30
0.0
  0
VERTEX
  5
352
  8
0
 10
866.8203557509246
 20
799.4624374858175
 30
0.0
  0
VERTEX
  5
353
  8
0
 10
866.7171886963819
 20
799.8189313350681
 30
0.0
  0
VERTEX
  5
354
  8
0
 10
866.5981497872942
 20
800.1614450333674
 30
0.0
  0
VERTEX
  5
355
  8
0
 10
866.4632390236615
 20
800.4899785807158
 30
0.0
  0
VERTEX
  5
356
  8
0
 10
866.3124564054838
 20
800.8045319771132
 30
0.0
  0
VERTEX
  5
357
  8
0
 10
866.145801932761
 20
801.1051052225598
 30
0.0
  0
VERTEX
  5
358
  8
0
 10
865.9632756054932
 20
801.3916983170552
 30
0.0
  0
VERTEX
  5
359
  8
0
 10
865.7648774236803
 20
801.6643112605998
 30
0.0
  0
VERTEX
  5
35A
  8
0
 10
865.5506073873225
 20
801.9229440531932
 30
0.0
  0
VERTEX
  5
35B
  8
0
 10
865.3204654964196
 20
802.1675966948358
 30
0.0
  0
VERTEX
  5
35C
  8
0
 10
865.0744517509717
 20
802.398269185527
 30
0.0
  0
VERTEX
  5
35D
  8
0
 10
864.8125661509786
 20
802.6149615252675
 30
0.0
  0
VERTEX
  5
35E
  8
0
 10
864.5348086964407
 20
802.8176737140569
 30
0.0
  0
VERTEX
  5
35F
  8
0
 10
864.2411793873576
 20
803.0064057518955
 30
0.0
  0
VERTEX
  5
360
  8
0
 10
863.9316782237297
 20
803.1811576387829
 30
0.0
  0
VERTEX
  5
361
  8
0
 10
863.6063052055566
 20
803.3419293747195
 30
0.0
  0
VERTEX
  5
362
  8
0
 10
863.2650603328386
 20
803.4887209597049
 30
0.0
  0
VERTEX
  5
363
  8
0
 10
862.9079436055755
 20
803.6215323937395
 30
0.0
  0
VERTEX
  5
364
  8
0
 10
862.5349550237673
 20
803.7403636768229
 30
0.0
  0
VERTEX
  5
365
  8
0
 10
862.146094587414
 20
803.8452148089555
 30
0.0
  0
VERTEX
  5
366
  8
0
 10
861.741362296516
 20
803.9360857901369
 30
0.0
  0
VERTEX
  5
367
  8
0
 10
861.3207581510727
 20
804.0129766203675
 30
0.0
  0
VERTEX
  5
368
  8
0
 10
860.8842821510846
 20
804.0758872996469
 30
0.0
  0
VERTEX
  5
369
  8
0
 10
860.4319342965512
 20
804.1248178279754
 30
0.0
  0
VERTEX
  5
36A
  8
0
 10
859.9637145874729
 20
804.1597682053529
 30
0.0
  0
VERTEX
  5
36B
  8
0
 10
859.4796230238495
 20
804.1807384317794
 30
0.0
  0
VERTEX
  5
36C
  8
0
 10
858.9796596056813
 20
804.1877285072549
 30
0.0
  0
VERTEX
  5
36D
  8
0
 10
858.3374954441764
 20
804.1767935376992
 30
0.0
  0
VERTEX
  5
36E
  8
0
 10
857.7043745486333
 20
804.1439886290319
 30
0.0
  0
VERTEX
  5
36F
  8
0
 10
857.0802969190518
 20
804.0893137812534
 30
0.0
  0
VERTEX
  5
370
  8
0
 10
856.4652625554319
 20
804.0127689943632
 30
0.0
  0
VERTEX
  5
371
  8
0
 10
855.8592714577737
 20
803.9143542683616
 30
0.0
  0
VERTEX
  5
372
  8
0
 10
855.2623236260774
 20
803.7940696032485
 30
0.0
  0
VERTEX
  5
373
  8
0
 10
854.6744190603426
 20
803.651914999024
 30
0.0
  0
VERTEX
  5
374
  8
0
 10
854.0955577605697
 20
803.4878904556881
 30
0.0
  0
VERTEX
  5
375
  8
0
 10
853.5257397267585
 20
803.3019959732408
 30
0.0
  0
VERTEX
  5
376
  8
0
 10
852.9649649589089
 20
803.0942315516818
 30
0.0
  0
VERTEX
  5
377
  8
0
 10
852.4132334570211
 20
802.8645971910115
 30
0.0
  0
VERTEX
  5
378
  8
0
 10
851.8705452210947
 20
802.6130928912296
 30
0.0
  0
VERTEX
  5
379
  8
0
 10
851.3369002511304
 20
802.3397186523363
 30
0.0
  0
VERTEX
  5
37A
  8
0
 10
850.8122985471275
 20
802.0444744743314
 30
0.0
  0
VERTEX
  5
37B
  8
0
 10
850.2967401090864
 20
801.7273603572153
 30
0.0
  0
VERTEX
  5
37C
  8
0
 10
849.790224937007
 20
801.3883763009876
 30
0.0
  0
VERTEX
  5
37D
  8
0
 10
849.3039186960052
 20
801.0359196240415
 30
0.0
  0
VERTEX
  5
37E
  8
0
 10
848.8489870511972
 20
800.67838764477
 30
0.0
  0
VERTEX
  5
37F
  8
0
 10
848.4254300025827
 20
800.315780363173
 30
0.0
  0
VERTEX
  5
380
  8
0
 10
848.0332475501621
 20
799.9480977792505
 30
0.0
  0
VERTEX
  5
381
  8
0
 10
847.6724396939351
 20
799.5753398930026
 30
0.0
  0
VERTEX
  5
382
  8
0
 10
847.3430064339017
 20
799.1975067044293
 30
0.0
  0
VERTEX
  5
383
  8
0
 10
847.0449477700619
 20
798.8145982135305
 30
0.0
  0
VERTEX
  5
384
  8
0
 10
846.7782637024159
 20
798.4266144203064
 30
0.0
  0
VERTEX
  5
385
  8
0
 10
846.5429542309635
 20
798.0335553247567
 30
0.0
  0
VERTEX
  5
386
  8
0
 10
846.4370649688098
 20
797.8351225386098
 30
0.0
  0
VERTEX
  5
387
  8
0
 10
846.3390193557046
 20
797.6354209268816
 30
0.0
  0
VERTEX
  5
388
  8
0
 10
846.2488173916478
 20
797.434450489572
 30
0.0
  0
VERTEX
  5
389
  8
0
 10
846.1664590766394
 20
797.232211226681
 30
0.0
  0
VERTEX
  5
38A
  8
0
 10
846.0919444106794
 20
797.0287031382086
 30
0.0
  0
VERTEX
  5
38B
  8
0
 10
846.025273393768
 20
796.823926224155
 30
0.0
  0
VERTEX
  5
38C
  8
0
 10
845.9664460259048
 20
796.6178804845199
 30
0.0
  0
VERTEX
  5
38D
  8
0
 10
845.9154623070901
 20
796.4105659193035
 30
0.0
  0
VERTEX
  5
38E
  8
0
 10
845.8723222373239
 20
796.2019825285058
 30
0.0
  0
VERTEX
  5
38F
  8
0
 10
845.8370258166061
 20
795.9921303121266
 30
0.0
  0
VERTEX
  5
390
  8
0
 10
845.8095730449365
 20
795.7810092701661
 30
0.0
  0
VERTEX
  5
391
  8
0
 10
845.7899639223156
 20
795.5686194026243
 30
0.0
  0
VERTEX
  5
392
  8
0
 10
845.778198448743
 20
795.354960709501
 30
0.0
  0
VERTEX
  5
393
  8
0
 10
845.7742766242188
 20
795.1400331907965
 30
0.0
  0
VERTEX
  5
394
  8
0
 10
845.7818434385949
 20
794.8987256347777
 30
0.0
  0
VERTEX
  5
395
  8
0
 10
845.8045438817232
 20
794.6649848931349
 30
0.0
  0
VERTEX
  5
396
  8
0
 10
845.8423779536038
 20
794.4388109658682
 30
0.0
  0
VERTEX
  5
397
  8
0
 10
845.8953456542366
 20
794.2202038529778
 30
0.0
  0
VERTEX
  5
398
  8
0
 10
845.9634469836217
 20
794.0091635544634
 30
0.0
  0
VERTEX
  5
399
  8
0
 10
846.046681941759
 20
793.8056900703251
 30
0.0
  0
VERTEX
  5
39A
  8
0
 10
846.1450505286484
 20
793.609783400563
 30
0.0
  0
VERTEX
  5
39B
  8
0
 10
846.2585527442902
 20
793.4214435451769
 30
0.0
  0
VERTEX
  5
39C
  8
0
 10
846.3871885886842
 20
793.2406705041669
 30
0.0
  0
VERTEX
  5
39D
  8
0
 10
846.5309580618305
 20
793.0674642775331
 30
0.0
  0
VERTEX
  5
39E
  8
0
 10
846.6898611637289
 20
792.9018248652753
 30
0.0
  0
VERTEX
  5
39F
  8
0
 10
846.8638978943795
 20
792.7437522673938
 30
0.0
  0
VERTEX
  5
3A0
  8
0
 10
847.0530682537825
 20
792.5932464838884
 30
0.0
  0
VERTEX
  5
3A1
  8
0
 10
847.2573722419377
 20
792.4503075147591
 30
0.0
  0
VERTEX
  5
3A2
  8
0
 10
847.4768098588452
 20
792.3149353600058
 30
0.0
  0
VERTEX
  5
3A3
  8
0
 10
847.7113811045049
 20
792.1871300196287
 30
0.0
  0
VERTEX
  5
3A4
  8
0
 10
847.9273121488965
 20
792.0656918767145
 30
0.0
  0
VERTEX
  5
3A5
  8
0
 10
848.1144523873693
 20
791.937609701665
 30
0.0
  0
VERTEX
  5
3A6
  8
0
 10
848.2728018199232
 20
791.8028834944805
 30
0.0
  0
VERTEX
  5
3A7
  8
0
 10
848.4023604465582
 20
791.6615132551608
 30
0.0
  0
VERTEX
  5
3A8
  8
0
 10
848.5031282672743
 20
791.5134989837061
 30
0.0
  0
VERTEX
  5
3A9
  8
0
 10
848.5751052820716
 20
791.3588406801161
 30
0.0
  0
VERTEX
  5
3AA
  8
0
 10
848.6182914909499
 20
791.197538344391
 30
0.0
  0
VERTEX
  5
3AB
  8
0
 10
848.6326868939093
 20
791.0295919765309
 30
0.0
  0
VERTEX
  5
3AC
  8
0
 10
848.6256737488777
 20
790.9521244073999
 30
0.0
  0
VERTEX
  5
3AD
  8
0
 10
848.6046343137831
 20
790.8732726649073
 30
0.0
  0
VERTEX
  5
3AE
  8
0
 10
848.5695685886254
 20
790.7930367490532
 30
0.0
  0
VERTEX
  5
3AF
  8
0
 10
848.5204765734048
 20
790.7114166598376
 30
0.0
  0
VERTEX
  5
3B0
  8
0
 10
848.4573582681212
 20
790.6284123972605
 30
0.0
  0
VERTEX
  5
3B1
  8
0
 10
848.3802136727743
 20
790.5440239613221
 30
0.0
  0
VERTEX
  5
3B2
  8
0
 10
848.2890427873645
 20
790.4582513520221
 30
0.0
  0
VERTEX
  5
3B3
  8
0
 10
848.1838456118917
 20
790.3710945693606
 30
0.0
  0
VERTEX
  5
3B4
  8
0
 10
847.9313723907567
 20
790.1926284839531
 30
0.0
  0
VERTEX
  5
3B5
  8
0
 10
847.6227940093697
 20
790.0086257050997
 30
0.0
  0
VERTEX
  5
3B6
  8
0
 10
847.2581104677305
 20
789.8190862328004
 30
0.0
  0
VERTEX
  5
3B7
  8
0
 10
846.8373217658392
 20
789.624010067055
 30
0.0
  0
VERTEX
  5
3B8
  8
0
 10
846.4061979028487
 20
789.4385308366161
 30
0.0
  0
VERTEX
  5
3B9
  8
0
 10
846.0105088779122
 20
789.2777821702357
 30
0.0
  0
VERTEX
  5
3BA
  8
0
 10
845.6502546910297
 20
789.1417640679138
 30
0.0
  0
VERTEX
  5
3BB
  8
0
 10
845.3254353422013
 20
789.0304765296503
 30
0.0
  0
VERTEX
  5
3BC
  8
0
 10
845.0360508314268
 20
788.9439195554455
 30
0.0
  0
VERTEX
  5
3BD
  8
0
 10
844.7821011587065
 20
788.8820931452991
 30
0.0
  0
VERTEX
  5
3BE
  8
0
 10
844.56358632404
 20
788.8449972992113
 30
0.0
  0
VERTEX
  5
3BF
  8
0
 10
844.3805063274276
 20
788.832632017182
 30
0.0
  0
VERTEX
  5
3C0
  8
0
 10
844.251362952801
 20
788.8379380150677
 30
0.0
  0
VERTEX
  5
3C1
  8
0
 10
844.1237883079841
 20
788.8538560087247
 30
0.0
  0
VERTEX
  5
3C2
  8
0
 10
843.997782392977
 20
788.8803859981533
 30
0.0
  0
VERTEX
  5
3C3
  8
0
 10
843.8733452077795
 20
788.9175279833531
 30
0.0
  0
VERTEX
  5
3C4
  8
0
 10
843.7504767523917
 20
788.9652819643243
 30
0.0
  0
VERTEX
  5
3C5
  8
0
 10
843.6291770268135
 20
789.0236479410669
 30
0.0
  0
VERTEX
  5
3C6
  8
0
 10
843.5094460310452
 20
789.092625913581
 30
0.0
  0
VERTEX
  5
3C7
  8
0
 10
843.3912837650864
 20
789.1722158818664
 30
0.0
  0
VERTEX
  5
3C8
  8
0
 10
843.2746902289373
 20
789.2624178459231
 30
0.0
  0
VERTEX
  5
3C9
  8
0
 10
843.1596654225979
 20
789.3632318057512
 30
0.0
  0
VERTEX
  5
3CA
  8
0
 10
843.0462093460682
 20
789.4746577613507
 30
0.0
  0
VERTEX
  5
3CB
  8
0
 10
842.9343219993482
 20
789.5966957127217
 30
0.0
  0
VERTEX
  5
3CC
  8
0
 10
842.8240033824378
 20
789.7293456598641
 30
0.0
  0
VERTEX
  5
3CD
  8
0
 10
842.715253495337
 20
789.8726076027776
 30
0.0
  0
VERTEX
  5
3CE
  8
0
 10
842.5024599105648
 20
790.1909674759193
 30
0.0
  0
VERTEX
  5
3CF
  8
0
 10
842.305907293234
 20
790.536641703394
 30
0.0
  0
VERTEX
  5
3D0
  8
0
 10
842.1355616915471
 20
790.89449665645
 30
0.0
  0
VERTEX
  5
3D1
  8
0
 10
841.9914231055045
 20
791.264532335087
 30
0.0
  0
VERTEX
  5
3D2
  8
0
 10
841.873491535106
 20
791.6467487393049
 30
0.0
  0
VERTEX
  5
3D3
  8
0
 10
841.7817669803517
 20
792.041145869104
 30
0.0
  0
VERTEX
  5
3D4
  8
0
 10
841.7162494412414
 20
792.4477237244841
 30
0.0
  0
VERTEX
  5
3D5
  8
0
 10
841.6769389177753
 20
792.8664823054455
 30
0.0
  0
VERTEX
  5
3D6
  8
0
 10
841.6638354099532
 20
793.2974216119878
 30
0.0
  0
VERTEX
  5
3D7
  8
0
 10
841.6690260600587
 20
793.6237174124019
 30
0.0
  0
VERTEX
  5
3D8
  8
0
 10
841.6845980103755
 20
793.9470603096447
 30
0.0
  0
VERTEX
  5
3D9
  8
0
 10
841.7105512609033
 20
794.2674503037165
 30
0.0
  0
VERTEX
  5
3DA
  8
0
 10
841.7468858116424
 20
794.584887394617
 30
0.0
  0
VERTEX
  5
3DB
  8
0
 10
841.7936016625926
 20
794.8993715823462
 30
0.0
  0
VERTEX
  5
3DC
  8
0
 10
841.8506988137538
 20
795.2109028669045
 30
0.0
  0
VERTEX
  5
3DD
  8
0
 10
841.9181772651261
 20
795.5194812482916
 30
0.0
  0
VERTEX
  5
3DE
  8
0
 10
841.9960370167096
 20
795.8251067265076
 30
0.0
  0
VERTEX
  5
3DF
  8
0
 10
842.0842780685043
 20
796.1277793015522
 30
0.0
  0
VERTEX
  5
3E0
  8
0
 10
842.1829004205101
 20
796.4274989734256
 30
0.0
  0
VERTEX
  5
3E1
  8
0
 10
842.291904072727
 20
796.724265742128
 30
0.0
  0
VERTEX
  5
3E2
  8
0
 10
842.4112890251552
 20
797.0180796076593
 30
0.0
  0
VERTEX
  5
3E3
  8
0
 10
842.5410552777944
 20
797.3089405700193
 30
0.0
  0
VERTEX
  5
3E4
  8
0
 10
842.6812028306447
 20
797.5968486292081
 30
0.0
  0
VERTEX
  5
3E5
  8
0
 10
842.8317316837062
 20
797.8818037852259
 30
0.0
  0
VERTEX
  5
3E6
  8
0
 10
842.9926418369787
 20
798.1638060380725
 30
0.0
  0
VERTEX
  5
3E7
  8
0
 10
843.1639332904624
 20
798.4428553877478
 30
0.0
  0
VERTEX
  5
3E8
  8
0
 10
843.3456060441574
 20
798.718951834252
 30
0.0
  0
VERTEX
  5
3E9
  8
0
 10
843.5376600980635
 20
798.992095377585
 30
0.0
  0
VERTEX
  5
3EA
  8
0
 10
843.7400954521806
 20
799.2622860177469
 30
0.0
  0
VERTEX
  5
3EB
  8
0
 10
843.9529121065088
 20
799.5295237547376
 30
0.0
  0
VERTEX
  5
3EC
  8
0
 10
844.1761100610482
 20
799.7938085885571
 30
0.0
  0
VERTEX
  5
3ED
  8
0
 10
844.4096893157988
 20
800.0551405192055
 30
0.0
  0
VERTEX
  5
3EE
  8
0
 10
844.6536498707605
 20
800.3135195466826
 30
0.0
  0
VERTEX
  5
3EF
  8
0
 10
844.9079917259334
 20
800.5689456709886
 30
0.0
  0
VERTEX
  5
3F0
  8
0
 10
845.1727148813173
 20
800.8214188921233
 30
0.0
  0
VERTEX
  5
3F1
  8
0
 10
845.4478193369125
 20
801.0709392100871
 30
0.0
  0
VERTEX
  5
3F2
  8
0
 10
845.7333050927189
 20
801.3175066248796
 30
0.0
  0
VERTEX
  5
3F3
  8
0
 10
846.0291721487363
 20
801.5611211365009
 30
0.0
  0
VERTEX
  5
3F4
  8
0
 10
846.3354205049648
 20
801.8017827449511
 30
0.0
  0
VERTEX
  5
3F5
  8
0
 10
846.6520501614043
 20
802.0394914502301
 30
0.0
  0
VERTEX
  5
3F6
  8
0
 10
846.9790611180551
 20
802.274247252338
 30
0.0
  0
VERTEX
  5
3F7
  8
0
 10
847.3135466108581
 20
802.5038816130083
 30
0.0
  0
VERTEX
  5
3F8
  8
0
 10
847.6525998757538
 20
802.7262259939748
 30
0.0
  0
VERTEX
  5
3F9
  8
0
 10
847.9962209127425
 20
802.9412803952374
 30
0.0
  0
VERTEX
  5
3FA
  8
0
 10
848.3444097218239
 20
803.1490448167964
 30
0.0
  0
VERTEX
  5
3FB
  8
0
 10
848.6971663029983
 20
803.3495192586514
 30
0.0
  0
VERTEX
  5
3FC
  8
0
 10
849.0544906562657
 20
803.5427037208027
 30
0.0
  0
VERTEX
  5
3FD
  8
0
 10
849.416382781626
 20
803.7285982032502
 30
0.0
  0
VERTEX
  5
3FE
  8
0
 10
849.7828426790791
 20
803.9072027059938
 30
0.0
  0
VERTEX
  5
3FF
  8
0
 10
850.1538703486252
 20
804.0785172290334
 30
0.0
  0
VERTEX
  5
400
  8
0
 10
850.5294657902641
 20
804.2425417723695
 30
0.0
  0
VERTEX
  5
401
  8
0
 10
850.909629003996
 20
804.3992763360015
 30
0.0
  0
VERTEX
  5
402
  8
0
 10
851.2943599898206
 20
804.5487209199299
 30
0.0
  0
VERTEX
  5
403
  8
0
 10
851.6836587477383
 20
804.6908755241543
 30
0.0
  0
VERTEX
  5
404
  8
0
 10
852.0775252777488
 20
804.8257401486751
 30
0.0
  0
VERTEX
  5
405
  8
0
 10
852.4759595798523
 20
804.9533147934919
 30
0.0
  0
VERTEX
  5
406
  8
0
 10
852.8789616540486
 20
805.073599458605
 30
0.0
  0
VERTEX
  5
407
  8
0
 10
853.2865315003378
 20
805.1865941440142
 30
0.0
  0
VERTEX
  5
408
  8
0
 10
853.6986691187199
 20
805.2922988497196
 30
0.0
  0
VERTEX
  5
409
  8
0
 10
854.1153745091949
 20
805.3907135757211
 30
0.0
  0
VERTEX
  5
40A
  8
0
 10
854.5366476717629
 20
805.4818383220189
 30
0.0
  0
VERTEX
  5
40B
  8
0
 10
854.9624886064239
 20
805.5656730886128
 30
0.0
  0
VERTEX
  5
40C
  8
0
 10
855.3928973131775
 20
805.642217875503
 30
0.0
  0
VERTEX
  5
40D
  8
0
 10
855.8278737920242
 20
805.7114726826892
 30
0.0
  0
VERTEX
  5
40E
  8
0
 10
856.2674180429636
 20
805.7734375101718
 30
0.0
  0
VERTEX
  5
40F
  8
0
 10
856.711530065996
 20
805.8281123579504
 30
0.0
  0
VERTEX
  5
410
  8
0
 10
857.1602098611213
 20
805.8754972260253
 30
0.0
  0
VERTEX
  5
411
  8
0
 10
857.6134574283396
 20
805.9155921143963
 30
0.0
  0
VERTEX
  5
412
  8
0
 10
858.0712727676507
 20
805.9483970230635
 30
0.0
  0
VERTEX
  5
413
  8
0
 10
859.0006067625517
 20
805.9921369012866
 30
0.0
  0
VERTEX
  5
414
  8
0
 10
859.9482118458243
 20
806.0067168606942
 30
0.0
  0
VERTEX
  5
415
  8
0
 10
860.7402819823781
 20
805.9959203084745
 30
0.0
  0
VERTEX
  5
416
  8
0
 10
861.5101130669241
 20
805.9635306518159
 30
0.0
  0
VERTEX
  5
417
  8
0
 10
862.257705099462
 20
805.9095478907179
 30
0.0
  0
VERTEX
  5
418
  8
0
 10
862.9830580799921
 20
805.8339720251809
 30
0.0
  0
VERTEX
  5
419
  8
0
 10
863.6861720085144
 20
805.7368030552046
 30
0.0
  0
VERTEX
  5
41A
  8
0
 10
864.3670468850288
 20
805.6180409807891
 30
0.0
  0
VERTEX
  5
41B
  8
0
 10
865.0256827095353
 20
805.4776858019346
 30
0.0
  0
VERTEX
  5
41C
  8
0
 10
865.6620794820341
 20
805.3157375186408
 30
0.0
  0
VERTEX
  5
41D
  8
0
 10
866.2762372025251
 20
805.132196130908
 30
0.0
  0
VERTEX
  5
41E
  8
0
 10
866.8681558710081
 20
804.927061638736
 30
0.0
  0
VERTEX
  5
41F
  8
0
 10
867.4378354874832
 20
804.7003340421247
 30
0.0
  0
VERTEX
  5
420
  8
0
 10
867.9852760519504
 20
804.4520133410742
 30
0.0
  0
VERTEX
  5
421
  8
0
 10
868.5104775644098
 20
804.1820995355847
 30
0.0
  0
VERTEX
  5
422
  8
0
 10
869.0134400248614
 20
803.8905926256559
 30
0.0
  0
VERTEX
  5
423
  8
0
 10
869.2565816105841
 20
803.736741756527
 30
0.0
  0
VERTEX
  5
424
  8
0
 10
869.4941634333051
 20
803.5774926112881
 30
0.0
  0
VERTEX
  5
425
  8
0
 10
869.7261854930239
 20
803.4128451899395
 30
0.0
  0
VERTEX
  5
426
  8
0
 10
869.9526477897409
 20
803.242799492481
 30
0.0
  0
VERTEX
  5
427
  8
0
 10
870.386032469222
 20
802.8926959102494
 30
0.0
  0
VERTEX
  5
428
  8
0
 10
870.7914568468009
 20
802.533364505608
 30
0.0
  0
VERTEX
  5
429
  8
0
 10
871.1689209224778
 20
802.1648052785566
 30
0.0
  0
VERTEX
  5
42A
  8
0
 10
871.5184246962526
 20
801.7870182290953
 30
0.0
  0
VERTEX
  5
42B
  8
0
 10
871.8399681681257
 20
801.4000033572243
 30
0.0
  0
VERTEX
  5
42C
  8
0
 10
872.1335513380966
 20
801.003760662943
 30
0.0
  0
VERTEX
  5
42D
  8
0
 10
872.3991742061656
 20
800.5982901462521
 30
0.0
  0
VERTEX
  5
42E
  8
0
 10
872.6368367723325
 20
800.1835918071513
 30
0.0
  0
VERTEX
  5
42F
  8
0
 10
872.8465390365974
 20
799.7596656456406
 30
0.0
  0
VERTEX
  5
430
  8
0
 10
873.0282809989603
 20
799.3265116617198
 30
0.0
  0
VERTEX
  5
431
  8
0
 10
873.1820626594214
 20
798.8841298553893
 30
0.0
  0
VERTEX
  5
432
  8
0
 10
873.3078840179803
 20
798.4325202266488
 30
0.0
  0
VERTEX
  5
433
  8
0
 10
873.4057450746374
 20
797.9716827754985
 30
0.0
  0
VERTEX
  5
434
  8
0
 10
873.4756458293923
 20
797.5016175019381
 30
0.0
  0
VERTEX
  5
435
  8
0
 10
873.5175862822454
 20
797.0223244059679
 30
0.0
  0
VERTEX
  5
436
  8
0
 10
873.5315664331963
 20
796.5338034875878
 30
0.0
  0
VERTEX
  5
437
  8
0
 10
873.523861201484
 20
796.2243023239598
 30
0.0
  0
VERTEX
  5
438
  8
0
 10
873.5007455063472
 20
795.9159084990209
 30
0.0
  0
VERTEX
  5
439
  8
0
 10
873.4622193477858
 20
795.6086220127713
 30
0.0
  0
VERTEX
  5
43A
  8
0
 10
873.4082827258
 20
795.3024428652109
 30
0.0
  0
VERTEX
  5
43B
  8
0
 10
873.3389356403895
 20
794.9973710563396
 30
0.0
  0
VERTEX
  5
43C
  8
0
 10
873.2541780915546
 20
794.6934065861575
 30
0.0
  0
VERTEX
  5
43D
  8
0
 10
873.1540100792952
 20
794.3905494546646
 30
0.0
  0
VERTEX
  5
43E
  8
0
 10
873.0384316036112
 20
794.0887996618609
 30
0.0
  0
VERTEX
  5
43F
  8
0
 10
872.9074426645027
 20
793.7881572077463
 30
0.0
  0
VERTEX
  5
440
  8
0
 10
872.7610432619697
 20
793.4886220923211
 30
0.0
  0
VERTEX
  5
441
  8
0
 10
872.599233396012
 20
793.1901943155849
 30
0.0
  0
VERTEX
  5
442
  8
0
 10
872.4220130666299
 20
792.8928738775379
 30
0.0
  0
VERTEX
  5
443
  8
0
 10
872.2293822738233
 20
792.5966607781802
 30
0.0
  0
VERTEX
  5
444
  8
0
 10
872.0213410175922
 20
792.3015550175115
 30
0.0
  0
VERTEX
  5
445
  8
0
 10
871.7978892979365
 20
792.0075565955322
 30
0.0
  0
VERTEX
  5
446
  8
0
 10
871.5590271148562
 20
791.7146655122419
 30
0.0
  0
VERTEX
  5
447
  8
0
 10
871.2976490450958
 20
791.4263883401566
 30
0.0
  0
VERTEX
  5
448
  8
0
 10
871.0066496653997
 20
791.146231651792
 30
0.0
  0
VERTEX
  5
449
  8
0
 10
870.6860289757678
 20
790.8741954471482
 30
0.0
  0
VERTEX
  5
44A
  8
0
 10
870.3357869762001
 20
790.6102797262251
 30
0.0
  0
VERTEX
  5
44B
  8
0
 10
869.9559236666965
 20
790.3544844890228
 30
0.0
  0
VERTEX
  5
44C
  8
0
 10
869.5464390472572
 20
790.106809735541
 30
0.0
  0
VERTEX
  5
44D
  8
0
 10
869.107333117882
 20
789.8672554657801
 30
0.0
  0
VERTEX
  5
44E
  8
0
 10
868.6386058785713
 20
789.6358216797398
 30
0.0
  0
VERTEX
  5
44F
  8
0
 10
868.1402573293246
 20
789.4125083774202
 30
0.0
  0
VERTEX
  5
450
  8
0
 10
867.6122874701423
 20
789.1973155588214
 30
0.0
  0
VERTEX
  5
451
  8
0
 10
867.054696301024
 20
788.9902432239433
 30
0.0
  0
VERTEX
  5
452
  8
0
 10
866.4674838219702
 20
788.7912913727857
 30
0.0
  0
VERTEX
  5
453
  8
0
 10
865.8506500329804
 20
788.6004600053491
 30
0.0
  0
VERTEX
  5
454
  8
0
 10
865.204194934055
 20
788.417749121633
 30
0.0
  0
VERTEX
  5
455
  8
0
 10
864.5281185251936
 20
788.2431587216378
 30
0.0
  0
VERTEX
  5
456
  8
0
 10
863.8224208063966
 20
788.0766888053631
 30
0.0
  0
VERTEX
  5
457
  8
0
 10
864.3301355953893
 20
787.7723552222847
 30
0.0
  0
VERTEX
  5
458
  8
0
 10
864.8020464334315
 20
787.4617467199674
 30
0.0
  0
VERTEX
  5
459
  8
0
 10
865.2381533205233
 20
787.1448632984116
 30
0.0
  0
VERTEX
  5
45A
  8
0
 10
865.6384562566648
 20
786.8217049576168
 30
0.0
  0
VERTEX
  5
45B
  8
0
 10
866.0029552418558
 20
786.4922716975834
 30
0.0
  0
VERTEX
  5
45C
  8
0
 10
866.3316502760964
 20
786.1565635183113
 30
0.0
  0
VERTEX
  5
45D
  8
0
 10
866.4825713116103
 20
785.9863563339607
 30
0.0
  0
VERTEX
  5
45E
  8
0
 10
866.6245413593865
 20
785.8145804198004
 30
0.0
  0
VERTEX
  5
45F
  8
0
 10
866.7575604194253
 20
785.6412357758304
 30
0.0
  0
VERTEX
  5
460
  8
0
 10
866.8816284917264
 20
785.4663224020508
 30
0.0
  0
VERTEX
  5
461
  8
0
 10
866.9974838020827
 20
785.2878101775314
 30
0.0
  0
VERTEX
  5
462
  8
0
 10
867.1058645762869
 20
785.1036689813418
 30
0.0
  0
VERTEX
  5
463
  8
0
 10
867.206770814339
 20
784.9138988134821
 30
0.0
  0
VERTEX
  5
464
  8
0
 10
867.3002025162393
 20
784.7184996739525
 30
0.0
  0
VERTEX
  5
465
  8
0
 10
867.3861596819875
 20
784.5174715627528
 30
0.0
  0
VERTEX
  5
466
  8
0
 10
867.4646423115837
 20
784.3108144798831
 30
0.0
  0
VERTEX
  5
467
  8
0
 10
867.5356504050279
 20
784.0985284253434
 30
0.0
  0
VERTEX
  5
468
  8
0
 10
867.5991839623201
 20
783.8806133991336
 30
0.0
  0
VERTEX
  5
469
  8
0
 10
867.6552429834603
 20
783.6570694012539
 30
0.0
  0
VERTEX
  5
46A
  8
0
 10
867.7038274684484
 20
783.4278964317041
 30
0.0
  0
VERTEX
  5
46B
  8
0
 10
867.7449374172845
 20
783.1930944904841
 30
0.0
  0
VERTEX
  5
46C
  8
0
 10
867.7785728299685
 20
782.9526635775942
 30
0.0
  0
VERTEX
  5
46D
  8
0
 10
867.8047337065005
 20
782.7066036930341
 30
0.0
  0
VERTEX
  5
46E
  8
0
 10
867.8234200468806
 20
782.4549148368042
 30
0.0
  0
VERTEX
  5
46F
  8
0
 10
867.8346318511087
 20
782.197597008904
 30
0.0
  0
VERTEX
  5
470
  8
0
 10
867.8383691191848
 20
781.934650209334
 30
0.0
  0
VERTEX
  5
471
  8
0
 10
867.8344934337725
 20
781.6349305374605
 30
0.0
  0
VERTEX
  5
472
  8
0
 10
867.8228663775361
 20
781.3263521560735
 30
0.0
  0
VERTEX
  5
473
  8
0
 10
867.7763581525903
 20
780.6826192647588
 30
0.0
  0
VERTEX
  5
474
  8
0
 10
867.6988444443471
 20
780.0034515353902
 30
0.0
  0
VERTEX
  5
475
  8
0
 10
867.5903252528067
 20
779.2888489679676
 30
0.0
  0
VERTEX
  5
476
  8
0
 10
867.4818060612663
 20
778.6229693028693
 30
0.0
  0
VERTEX
  5
477
  8
0
 10
867.404292353023
 20
778.0899702804735
 30
0.0
  0
VERTEX
  5
478
  8
0
 10
867.3577841280772
 20
777.6898519007802
 30
0.0
  0
VERTEX
  5
479
  8
0
 10
867.3422813864286
 20
777.4226141637896
 30
0.0
  0
VERTEX
  5
47A
  8
0
 10
867.3485563056673
 20
777.1766004183418
 30
0.0
  0
VERTEX
  5
47B
  8
0
 10
867.3673810633835
 20
776.9464585274388
 30
0.0
  0
VERTEX
  5
47C
  8
0
 10
867.3987556595771
 20
776.7321884910809
 30
0.0
  0
VERTEX
  5
47D
  8
0
 10
867.4426800942482
 20
776.5337903092679
 30
0.0
  0
VERTEX
  5
47E
  8
0
 10
867.4991543673968
 20
776.3512639820002
 30
0.0
  0
VERTEX
  5
47F
  8
0
 10
867.5681784790229
 20
776.1846095092774
 30
0.0
  0
VERTEX
  5
480
  8
0
 10
867.6497524291264
 20
776.0338268910997
 30
0.0
  0
VERTEX
  5
481
  8
0
 10
867.7438762177073
 20
775.8989161274669
 30
0.0
  0
VERTEX
  5
482
  8
0
 10
867.8505498447657
 20
775.7798772183793
 30
0.0
  0
VERTEX
  5
483
  8
0
 10
867.9697733103017
 20
775.6767101638366
 30
0.0
  0
VERTEX
  5
484
  8
0
 10
868.101546614315
 20
775.589414963839
 30
0.0
  0
VERTEX
  5
485
  8
0
 10
868.2458697568059
 20
775.5179916183863
 30
0.0
  0
VERTEX
  5
486
  8
0
 10
868.4027427377742
 20
775.4624401274788
 30
0.0
  0
VERTEX
  5
487
  8
0
 10
868.57216555722
 20
775.4227604911162
 30
0.0
  0
VERTEX
  5
488
  8
0
 10
868.7541382151433
 20
775.3989527092987
 30
0.0
  0
VERTEX
  5
489
  8
0
 10
868.9486607115439
 20
775.3910167820261
 30
0.0
  0
VERTEX
  5
48A
  8
0
 10
869.0824736636278
 20
775.3956090260224
 30
0.0
  0
VERTEX
  5
48B
  8
0
 10
869.2197639252951
 20
775.4093859147438
 30
0.0
  0
VERTEX
  5
48C
  8
0
 10
869.3605312141347
 20
775.4323476832883
 30
0.0
  0
VERTEX
  5
48D
  8
0
 10
869.5047752477353
 20
775.4644945667544
 30
0.0
  0
VERTEX
  5
48E
  8
0
 10
869.6524957436861
 20
775.5058268002404
 30
0.0
  0
VERTEX
  5
48F
  8
0
 10
869.8036924195758
 20
775.5563446188442
 30
0.0
  0
VERTEX
  5
490
  8
0
 10
870.1165131815269
 20
775.6849379517989
 30
0.0
  0
VERTEX
  5
491
  8
0
 10
870.4432352742997
 20
775.8502764464049
 30
0.0
  0
VERTEX
  5
492
  8
0
 10
870.7838564386049
 20
776.0523619834482
 30
0.0
  0
VERTEX
  5
493
  8
0
 10
871.1383744151535
 20
776.2911964437151
 30
0.0
  0
VERTEX
  5
494
  8
0
 10
871.5067869446561
 20
776.5667817079915
 30
0.0
  0
VERTEX
  5
495
  8
0
 10
871.8890917678239
 20
776.8791196570635
 30
0.0
  0
VERTEX
  5
496
  8
0
 10
872.2852866253675
 20
777.2282121717175
 30
0.0
  0
VERTEX
  5
497
  8
0
 10
872.6953692579976
 20
777.6140611327394
 30
0.0
  0
VERTEX
  5
498
  8
0
 10
873.1193374064253
 20
778.0366684209152
 30
0.0
  0
VERTEX
  5
499
  8
0
 10
873.5571888113614
 20
778.4960359170312
 30
0.0
  0
VERTEX
  5
49A
  8
0
 10
874.0089212135167
 20
778.9921655018736
 30
0.0
  0
VERTEX
  5
49B
  8
0
 10
874.4745323536022
 20
779.5250590562284
 30
0.0
  0
VERTEX
  5
49C
  8
0
 10
874.9540199723283
 20
780.0947184608817
 30
0.0
  0
VERTEX
  5
49D
  8
0
 10
875.0000035162586
 20
780.6528724121505
 30
0.0
  0
VERTEX
  5
49E
  8
0
 10
875.0685658884056
 20
781.2047867909158
 30
0.0
  0
VERTEX
  5
49F
  8
0
 10
875.15970482948
 20
781.7504634779639
 30
0.0
  0
VERTEX
  5
4A0
  8
0
 10
875.2734180801929
 20
782.2899043540809
 30
0.0
  0
VERTEX
  5
4A1
  8
0
 10
875.4097033812548
 20
782.8231113000529
 30
0.0
  0
VERTEX
  5
4A2
  8
0
 10
875.5685584733767
 20
783.3500861966661
 30
0.0
  0
VERTEX
  5
4A3
  8
0
 10
875.7499810972695
 20
783.8708309247063
 30
0.0
  0
VERTEX
  5
4A4
  8
0
 10
875.9539689936439
 20
784.3853473649599
 30
0.0
  0
VERTEX
  5
4A5
  8
0
 10
876.1805199032108
 20
784.893637398213
 30
0.0
  0
VERTEX
  5
4A6
  8
0
 10
876.4296315666811
 20
785.3957029052516
 30
0.0
  0
VERTEX
  5
4A7
  8
0
 10
876.7013017247657
 20
785.8915457668619
 30
0.0
  0
VERTEX
  5
4A8
  8
0
 10
876.9955281181753
 20
786.3811678638299
 30
0.0
  0
VERTEX
  5
4A9
  8
0
 10
877.3123084876208
 20
786.8645710769418
 30
0.0
  0
VERTEX
  5
4AA
  8
0
 10
877.651640573813
 20
787.3417572869839
 30
0.0
  0
VERTEX
  5
4AB
  8
0
 10
878.0135221174628
 20
787.8127283747422
 30
0.0
  0
VERTEX
  5
4AC
  8
0
 10
878.3979508592809
 20
788.2774862210025
 30
0.0
  0
VERTEX
  5
4AD
  8
0
 10
878.8349805286136
 20
788.7680833994248
 30
0.0
  0
VERTEX
  5
4AE
  8
0
 10
879.2779160042888
 20
789.2270291469812
 30
0.0
  0
VERTEX
  5
4AF
  8
0
 10
879.7267572863063
 20
789.6543234636715
 30
0.0
  0
VERTEX
  5
4B0
  8
0
 10
880.1815043746662
 20
790.049966349496
 30
0.0
  0
VERTEX
  5
4B1
  8
0
 10
880.6421572693685
 20
790.4139578044544
 30
0.0
  0
VERTEX
  5
4B2
  8
0
 10
881.108715970413
 20
790.746297828547
 30
0.0
  0
VERTEX
  5
4B3
  8
0
 10
881.5811804777998
 20
791.0469864217736
 30
0.0
  0
VERTEX
  5
4B4
  8
0
 10
881.8196274088716
 20
791.1854614318122
 30
0.0
  0
VERTEX
  5
4B5
  8
0
 10
882.059550791529
 20
791.3160235841343
 30
0.0
  0
VERTEX
  5
4B6
  8
0
 10
882.300950625772
 20
791.4386728787399
 30
0.0
  0
VERTEX
  5
4B7
  8
0
 10
882.5438269116005
 20
791.5534093156291
 30
0.0
  0
VERTEX
  5
4B8
  8
0
 10
882.7881796490146
 20
791.6602328948017
 30
0.0
  0
VERTEX
  5
4B9
  8
0
 10
883.0340088380144
 20
791.7591436162577
 30
0.0
  0
VERTEX
  5
4BA
  8
0
 10
883.2813144785997
 20
791.8501414799973
 30
0.0
  0
VERTEX
  5
4BB
  8
0
 10
883.5300965707706
 20
791.9332264860204
 30
0.0
  0
VERTEX
  5
4BC
  8
0
 10
883.7803551145271
 20
792.008398634327
 30
0.0
  0
VERTEX
  5
4BD
  8
0
 10
884.0320901098692
 20
792.0756579249172
 30
0.0
  0
VERTEX
  5
4BE
  8
0
 10
884.2853015567968
 20
792.1350043577909
 30
0.0
  0
VERTEX
  5
4BF
  8
0
 10
884.53998945531
 20
792.186437932948
 30
0.0
  0
VERTEX
  5
4C0
  8
0
 10
884.7961538054088
 20
792.2299586503887
 30
0.0
  0
VERTEX
  5
4C1
  8
0
 10
885.0537946070932
 20
792.2655665101129
 30
0.0
  0
VERTEX
  5
4C2
  8
0
 10
885.3129118603632
 20
792.2932615121206
 30
0.0
  0
VERTEX
  5
4C3
  8
0
 10
885.5735055652189
 20
792.3130436564118
 30
0.0
  0
VERTEX
  5
4C4
  8
0
 10
885.83557572166
 20
792.3249129429865
 30
0.0
  0
VERTEX
  5
4C5
  8
0
 10
886.0991223296867
 20
792.3288693718448
 30
0.0
  0
VERTEX
  5
4C6
  8
0
 10
886.3703280303135
 20
792.324440017088
 30
0.0
  0
VERTEX
  5
4C7
  8
0
 10
886.6347051423572
 20
792.3111519528179
 30
0.0
  0
VERTEX
  5
4C8
  8
0
 10
886.8922536658174
 20
792.2890051790341
 30
0.0
  0
VERTEX
  5
4C9
  8
0
 10
887.1429736006944
 20
792.2579996957368
 30
0.0
  0
VERTEX
  5
4CA
  8
0
 10
887.386864946988
 20
792.2181355029261
 30
0.0
  0
VERTEX
  5
4CB
  8
0
 10
887.6239277046984
 20
792.1694126006018
 30
0.0
  0
VERTEX
  5
4CC
  8
0
 10
887.8541618738254
 20
792.111830988764
 30
0.0
  0
VERTEX
  5
4CD
  8
0
 10
888.077567454369
 20
792.0453906674127
 30
0.0
  0
VERTEX
  5
4CE
  8
0
 10
888.2941444463293
 20
791.970091636548
 30
0.0
  0
VERTEX
  5
4CF
  8
0
 10
888.5038928497065
 20
791.8859338961697
 30
0.0
  0
VERTEX
  5
4D0
  8
0
 10
888.7068126645001
 20
791.7929174462778
 30
0.0
  0
VERTEX
  5
4D1
  8
0
 10
888.9029038907105
 20
791.6910422868725
 30
0.0
  0
VERTEX
  5
4D2
  8
0
 10
889.0921665283374
 20
791.5803084179537
 30
0.0
  0
VERTEX
  5
4D3
  8
0
 10
889.2746005773812
 20
791.4607158395215
 30
0.0
  0
VERTEX
  5
4D4
  8
0
 10
889.4502060378416
 20
791.3322645515757
 30
0.0
  0
VERTEX
  5
4D5
  8
0
 10
889.6189829097186
 20
791.1949545541163
 30
0.0
  0
VERTEX
  5
4D6
  8
0
 10
889.7791779067545
 20
791.0504468551773
 30
0.0
  0
VERTEX
  5
4D7
  8
0
 10
889.9290377426912
 20
790.9004024627923
 30
0.0
  0
VERTEX
  5
4D8
  8
0
 10
890.0685624175289
 20
790.7448213769613
 30
0.0
  0
VERTEX
  5
4D9
  8
0
 10
890.1977519312675
 20
790.5837035976845
 30
0.0
  0
VERTEX
  5
4DA
  8
0
 10
890.316606283907
 20
790.4170491249617
 30
0.0
  0
VERTEX
  5
4DB
  8
0
 10
890.4251254754474
 20
790.244857958793
 30
0.0
  0
VERTEX
  5
4DC
  8
0
 10
890.5233095058888
 20
790.0671300991783
 30
0.0
  0
VERTEX
  5
4DD
  8
0
 10
890.6111583752311
 20
789.8838655461177
 30
0.0
  0
VERTEX
  5
4DE
  8
0
 10
890.6886720834742
 20
789.6950642996112
 30
0.0
  0
VERTEX
  5
4DF
  8
0
 10
890.7558506306182
 20
789.5007263596588
 30
0.0
  0
VERTEX
  5
4E0
  8
0
 10
890.8126940166633
 20
789.3008517262604
 30
0.0
  0
VERTEX
  5
4E1
  8
0
 10
890.8592022416092
 20
789.095440399416
 30
0.0
  0
VERTEX
  5
4E2
  8
0
 10
890.895375305456
 20
788.8844923791257
 30
0.0
  0
VERTEX
  5
4E3
  8
0
 10
890.9212132082037
 20
788.6680076653895
 30
0.0
  0
VERTEX
  5
4E4
  8
0
 10
890.9367159498523
 20
788.4459862582073
 30
0.0
  0
VERTEX
  5
4E5
  8
0
 10
890.9418835304018
 20
788.2184281575792
 30
0.0
  0
VERTEX
  5
4E6
  8
0
 10
890.931732925751
 20
787.9146021047333
 30
0.0
  0
VERTEX
  5
4E7
  8
0
 10
890.9012811117982
 20
787.6143749026271
 30
0.0
  0
VERTEX
  5
4E8
  8
0
 10
890.8505280885438
 20
787.3177465512608
 30
0.0
  0
VERTEX
  5
4E9
  8
0
 10
890.7794738559876
 20
787.0247170506345
 30
0.0
  0
VERTEX
  5
4EA
  8
0
 10
890.6881184141296
 20
786.735286400748
 30
0.0
  0
VERTEX
  5
4EB
  8
0
 10
890.5764617629698
 20
786.4494546016014
 30
0.0
  0
VERTEX
  5
4EC
  8
0
 10
890.4445039025081
 20
786.1672216531946
 30
0.0
  0
VERTEX
  5
4ED
  8
0
 10
890.2922448327449
 20
785.8885875555278
 30
0.0
  0
VERTEX
  5
4EE
  8
0
 10
890.1196845536798
 20
785.6135523086008
 30
0.0
  0
VERTEX
  5
4EF
  8
0
 10
889.9268230653129
 20
785.3421159124135
 30
0.0
  0
VERTEX
  5
4F0
  8
0
 10
889.7136603676443
 20
785.0742783669662
 30
0.0
  0
VERTEX
  5
4F1
  8
0
 10
889.4801964606738
 20
784.8100396722587
 30
0.0
  0
VERTEX
  5
4F2
  8
0
 10
889.2264313444016
 20
784.5493998282909
 30
0.0
  0
VERTEX
  5
4F3
  8
0
 10
888.9523650188275
 20
784.2923588350632
 30
0.0
  0
VERTEX
  5
4F4
  8
0
 10
888.6579974839517
 20
784.0389166925754
 30
0.0
  0
VERTEX
  5
4F5
  8
0
 10
888.3433287397742
 20
783.7890734008274
 30
0.0
  0
VERTEX
  5
4F6
  8
0
 10
888.0083587862948
 20
783.5428289598192
 30
0.0
  0
VERTEX
  5
4F7
  8
0
 10
887.6530876235137
 20
783.300183369551
 30
0.0
  0
VERTEX
  5
4F8
  8
0
 10
887.2775152514308
 20
783.0611366300225
 30
0.0
  0
VERTEX
  5
4F9
  8
0
 10
886.8816416700462
 20
782.825688741234
 30
0.0
  0
VERTEX
  5
4FA
  8
0
 10
886.4654668793598
 20
782.5938397031853
 30
0.0
  0
VERTEX
  5
4FB
  8
0
 10
886.0289908793715
 20
782.3655895158763
 30
0.0
  0
VERTEX
  5
4FC
  8
0
 10
885.5722136700815
 20
782.1409381793073
 30
0.0
  0
VERTEX
  5
4FD
  8
0
 10
885.0951352514896
 20
781.9198856934782
 30
0.0
  0
VERTEX
  5
4FE
  8
0
 10
884.5977556235962
 20
781.7024320583889
 30
0.0
  0
VERTEX
  5
4FF
  8
0
 10
884.0800747864007
 20
781.4885772740395
 30
0.0
  0
VERTEX
  5
500
  8
0
 10
883.5420927399036
 20
781.27832134043
 30
0.0
  0
VERTEX
  5
501
  8
0
 10
882.9838094841047
 20
781.0716642575602
 30
0.0
  0
VERTEX
  5
502
  8
0
 10
882.405225019004
 20
780.8686060254303
 30
0.0
  0
VERTEX
  5
503
  8
0
 10
881.8063393446014
 20
780.6691466440403
 30
0.0
  0
VERTEX
  5
504
  8
0
 10
881.1871524608971
 20
780.4732861133903
 30
0.0
  0
VERTEX
  5
505
  8
0
 10
880.5476643678911
 20
780.2810244334801
 30
0.0
  0
VERTEX
  5
506
  8
0
 10
880.6096984040418
 20
779.997614937716
 30
0.0
  0
VERTEX
  5
507
  8
0
 10
880.6776843856466
 20
779.7232025688016
 30
0.0
  0
VERTEX
  5
508
  8
0
 10
880.7516223127059
 20
779.4577873267368
 30
0.0
  0
VERTEX
  5
509
  8
0
 10
880.8315121852196
 20
779.2013692115218
 30
0.0
  0
VERTEX
  5
50A
  8
0
 10
880.9173540031877
 20
778.9539482231563
 30
0.0
  0
VERTEX
  5
50B
  8
0
 10
881.0091477666102
 20
778.7155243616406
 30
0.0
  0
VERTEX
  5
50C
  8
0
 10
881.1068934754871
 20
778.4860976269745
 30
0.0
  0
VERTEX
  5
50D
  8
0
 10
881.2105911298183
 20
778.265668019158
 30
0.0
  0
VERTEX
  5
50E
  8
0
 10
881.3202407296039
 20
778.0542355381913
 30
0.0
  0
VERTEX
  5
50F
  8
0
 10
881.4358422748439
 20
777.8518001840741
 30
0.0
  0
VERTEX
  5
510
  8
0
 10
881.5573957655383
 20
777.6583619568065
 30
0.0
  0
VERTEX
  5
511
  8
0
 10
881.6849012016871
 20
777.4739208563886
 30
0.0
  0
VERTEX
  5
512
  8
0
 10
881.8183585832903
 20
777.2984768828203
 30
0.0
  0
VERTEX
  5
513
  8
0
 10
881.9577679103479
 20
777.1320300361019
 30
0.0
  0
VERTEX
  5
514
  8
0
 10
882.1031291828599
 20
776.974580316233
 30
0.0
  0
VERTEX
  5
515
  8
0
 10
882.2544424008261
 20
776.8261277232137
 30
0.0
  0
VERTEX
  5
516
  8
0
 10
882.4117075642469
 20
776.6866722570442
 30
0.0
  0
VERTEX
  5
517
  8
0
 10
882.5749246731219
 20
776.5562139177243
 30
0.0
  0
VERTEX
  5
518
  8
0
 10
882.7440937274514
 20
776.4347527052539
 30
0.0
  0
VERTEX
  5
519
  8
0
 10
882.9192147272353
 20
776.3222886196334
 30
0.0
  0
VERTEX
  5
51A
  8
0
 10
883.1002876724735
 20
776.2188216608622
 30
0.0
  0
VERTEX
  5
51B
  8
0
 10
883.2873125631662
 20
776.1243518289409
 30
0.0
  0
VERTEX
  5
51C
  8
0
 10
883.4802893993133
 20
776.038879123869
 30
0.0
  0
VERTEX
  5
51D
  8
0
 10
883.6792181809146
 20
775.9624035456471
 30
0.0
  0
VERTEX
  5
51E
  8
0
 10
883.8840989079705
 20
775.8949250942748
 30
0.0
  0
VERTEX
  5
51F
  8
0
 10
884.0949315804806
 20
775.8364437697521
 30
0.0
  0
VERTEX
  5
520
  8
0
 10
884.3117161984452
 20
775.786959572079
 30
0.0
  0
VERTEX
  5
521
  8
0
 10
884.5344527618641
 20
775.7464725012555
 30
0.0
  0
VERTEX
  5
522
  8
0
 10
884.7631412707375
 20
775.7149825572817
 30
0.0
  0
VERTEX
  5
523
  8
0
 10
884.9977817250651
 20
775.6924897401576
 30
0.0
  0
VERTEX
  5
524
  8
0
 10
885.2383741248473
 20
775.678994049883
 30
0.0
  0
VERTEX
  5
525
  8
0
 10
885.4849184700837
 20
775.6744954864582
 30
0.0
  0
VERTEX
  5
526
  8
0
 10
885.8724870112994
 20
775.6875989942803
 30
0.0
  0
VERTEX
  5
527
  8
0
 10
886.2556261977585
 20
775.7269095177464
 30
0.0
  0
VERTEX
  5
528
  8
0
 10
886.6343360294608
 20
775.7924270568567
 30
0.0
  0
VERTEX
  5
529
  8
0
 10
887.0086165064063
 20
775.8841516116111
 30
0.0
  0
VERTEX
  5
52A
  8
0
 10
887.3784676285951
 20
776.0020831820095
 30
0.0
  0
VERTEX
  5
52B
  8
0
 10
887.743889396027
 20
776.1462217680523
 30
0.0
  0
VERTEX
  5
52C
  8
0
 10
888.1048818087024
 20
776.316567369739
 30
0.0
  0
VERTEX
  5
52D
  8
0
 10
888.4614448666209
 20
776.5131199870699
 30
0.0
  0
VERTEX
  5
52E
  8
0
 10
888.8383091338412
 20
776.7547043777611
 30
0.0
  0
VERTEX
  5
52F
  8
0
 10
889.2602051744218
 20
777.0601452995287
 30
0.0
  0
VERTEX
  5
530
  8
0
 10
889.7271329883628
 20
777.4294427523728
 30
0.0
  0
VERTEX
  5
531
  8
0
 10
890.2390925756639
 20
777.8625967362935
 30
0.0
  0
VERTEX
  5
532
  8
0
 10
890.7960839363254
 20
778.3596072512908
 30
0.0
  0
VERTEX
  5
533
  8
0
 10
891.3981070703474
 20
778.9204742973644
 30
0.0
  0
VERTEX
  5
534
  8
0
 10
892.0451619777295
 20
779.5451978745145
 30
0.0
  0
VERTEX
  5
535
  8
0
 10
892.7372486584718
 20
780.2337779827413
 30
0.0
  0
VERTEX
  5
536
  8
0
 10
892.7343885159246
 20
780.2294308962448
 30
0.0
  0
VERTEX
  5
537
  8
0
 10
892.8567113974664
 20
781.1050472162174
 30
0.0
  0
VERTEX
  5
538
  8
0
 10
893.0064142569236
 20
781.9685163082902
 30
0.0
  0
VERTEX
  5
539
  8
0
 10
893.1832289559323
 20
782.8198713856032
 30
0.0
  0
VERTEX
  5
53A
  8
0
 10
893.3868873561288
 20
783.659145661296
 30
0.0
  0
VERTEX
  5
53B
  8
0
 10
893.6251497307524
 20
784.5228698388626
 30
0.0
  0
VERTEX
  5
53C
  8
0
 10
893.8970013789481
 20
785.4131701449697
 30
0.0
  0
VERTEX
  5
53D
  8
0
 10
894.2024423007157
 20
786.3300465796174
 30
0.0
  0
VERTEX
  5
53E
  8
0
 10
894.5414724960553
 20
787.2734991428055
 30
0.0
  0
VERTEX
  5
53F
  8
0
 10
894.9140919649669
 20
788.243527834534
 30
0.0
  0
VERTEX
  5
540
  8
0
 10
895.3203007074508
 20
789.2401326548032
 30
0.0
  0
VERTEX
  5
541
  8
0
 10
895.7600987235066
 20
790.2633136036129
 30
0.0
  0
VERTEX
  5
542
  8
0
 10
896.2334860131346
 20
791.313070680963
 30
0.0
  0
VERTEX
  5
543
  8
0
 10
901.9975530032542
 20
792.4233622733223
 30
0.0
  0
VERTEX
  5
544
  8
0
 10
901.5623688984033
 20
791.2333422953416
 30
0.0
  0
VERTEX
  5
545
  8
0
 10
901.1663107605704
 20
790.1082861871266
 30
0.0
  0
VERTEX
  5
546
  8
0
 10
900.8093785897555
 20
789.0481939486774
 30
0.0
  0
VERTEX
  5
547
  8
0
 10
900.4915723859585
 20
788.0530655799938
 30
0.0
  0
VERTEX
  5
548
  8
0
 10
900.2128921491797
 20
787.122901081076
 30
0.0
  0
VERTEX
  5
549
  8
0
 10
899.9733378794185
 20
786.2577004519237
 30
0.0
  0
VERTEX
  5
54A
  8
0
 10
899.7729095766756
 20
785.4574636925372
 30
0.0
  0
VERTEX
  5
54B
  8
0
 10
899.6116072409507
 20
784.7221908029164
 30
0.0
  0
VERTEX
  5
54C
  8
0
 10
900.5545782271568
 20
785.7614281627193
 30
0.0
  0
VERTEX
  5
54D
  8
0
 10
901.4476786006263
 20
786.717615120833
 30
0.0
  0
VERTEX
  5
54E
  8
0
 10
902.2909083613595
 20
787.5907516772578
 30
0.0
  0
VERTEX
  5
54F
  8
0
 10
903.084267509356
 20
788.3808378319934
 30
0.0
  0
VERTEX
  5
550
  8
0
 10
903.8277560446161
 20
789.0878735850399
 30
0.0
  0
VERTEX
  5
551
  8
0
 10
904.5213739671397
 20
789.7118589363972
 30
0.0
  0
VERTEX
  5
552
  8
0
 10
904.8494814486253
 20
789.9927077114426
 30
0.0
  0
VERTEX
  5
553
  8
0
 10
905.1651212769267
 20
790.2527938860657
 30
0.0
  0
VERTEX
  5
554
  8
0
 10
905.4682934520441
 20
790.4921174602664
 30
0.0
  0
VERTEX
  5
555
  8
0
 10
905.7589979739773
 20
790.7106784340449
 30
0.0
  0
VERTEX
  5
556
  8
0
 10
906.0414882921186
 20
790.9123524928133
 30
0.0
  0
VERTEX
  5
557
  8
0
 10
906.3200178558598
 20
791.1010153219836
 30
0.0
  0
VERTEX
  5
558
  8
0
 10
906.594586665201
 20
791.2766669215562
 30
0.0
  0
VERTEX
  5
559
  8
0
 10
906.8651947201421
 20
791.4393072915306
 30
0.0
  0
VERTEX
  5
55A
  8
0
 10
907.1318420206833
 20
791.588936431907
 30
0.0
  0
VERTEX
  5
55B
  8
0
 10
907.3945285668244
 20
791.7255543426855
 30
0.0
  0
VERTEX
  5
55C
  8
0
 10
907.6532543585656
 20
791.8491610238661
 30
0.0
  0
VERTEX
  5
55D
  8
0
 10
907.9080193959069
 20
791.9597564754488
 30
0.0
  0
VERTEX
  5
55E
  8
0
 10
908.1588236788481
 20
792.0573406974335
 30
0.0
  0
VERTEX
  5
55F
  8
0
 10
908.4056672073892
 20
792.1419136898201
 30
0.0
  0
VERTEX
  5
560
  8
0
 10
908.6485499815304
 20
792.2134754526089
 30
0.0
  0
VERTEX
  5
561
  8
0
 10
908.8874720012716
 20
792.2720259857997
 30
0.0
  0
VERTEX
  5
562
  8
0
 10
909.1224332666128
 20
792.3175652893926
 30
0.0
  0
VERTEX
  5
563
  8
0
 10
909.353433777554
 20
792.3500933633875
 30
0.0
  0
VERTEX
  5
564
  8
0
 10
909.5804735340952
 20
792.3696102077845
 30
0.0
  0
VERTEX
  5
565
  8
0
 10
909.8035525362363
 20
792.3761158225834
 30
0.0
  0
VERTEX
  5
566
  8
0
 10
910.0979344895848
 20
792.3619251619338
 30
0.0
  0
VERTEX
  5
567
  8
0
 10
910.3797954414006
 20
792.3193531799845
 30
0.0
  0
VERTEX
  5
568
  8
0
 10
910.5160305417339
 20
792.2874241935227
 30
0.0
  0
VERTEX
  5
569
  8
0
 10
910.6491353916841
 20
792.248399876736
 30
0.0
  0
VERTEX
  5
56A
  8
0
 10
910.7791099912512
 20
792.2022802296244
 30
0.0
  0
VERTEX
  5
56B
  8
0
 10
910.9059543404351
 20
792.1490652521879
 30
0.0
  0
VERTEX
  5
56C
  8
0
 10
911.0296684392359
 20
792.0887549444267
 30
0.0
  0
VERTEX
  5
56D
  8
0
 10
911.1502522876536
 20
792.0213493063404
 30
0.0
  0
VERTEX
  5
56E
  8
0
 10
911.2677058856882
 20
791.9468483379293
 30
0.0
  0
VERTEX
  5
56F
  8
0
 10
911.3820292333396
 20
791.8652520391934
 30
0.0
  0
VERTEX
  5
570
  8
0
 10
911.6012851774933
 20
791.6807734507471
 30
0.0
  0
VERTEX
  5
571
  8
0
 10
911.8080201201146
 20
791.4679135410012
 30
0.0
  0
VERTEX
  5
572
  8
0
 10
911.9959649093538
 20
791.2336739202093
 30
0.0
  0
VERTEX
  5
573
  8
0
 10
912.158850393361
 20
790.9850561986252
 30
0.0
  0
VERTEX
  5
574
  8
0
 10
912.2966765721364
 20
790.7220603762485
 30
0.0
  0
VERTEX
  5
575
  8
0
 10
912.4094434456799
 20
790.4446864530794
 30
0.0
  0
VERTEX
  5
576
  8
0
 10
912.4971510139915
 20
790.1529344291179
 30
0.0
  0
VERTEX
  5
577
  8
0
 10
912.5597992770711
 20
789.846804304364
 30
0.0
  0
VERTEX
  5
578
  8
0
 10
912.597388234919
 20
789.5262960788176
 30
0.0
  0
VERTEX
  5
579
  8
0
 10
912.609917887535
 20
789.191409752479
 30
0.0
  0
VERTEX
  5
57A
  8
0
 10
912.6019848439569
 20
788.8968446845298
 30
0.0
  0
VERTEX
  5
57B
  8
0
 10
912.5781857132229
 20
788.5793686637535
 30
0.0
  0
VERTEX
  5
57C
  8
0
 10
912.5385204953328
 20
788.23898169015
 30
0.0
  0
VERTEX
  5
57D
  8
0
 10
912.4829891902868
 20
787.8756837637195
 30
0.0
  0
VERTEX
  5
57E
  8
0
 10
912.4115917980846
 20
787.489474884462
 30
0.0
  0
VERTEX
  5
57F
  8
0
 10
912.3243283187265
 20
787.0803550523773
 30
0.0
  0
VERTEX
  5
580
  8
0
 10
912.2211987522124
 20
786.6483242674656
 30
0.0
  0
VERTEX
  5
581
  8
0
 10
912.1022030985423
 20
786.1933825297268
 30
0.0
  0
VERTEX
  5
582
  8
0
 10
911.9673413577161
 20
785.715529839161
 30
0.0
  0
VERTEX
  5
583
  8
0
 10
911.8166135297339
 20
785.2147661957681
 30
0.0
  0
VERTEX
  5
584
  8
0
 10
911.6500196145957
 20
784.6910915995479
 30
0.0
  0
VERTEX
  5
585
  8
0
 10
911.4675596123014
 20
784.1445060505008
 30
0.0
  0
VERTEX
  5
586
  8
0
 10
911.0550413462449
 20
782.9826020939254
 30
0.0
  0
VERTEX
  5
587
  8
0
 10
910.5790587315644
 20
781.7290543260415
 30
0.0
  0
VERTEX
  5
588
  8
0
 10
910.2524803290889
 20
780.8763573962547
 30
0.0
  0
VERTEX
  5
589
  8
0
 10
909.9694457136103
 20
780.1018201222797
 30
0.0
  0
VERTEX
  5
58A
  8
0
 10
909.7299548851283
 20
779.4054425041166
 30
0.0
  0
VERTEX
  5
58B
  8
0
 10
909.5340078436432
 20
778.7872245417655
 30
0.0
  0
VERTEX
  5
58C
  8
0
 10
909.3816045891547
 20
778.2471662352261
 30
0.0
  0
VERTEX
  5
58D
  8
0
 10
909.2727451216629
 20
777.7852675844986
 30
0.0
  0
VERTEX
  5
58E
  8
0
 10
909.2074294411678
 20
777.401528589583
 30
0.0
  0
VERTEX
  5
58F
  8
0
 10
909.1911005210441
 20
777.2389689630546
 30
0.0
  0
VERTEX
  5
590
  8
0
 10
909.1856575476695
 20
777.0959492504792
 30
0.0
  0
VERTEX
  5
591
  8
0
 10
909.1901907154283
 20
776.9238200837424
 30
0.0
  0
VERTEX
  5
592
  8
0
 10
909.203790218705
 20
776.7627960245368
 30
0.0
  0
VERTEX
  5
593
  8
0
 10
909.2264560574993
 20
776.6128770728626
 30
0.0
  0
VERTEX
  5
594
  8
0
 10
909.2581882318113
 20
776.47406322872
 30
0.0
  0
VERTEX
  5
595
  8
0
 10
909.2989867416411
 20
776.3463544921088
 30
0.0
  0
VERTEX
  5
596
  8
0
 10
909.3488515869886
 20
776.2297508630289
 30
0.0
  0
VERTEX
  5
597
  8
0
 10
909.4077827678539
 20
776.1242523414805
 30
0.0
  0
VERTEX
  5
598
  8
0
 10
909.4757802842367
 20
776.0298589274635
 30
0.0
  0
VERTEX
  5
599
  8
0
 10
909.5528441361373
 20
775.946570620978
 30
0.0
  0
VERTEX
  5
59A
  8
0
 10
909.6389743235558
 20
775.8743874220238
 30
0.0
  0
VERTEX
  5
59B
  8
0
 10
909.7341708464919
 20
775.813309330601
 30
0.0
  0
VERTEX
  5
59C
  8
0
 10
909.8384337049458
 20
775.7633363467096
 30
0.0
  0
VERTEX
  5
59D
  8
0
 10
909.9517628989174
 20
775.7244684703496
 30
0.0
  0
VERTEX
  5
59E
  8
0
 10
910.0741584284067
 20
775.6967057015211
 30
0.0
  0
VERTEX
  5
59F
  8
0
 10
910.2056202934136
 20
775.6800480402239
 30
0.0
  0
VERTEX
  5
5A0
  8
0
 10
910.3461484939385
 20
775.6744954864582
 30
0.0
  0
VERTEX
  5
5A1
  8
0
 10
910.4531301601286
 20
775.6787007455196
 30
0.0
  0
VERTEX
  5
5A2
  8
0
 10
910.5640430938125
 20
775.6913164464789
 30
0.0
  0
VERTEX
  5
5A3
  8
0
 10
910.7976616187084
 20
775.741778716746
 30
0.0
  0
VERTEX
  5
5A4
  8
0
 10
911.0470017787194
 20
775.8258813825669
 30
0.0
  0
VERTEX
  5
5A5
  8
0
 10
911.3120612839386
 20
775.9436235292492
 30
0.0
  0
VERTEX
  5
5A6
  8
0
 10
911.5928378444596
 20
776.0950042421005
 30
0.0
  0
VERTEX
  5
5A7
  8
0
 10
911.8893291703755
 20
776.280022606428
 30
0.0
  0
VERTEX
  5
5A8
  8
0
 10
912.2015329717796
 20
776.4986777075396
 30
0.0
  0
VERTEX
  5
5A9
  8
0
 10
912.5294469587651
 20
776.7509686307427
 30
0.0
  0
VERTEX
  5
5AA
  8
0
 10
912.8730688414254
 20
777.0368944613449
 30
0.0
  0
VERTEX
  5
5AB
  8
0
 10
913.2323963298538
 20
777.3564542846534
 30
0.0
  0
VERTEX
  5
5AC
  8
0
 10
913.6074271341434
 20
777.709647185976
 30
0.0
  0
VERTEX
  5
5AD
  8
0
 10
913.9981589643878
 20
778.0964722506202
 30
0.0
  0
VERTEX
  5
5AE
  8
0
 10
914.40458953068
 20
778.5169285638934
 30
0.0
  0
VERTEX
  5
5AF
  8
0
 10
914.8267165431134
 20
778.9710152111033
 30
0.0
  0
VERTEX
  5
5B0
  8
0
 10
915.2645377117814
 20
779.4587312775574
 30
0.0
  0
VERTEX
  5
5B1
  8
0
 10
915.718050746777
 20
779.980075848563
 30
0.0
  0
VERTEX
  5
5B2
  8
0
 10
915.7633147581093
 20
780.3208746704158
 30
0.0
  0
VERTEX
  5
5B3
  8
0
 10
915.8180460823918
 20
780.6600864671905
 30
0.0
  0
VERTEX
  5
5B4
  8
0
 10
915.8822424297175
 20
780.9977103241945
 30
0.0
  0
VERTEX
  5
5B5
  8
0
 10
915.9559015101797
 20
781.3337453267354
 30
0.0
  0
VERTEX
  5
5B6
  8
0
 10
916.0390210338719
 20
781.6681905601207
 30
0.0
  0
VERTEX
  5
5B7
  8
0
 10
916.1315987108873
 20
782.001045109658
 30
0.0
  0
VERTEX
  5
5B8
  8
0
 10
916.233632251319
 20
782.3323080606547
 30
0.0
  0
VERTEX
  5
5B9
  8
0
 10
916.3451193652603
 20
782.6619784984184
 30
0.0
  0
VERTEX
  5
5BA
  8
0
 10
916.4660577628047
 20
782.9900555082565
 30
0.0
  0
VERTEX
  5
5BB
  8
0
 10
916.5964451540455
 20
783.3165381754768
 30
0.0
  0
VERTEX
  5
5BC
  8
0
 10
916.7362792490758
 20
783.6414255853866
 30
0.0
  0
VERTEX
  5
5BD
  8
0
 10
916.8855577579889
 20
783.9647168232934
 30
0.0
  0
VERTEX
  5
5BE
  8
0
 10
917.0442783908782
 20
784.2864109745049
 30
0.0
  0
VERTEX
  5
5BF
  8
0
 10
917.2124388578369
 20
784.6065071243283
 30
0.0
  0
VERTEX
  5
5C0
  8
0
 10
917.3900368689583
 20
784.9250043580716
 30
0.0
  0
VERTEX
  5
5C1
  8
0
 10
917.5770701343356
 20
785.241901761042
 30
0.0
  0
VERTEX
  5
5C2
  8
0
 10
917.8249755833775
 20
785.6386981246677
 30
0.0
  0
VERTEX
  5
5C3
  8
0
 10
918.0814629072606
 20
786.0258975529871
 30
0.0
  0
VERTEX
  5
5C4
  8
0
 10
918.346532105985
 20
786.4035000460002
 30
0.0
  0
VERTEX
  5
5C5
  8
0
 10
918.6201831795506
 20
786.7715056037069
 30
0.0
  0
VERTEX
  5
5C6
  8
0
 10
918.9024161279574
 20
787.1299142261074
 30
0.0
  0
VERTEX
  5
5C7
  8
0
 10
919.1932309512055
 20
787.4787259132016
 30
0.0
  0
VERTEX
  5
5C8
  8
0
 10
919.4926276492947
 20
787.8179406649895
 30
0.0
  0
VERTEX
  5
5C9
  8
0
 10
919.800606222225
 20
788.1475584814712
 30
0.0
  0
VERTEX
  5
5CA
  8
0
 10
920.1171666699965
 20
788.4675793626465
 30
0.0
  0
VERTEX
  5
5CB
  8
0
 10
920.4423089926095
 20
788.7780033085155
 30
0.0
  0
VERTEX
  5
5CC
  8
0
 10
920.7760331900633
 20
789.0788303190782
 30
0.0
  0
VERTEX
  5
5CD
  8
0
 10
921.1183392623586
 20
789.3700603943346
 30
0.0
  0
VERTEX
  5
5CE
  8
0
 10
921.4692272094951
 20
789.6516935342847
 30
0.0
  0
VERTEX
  5
5CF
  8
0
 10
921.8286970314728
 20
789.9237297389286
 30
0.0
  0
VERTEX
  5
5D0
  8
0
 10
922.1967487282916
 20
790.1861690082661
 30
0.0
  0
VERTEX
  5
5D1
  8
0
 10
922.5733822999516
 20
790.4390113422974
 30
0.0
  0
VERTEX
  5
5D2
  8
0
 10
922.9515384623093
 20
790.6793038378511
 30
0.0
  0
VERTEX
  5
5D3
  8
0
 10
923.324157931221
 20
790.9040935917562
 30
0.0
  0
VERTEX
  5
5D4
  8
0
 10
923.6912407066868
 20
791.1133806040127
 30
0.0
  0
VERTEX
  5
5D5
  8
0
 10
924.0527867887067
 20
791.3071648746206
 30
0.0
  0
VERTEX
  5
5D6
  8
0
 10
924.4087961772806
 20
791.4854464035799
 30
0.0
  0
VERTEX
  5
5D7
  8
0
 10
924.7592688724085
 20
791.6482251908906
 30
0.0
  0
VERTEX
  5
5D8
  8
0
 10
925.1042048740906
 20
791.7955012365526
 30
0.0
  0
VERTEX
  5
5D9
  8
0
 10
925.4436041823267
 20
791.927274540566
 30
0.0
  0
VERTEX
  5
5DA
  8
0
 10
925.7774667971169
 20
792.0435451029307
 30
0.0
  0
VERTEX
  5
5DB
  8
0
 10
926.1057927184611
 20
792.1443129236468
 30
0.0
  0
VERTEX
  5
5DC
  8
0
 10
926.4285819463594
 20
792.2295780027143
 30
0.0
  0
VERTEX
  5
5DD
  8
0
 10
926.7458344808117
 20
792.2993403401332
 30
0.0
  0
VERTEX
  5
5DE
  8
0
 10
927.0575503218181
 20
792.3535999359035
 30
0.0
  0
VERTEX
  5
5DF
  8
0
 10
927.3637294693787
 20
792.392356790025
 30
0.0
  0
VERTEX
  5
5E0
  8
0
 10
927.6643719234933
 20
792.415610902498
 30
0.0
  0
VERTEX
  5
5E1
  8
0
 10
927.9594776841618
 20
792.4233622733223
 30
0.0
  0
VERTEX
  5
5E2
  8
0
 10
928.3216697137502
 20
792.4127502775509
 30
0.0
  0
VERTEX
  5
5E3
  8
0
 10
928.6700200097241
 20
792.3809142902368
 30
0.0
  0
VERTEX
  5
5E4
  8
0
 10
929.0045285720828
 20
792.3278543113798
 30
0.0
  0
VERTEX
  5
5E5
  8
0
 10
929.3251954008269
 20
792.2535703409801
 30
0.0
  0
VERTEX
  5
5E6
  8
0
 10
929.6320204959561
 20
792.1580623790377
 30
0.0
  0
VERTEX
  5
5E7
  8
0
 10
929.9250038574704
 20
792.0413304255525
 30
0.0
  0
VERTEX
  5
5E8
  8
0
 10
930.2041454853698
 20
791.9033744805245
 30
0.0
  0
VERTEX
  5
5E9
  8
0
 10
930.4694453796545
 20
791.7441945439537
 30
0.0
  0
VERTEX
  5
5EA
  8
0
 10
930.7209035403242
 20
791.5637906158402
 30
0.0
  0
VERTEX
  5
5EB
  8
0
 10
930.9585199673792
 20
791.3621626961839
 30
0.0
  0
VERTEX
  5
5EC
  8
0
 10
931.1822946608191
 20
791.1393107849848
 30
0.0
  0
VERTEX
  5
5ED
  8
0
 10
931.3922276206443
 20
790.8952348822429
 30
0.0
  0
VERTEX
  5
5EE
  8
0
 10
931.5883188468546
 20
790.6299349879582
 30
0.0
  0
VERTEX
  5
5EF
  8
0
 10
931.7705683394502
 20
790.3434111021309
 30
0.0
  0
VERTEX
  5
5F0
  8
0
 10
931.9389760984308
 20
790.0356632247606
 30
0.0
  0
VERTEX
  5
5F1
  8
0
 10
932.0935421237967
 20
789.7066913558477
 30
0.0
  0
VERTEX
  5
5F2
  8
0
 10
936.9219079215525
 20
792.3761158225834
 30
0.0
  0
VERTEX
  5
5F3
  8
0
 10
938.2473923325106
 20
792.3761158225834
 30
0.0
  0
VERTEX
  5
5F4
  8
0
 10
936.1637500323552
 20
785.4541416764697
 30
0.0
  0
VERTEX
  5
5F5
  8
0
 10
935.7863897696805
 20
784.2001786565775
 30
0.0
  0
VERTEX
  5
5F6
  8
0
 10
935.4593442086955
 20
783.0488405566614
 30
0.0
  0
VERTEX
  5
5F7
  8
0
 10
935.1826133494008
 20
782.0001273767214
 30
0.0
  0
VERTEX
  5
5F8
  8
0
 10
934.9561971917958
 20
781.0540391167574
 30
0.0
  0
VERTEX
  5
5F9
  8
0
 10
934.7800957358809
 20
780.2105757767695
 30
0.0
  0
VERTEX
  5
5FA
  8
0
 10
934.7109130210572
 20
779.8273284517666
 30
0.0
  0
VERTEX
  5
5FB
  8
0
 10
934.6543089816558
 20
779.4697373567576
 30
0.0
  0
VERTEX
  5
5FC
  8
0
 10
934.6102836176772
 20
779.1378024917428
 30
0.0
  0
VERTEX
  5
5FD
  8
0
 10
934.5788369291209
 20
778.831523856722
 30
0.0
  0
VERTEX
  5
5FE
  8
0
 10
934.5599689159873
 20
778.5509014516952
 30
0.0
  0
VERTEX
  5
5FF
  8
0
 10
934.5536795782759
 20
778.2959352766625
 30
0.0
  0
VERTEX
  5
600
  8
0
 10
934.5593056662514
 20
778.0500109257441
 30
0.0
  0
VERTEX
  5
601
  8
0
 10
934.576183930178
 20
777.8199526619818
 30
0.0
  0
VERTEX
  5
602
  8
0
 10
934.6043143700557
 20
777.6057604853755
 30
0.0
  0
VERTEX
  5
603
  8
0
 10
934.6436969858845
 20
777.4074343959253
 30
0.0
  0
VERTEX
  5
604
  8
0
 10
934.6943317776643
 20
777.2249743936311
 30
0.0
  0
VERTEX
  5
605
  8
0
 10
934.7562187453952
 20
777.0583804784928
 30
0.0
  0
VERTEX
  5
606
  8
0
 10
934.8293578890772
 20
776.9076526505105
 30
0.0
  0
VERTEX
  5
607
  8
0
 10
934.9137492087102
 20
776.7727909096844
 30
0.0
  0
VERTEX
  5
608
  8
0
 10
935.0093927042942
 20
776.6537952560143
 30
0.0
  0
VERTEX
  5
609
  8
0
 10
935.1162883758295
 20
776.5506656895002
 30
0.0
  0
VERTEX
  5
60A
  8
0
 10
935.2344362233157
 20
776.463402210142
 30
0.0
  0
VERTEX
  5
60B
  8
0
 10
935.3638362467532
 20
776.39200481794
 30
0.0
  0
VERTEX
  5
60C
  8
0
 10
935.5044884461415
 20
776.3364735128939
 30
0.0
  0
VERTEX
  5
60D
  8
0
 10
935.656392821481
 20
776.2968082950039
 30
0.0
  0
VERTEX
  5
60E
  8
0
 10
935.8195493727715
 20
776.2730091642698
 30
0.0
  0
VERTEX
  5
60F
  8
0
 10
935.9939581000131
 20
776.2650761206918
 30
0.0
  0
VERTEX
  5
610
  8
0
 10
936.1098126894457
 20
776.2689056669919
 30
0.0
  0
VERTEX
  5
611
  8
0
 10
936.2271422886167
 20
776.2803943058923
 30
0.0
  0
VERTEX
  5
612
  8
0
 10
936.4662265161737
 20
776.3263488614936
 30
0.0
  0
VERTEX
  5
613
  8
0
 10
936.711210782684
 20
776.4029397874957
 30
0.0
  0
VERTEX
  5
614
  8
0
 10
936.9620950881476
 20
776.5101670838988
 30
0.0
  0
VERTEX
  5
615
  8
0
 10
937.2188794325646
 20
776.6480307507026
 30
0.0
  0
VERTEX
  5
616
  8
0
 10
937.4815638159348
 20
776.8165307879074
 30
0.0
  0
VERTEX
  5
617
  8
0
 10
937.7501482382586
 20
777.015667195513
 30
0.0
  0
VERTEX
  5
618
  8
0
 10
938.0246326995355
 20
777.2454399735195
 30
0.0
  0
VERTEX
  5
619
  8
0
 10
938.6245942534931
 20
777.7896869484408
 30
0.0
  0
VERTEX
  5
61A
  8
0
 10
939.3329200924809
 20
778.458191746507
 30
0.0
  0
VERTEX
  5
61B
  8
0
 10
940.1494929074832
 20
779.2509526731411
 30
0.0
  0
VERTEX
  5
61C
  8
0
 10
941.0741953894842
 20
780.1679680337655
 30
0.0
  0
VERTEX
  5
61D
  8
0
 10
941.1532356441078
 20
780.6411386258815
 30
0.0
  0
VERTEX
  5
61E
  8
0
 10
941.2461277719312
 20
781.1321587391685
 30
0.0
  0
VERTEX
  5
61F
  8
0
 10
941.3528571093275
 20
781.6410281618046
 30
0.0
  0
VERTEX
  5
620
  8
0
 10
941.4734089926694
 20
782.1677466819675
 30
0.0
  0
VERTEX
  5
621
  8
0
 10
941.6077687583304
 20
782.712314087835
 30
0.0
  0
VERTEX
  5
622
  8
0
 10
941.7559217426832
 20
783.2747301675851
 30
0.0
  0
VERTEX
  5
623
  8
0
 10
941.917853282101
 20
783.8549947093953
 30
0.0
  0
VERTEX
  5
624
  8
0
 10
942.0935487129566
 20
784.4531075014438
 30
0.0
  0
VERTEX
  5
625
  8
0
 10
943.096059339568
 20
788.0294423546244
 30
0.0
  0
VERTEX
  5
626
  8
0
 10
941.2829767924711
 20
787.934949453147
 30
0.0
  0
VERTEX
  5
627
  8
0
 10
942.0396582300828
 20
791.6437958361339
 30
0.0
  0
VERTEX
  5
628
  8
0
 10
944.2857102046523
 20
791.7382887376112
 30
0.0
  0
VERTEX
  5
629
  8
0
 10
946.5037095990958
 20
799.1087350528461
 30
0.0
  0
VERTEX
  5
62A
  8
0
 10
952.815540127467
 20
800.4039522062997
 30
0.0
  0
VERTEX
  5
62B
  8
0
 10
950.3734892049113
 20
792.1871300196287
 30
0.0
  0
VERTEX
  5
62C
  8
0
 10
953.7087933367452
 20
792.3761158225834
 30
0.0
  0
VERTEX
  5
62D
  8
0
 10
952.9284886737642
 20
788.7381391157047
 30
0.0
  0
VERTEX
  5
62E
  8
0
 10
949.2643049512412
 20
788.4546604112727
 30
0.0
  0
VERTEX
  5
62F
  8
0
 10
947.6904075610089
 20
783.1612123640579
 30
0.0
  0
VERTEX
  5
630
  8
0
 10
947.4982669962677
 20
782.489138523167
 30
0.0
  0
VERTEX
  5
631
  8
0
 10
947.3317451734921
 20
781.8522918943256
 30
0.0
  0
VERTEX
  5
632
  8
0
 10
947.1908420926819
 20
781.2506724775343
 30
0.0
  0
VERTEX
  5
633
  8
0
 10
947.0755577538373
 20
780.6842802727926
 30
0.0
  0
VERTEX
  5
634
  8
0
 10
946.985892156958
 20
780.1531152801009
 30
0.0
  0
VERTEX
  5
635
  8
0
 10
946.9218453020443
 20
779.6571774994588
 30
0.0
  0
VERTEX
  5
636
  8
0
 10
946.883417189096
 20
779.1964669308666
 30
0.0
  0
VERTEX
  5
637
  8
0
 10
946.8706078181133
 20
778.7709835743241
 30
0.0
  0
VERTEX
  5
638
  8
0
 10
946.8792935059566
 20
778.4996884791676
 30
0.0
  0
VERTEX
  5
639
  8
0
 10
946.9053505694866
 20
778.2413181027739
 30
0.0
  0
VERTEX
  5
63A
  8
0
 10
946.9487790087032
 20
777.995872445143
 30
0.0
  0
VERTEX
  5
63B
  8
0
 10
947.0095788236065
 20
777.7633515062752
 30
0.0
  0
VERTEX
  5
63C
  8
0
 10
947.0877500141963
 20
777.5437552861703
 30
0.0
  0
VERTEX
  5
63D
  8
0
 10
947.1832925804728
 20
777.337083784828
 30
0.0
  0
VERTEX
  5
63E
  8
0
 10
947.2962065224359
 20
777.1433370022486
 30
0.0
  0
VERTEX
  5
63F
  8
0
 10
947.4264918400856
 20
776.962514938432
 30
0.0
  0
VERTEX
  5
640
  8
0
 10
947.5704574044581
 20
776.7990527155241
 30
0.0
  0
VERTEX
  5
641
  8
0
 10
947.7244120865894
 20
776.6573854556707
 30
0.0
  0
VERTEX
  5
642
  8
0
 10
947.8883558864792
 20
776.5375131588715
 30
0.0
  0
VERTEX
  5
643
  8
0
 10
948.0622888041278
 20
776.4394358251268
 30
0.0
  0
VERTEX
  5
644
  8
0
 10
948.246210839535
 20
776.3631534544365
 30
0.0
  0
VERTEX
  5
645
  8
0
 10
948.4401219927012
 20
776.3086660468006
 30
0.0
  0
VERTEX
  5
646
  8
0
 10
948.6440222636259
 20
776.275973602219
 30
0.0
  0
VERTEX
  5
647
  8
0
 10
948.8579116523093
 20
776.2650761206918
 30
0.0
  0
VERTEX
  5
648
  8
0
 10
949.1591106594631
 20
776.2770722898247
 30
0.0
  0
VERTEX
  5
649
  8
0
 10
949.4595772082129
 20
776.3130607972232
 30
0.0
  0
VERTEX
  5
64A
  8
0
 10
949.7593112985589
 20
776.3730416428875
 30
0.0
  0
VERTEX
  5
64B
  8
0
 10
950.0583129305012
 20
776.4570148268176
 30
0.0
  0
VERTEX
  5
64C
  8
0
 10
950.3565821040396
 20
776.5649803490135
 30
0.0
  0
VERTEX
  5
64D
  8
0
 10
950.6541188191743
 20
776.696938209475
 30
0.0
  0
VERTEX
  5
64E
  8
0
 10
950.9509230759052
 20
776.8528884082024
 30
0.0
  0
VERTEX
  5
64F
  8
0
 10
951.2469948742323
 20
777.0328309451954
 30
0.0
  0
VERTEX
  5
650
  8
0
 10
951.5446041099985
 20
777.2394021510158
 30
0.0
  0
VERTEX
  5
651
  8
0
 10
951.8737652464436
 20
777.4932597425941
 30
0.0
  0
VERTEX
  5
652
  8
0
 10
952.2344663606832
 20
777.7944150942644
 30
0.0
  0
VERTEX
  5
653
  8
0
 10
952.6266955298338
 20
778.142879580361
 30
0.0
  0
VERTEX
  5
654
  8
0
 10
953.0504408310112
 20
778.5386645752177
 30
0.0
  0
VERTEX
  5
655
  8
0
 10
953.5056903413317
 20
778.9817814531685
 30
0.0
  0
VERTEX
  5
656
  8
0
 10
953.9924321379112
 20
779.4722415885478
 30
0.0
  0
VERTEX
  5
657
  8
0
 10
954.5106542978658
 20
780.0100563556895
 30
0.0
  0
VERTEX
  5
658
  8
0
 10
954.5565910444278
 20
780.3490241722438
 30
0.0
  0
VERTEX
  5
659
  8
0
 10
954.6118744455716
 20
780.6863883566073
 30
0.0
  0
VERTEX
  5
65A
  8
0
 10
954.6765030109367
 20
781.0221503305715
 30
0.0
  0
VERTEX
  5
65B
  8
0
 10
954.7504752501625
 20
781.3563115159286
 30
0.0
  0
VERTEX
  5
65C
  8
0
 10
954.8337896728885
 20
781.68887333447
 30
0.0
  0
VERTEX
  5
65D
  8
0
 10
954.9264447887546
 20
782.0198372079877
 30
0.0
  0
VERTEX
  5
65E
  8
0
 10
955.0284391073999
 20
782.3492045582732
 30
0.0
  0
VERTEX
  5
65F
  8
0
 10
955.1397711384641
 20
782.6769768071185
 30
0.0
  0
VERTEX
  5
660
  8
0
 10
955.2604393915865
 20
783.0031553763154
 30
0.0
  0
VERTEX
  5
661
  8
0
 10
955.3904423764068
 20
783.3277416876554
 30
0.0
  0
VERTEX
  5
662
  8
0
 10
955.5297786025644
 20
783.6507371629303
 30
0.0
  0
VERTEX
  5
663
  8
0
 10
955.678446579699
 20
783.9721432239321
 30
0.0
  0
VERTEX
  5
664
  8
0
 10
955.8364448174499
 20
784.2919612924524
 30
0.0
  0
VERTEX
  5
665
  8
0
 10
956.0037718254567
 20
784.610192790283
 30
0.0
  0
VERTEX
  5
666
  8
0
 10
956.1804261133591
 20
784.9268391392155
 30
0.0
  0
VERTEX
  5
667
  8
0
 10
956.3664061907962
 20
785.241901761042
 30
0.0
  0
VERTEX
  5
668
  8
0
 10
956.6143116398381
 20
785.6386981246677
 30
0.0
  0
VERTEX
  5
669
  8
0
 10
956.8707989637212
 20
786.0258975529871
 30
0.0
  0
VERTEX
  5
66A
  8
0
 10
957.1358681624456
 20
786.4035000460002
 30
0.0
  0
VERTEX
  5
66B
  8
0
 10
957.4095192360112
 20
786.7715056037069
 30
0.0
  0
VERTEX
  5
66C
  8
0
 10
957.691752184418
 20
787.1299142261074
 30
0.0
  0
VERTEX
  5
66D
  8
0
 10
957.982567007666
 20
787.4787259132016
 30
0.0
  0
VERTEX
  5
66E
  8
0
 10
958.2819637057553
 20
787.8179406649895
 30
0.0
  0
VERTEX
  5
66F
  8
0
 10
958.5899422786856
 20
788.1475584814712
 30
0.0
  0
VERTEX
  5
670
  8
0
 10
958.9065027264571
 20
788.4675793626465
 30
0.0
  0
VERTEX
  5
671
  8
0
 10
959.23164504907
 20
788.7780033085155
 30
0.0
  0
VERTEX
  5
672
  8
0
 10
959.5653692465239
 20
789.0788303190782
 30
0.0
  0
VERTEX
  5
673
  8
0
 10
959.9076753188192
 20
789.3700603943346
 30
0.0
  0
VERTEX
  5
674
  8
0
 10
960.2585632659557
 20
789.6516935342847
 30
0.0
  0
VERTEX
  5
675
  8
0
 10
960.6180330879333
 20
789.9237297389286
 30
0.0
  0
VERTEX
  5
676
  8
0
 10
960.9860847847522
 20
790.1861690082661
 30
0.0
  0
VERTEX
  5
677
  8
0
 10
961.3627183564122
 20
790.4390113422974
 30
0.0
  0
VERTEX
  5
678
  8
0
 10
961.7408745187698
 20
790.6793038378511
 30
0.0
  0
VERTEX
  5
679
  8
0
 10
962.1134939876815
 20
790.9040935917562
 30
0.0
  0
VERTEX
  5
67A
  8
0
 10
962.4805767631474
 20
791.1133806040127
 30
0.0
  0
VERTEX
  5
67B
  8
0
 10
962.8421228451673
 20
791.3071648746206
 30
0.0
  0
VERTEX
  5
67C
  8
0
 10
963.1981322337411
 20
791.4854464035799
 30
0.0
  0
VERTEX
  5
67D
  8
0
 10
963.548604928869
 20
791.6482251908906
 30
0.0
  0
VERTEX
  5
67E
  8
0
 10
963.8935409305511
 20
791.7955012365526
 30
0.0
  0
VERTEX
  5
67F
  8
0
 10
964.2329402387873
 20
791.927274540566
 30
0.0
  0
VERTEX
  5
680
  8
0
 10
964.5668028535774
 20
792.0435451029307
 30
0.0
  0
VERTEX
  5
681
  8
0
 10
964.8951287749217
 20
792.1443129236468
 30
0.0
  0
VERTEX
  5
682
  8
0
 10
965.2179180028199
 20
792.2295780027143
 30
0.0
  0
VERTEX
  5
683
  8
0
 10
965.5351705372723
 20
792.2993403401332
 30
0.0
  0
VERTEX
  5
684
  8
0
 10
965.8468863782787
 20
792.3535999359035
 30
0.0
  0
VERTEX
  5
685
  8
0
 10
966.1530655258392
 20
792.392356790025
 30
0.0
  0
VERTEX
  5
686
  8
0
 10
966.4537079799538
 20
792.415610902498
 30
0.0
  0
VERTEX
  5
687
  8
0
 10
966.7488137406224
 20
792.4233622733223
 30
0.0
  0
VERTEX
  5
688
  8
0
 10
967.1110057702108
 20
792.4127502775509
 30
0.0
  0
VERTEX
  5
689
  8
0
 10
967.4593560661847
 20
792.3809142902368
 30
0.0
  0
VERTEX
  5
68A
  8
0
 10
967.7938646285434
 20
792.3278543113798
 30
0.0
  0
VERTEX
  5
68B
  8
0
 10
968.1145314572875
 20
792.2535703409801
 30
0.0
  0
VERTEX
  5
68C
  8
0
 10
968.4213565524167
 20
792.1580623790377
 30
0.0
  0
VERTEX
  5
68D
  8
0
 10
968.714339913931
 20
792.0413304255525
 30
0.0
  0
VERTEX
  5
68E
  8
0
 10
968.9934815418303
 20
791.9033744805245
 30
0.0
  0
VERTEX
  5
68F
  8
0
 10
969.258781436115
 20
791.7441945439537
 30
0.0
  0
VERTEX
  5
690
  8
0
 10
969.5102395967847
 20
791.5637906158402
 30
0.0
  0
VERTEX
  5
691
  8
0
 10
969.7478560238396
 20
791.3621626961839
 30
0.0
  0
VERTEX
  5
692
  8
0
 10
969.9716307172796
 20
791.1393107849848
 30
0.0
  0
VERTEX
  5
693
  8
0
 10
970.1815636771048
 20
790.8952348822429
 30
0.0
  0
VERTEX
  5
694
  8
0
 10
970.3776549033151
 20
790.6299349879582
 30
0.0
  0
VERTEX
  5
695
  8
0
 10
970.5599043959107
 20
790.3434111021309
 30
0.0
  0
VERTEX
  5
696
  8
0
 10
970.7283121548913
 20
790.0356632247606
 30
0.0
  0
VERTEX
  5
697
  8
0
 10
970.8828781802573
 20
789.7066913558477
 30
0.0
  0
VERTEX
  5
698
  8
0
 10
975.711243978013
 20
792.3761158225834
 30
0.0
  0
VERTEX
  5
699
  8
0
 10
977.0367283889711
 20
792.3761158225834
 30
0.0
  0
VERTEX
  5
69A
  8
0
 10
974.9530860888158
 20
785.4541416764697
 30
0.0
  0
VERTEX
  5
69B
  8
0
 10
974.575725826141
 20
784.2001786565775
 30
0.0
  0
VERTEX
  5
69C
  8
0
 10
974.248680265156
 20
783.0488405566614
 30
0.0
  0
VERTEX
  5
69D
  8
0
 10
973.9719494058613
 20
782.0001273767214
 30
0.0
  0
VERTEX
  5
69E
  8
0
 10
973.7455332482564
 20
781.0540391167574
 30
0.0
  0
VERTEX
  5
69F
  8
0
 10
973.5694317923414
 20
780.2105757767695
 30
0.0
  0
VERTEX
  5
6A0
  8
0
 10
973.5002490775178
 20
779.8273284517666
 30
0.0
  0
VERTEX
  5
6A1
  8
0
 10
973.4436450381164
 20
779.4697373567576
 30
0.0
  0
VERTEX
  5
6A2
  8
0
 10
973.3996196741377
 20
779.1378024917428
 30
0.0
  0
VERTEX
  5
6A3
  8
0
 10
973.3681729855815
 20
778.831523856722
 30
0.0
  0
VERTEX
  5
6A4
  8
0
 10
973.3493049724478
 20
778.5509014516952
 30
0.0
  0
VERTEX
  5
6A5
  8
0
 10
973.3430156347365
 20
778.2959352766625
 30
0.0
  0
VERTEX
  5
6A6
  8
0
 10
973.3486417227119
 20
778.0500109257441
 30
0.0
  0
VERTEX
  5
6A7
  8
0
 10
973.3655199866386
 20
777.8199526619818
 30
0.0
  0
VERTEX
  5
6A8
  8
0
 10
973.3936504265163
 20
777.6057604853755
 30
0.0
  0
VERTEX
  5
6A9
  8
0
 10
973.4330330423451
 20
777.4074343959253
 30
0.0
  0
VERTEX
  5
6AA
  8
0
 10
973.4836678341248
 20
777.2249743936311
 30
0.0
  0
VERTEX
  5
6AB
  8
0
 10
973.5455548018558
 20
777.0583804784928
 30
0.0
  0
VERTEX
  5
6AC
  8
0
 10
973.6186939455378
 20
776.9076526505105
 30
0.0
  0
VERTEX
  5
6AD
  8
0
 10
973.7030852651708
 20
776.7727909096844
 30
0.0
  0
VERTEX
  5
6AE
  8
0
 10
973.7987287607548
 20
776.6537952560143
 30
0.0
  0
VERTEX
  5
6AF
  8
0
 10
973.9056244322901
 20
776.5506656895002
 30
0.0
  0
VERTEX
  5
6B0
  8
0
 10
974.0237722797763
 20
776.463402210142
 30
0.0
  0
VERTEX
  5
6B1
  8
0
 10
974.1531723032138
 20
776.39200481794
 30
0.0
  0
VERTEX
  5
6B2
  8
0
 10
974.2938245026021
 20
776.3364735128939
 30
0.0
  0
VERTEX
  5
6B3
  8
0
 10
974.4457288779415
 20
776.2968082950039
 30
0.0
  0
VERTEX
  5
6B4
  8
0
 10
974.608885429232
 20
776.2730091642698
 30
0.0
  0
VERTEX
  5
6B5
  8
0
 10
974.7832941564736
 20
776.2650761206918
 30
0.0
  0
VERTEX
  5
6B6
  8
0
 10
974.8991487459062
 20
776.2689056669919
 30
0.0
  0
VERTEX
  5
6B7
  8
0
 10
975.0164783450773
 20
776.2803943058923
 30
0.0
  0
VERTEX
  5
6B8
  8
0
 10
975.2555625726343
 20
776.3263488614936
 30
0.0
  0
VERTEX
  5
6B9
  8
0
 10
975.5005468391446
 20
776.4029397874957
 30
0.0
  0
VERTEX
  5
6BA
  8
0
 10
975.7514311446082
 20
776.5101670838988
 30
0.0
  0
VERTEX
  5
6BB
  8
0
 10
976.0082154890251
 20
776.6480307507026
 30
0.0
  0
VERTEX
  5
6BC
  8
0
 10
976.2708998723954
 20
776.8165307879074
 30
0.0
  0
VERTEX
  5
6BD
  8
0
 10
976.5394842947192
 20
777.015667195513
 30
0.0
  0
VERTEX
  5
6BE
  8
0
 10
976.813968755996
 20
777.2454399735195
 30
0.0
  0
VERTEX
  5
6BF
  8
0
 10
977.4249082734215
 20
777.7998475439064
 30
0.0
  0
VERTEX
  5
6C0
  8
0
 10
978.1479889026832
 20
778.4827064022389
 30
0.0
  0
VERTEX
  5
6C1
  8
0
 10
978.9832106437811
 20
779.2940165485172
 30
0.0
  0
VERTEX
  5
6C2
  8
0
 10
979.9305734967155
 20
780.2337779827413
 30
0.0
  0
VERTEX
  5
6C3
  8
0
 10
979.9305734967155
 20
777.5171070652669
 30
0.0
  0
VERTEX
  5
6C4
  8
0
 10
979.0192337555138
 20
776.6585504682499
 30
0.0
  0
VERTEX
  5
6C5
  8
0
 10
978.1750725614562
 20
775.8782458052689
 30
0.0
  0
VERTEX
  5
6C6
  8
0
 10
977.3980899145428
 20
775.1761930763238
 30
0.0
  0
VERTEX
  5
6C7
  8
0
 10
976.6882858147732
 20
774.5523922814145
 30
0.0
  0
VERTEX
  5
6C8
  8
0
 10
976.0456602621477
 20
774.0068434205414
 30
0.0
  0
VERTEX
  5
6C9
  8
0
 10
975.4702132566665
 20
773.5395464937039
 30
0.0
  0
VERTEX
  5
6CA
  8
0
 10
974.9619447983293
 20
773.1505015009026
 30
0.0
  0
VERTEX
  5
6CB
  8
0
 10
974.520854887136
 20
772.8397084421372
 30
0.0
  0
VERTEX
  5
6CC
  8
0
 10
974.1155689268933
 20
772.5850205436241
 30
0.0
  0
VERTEX
  5
6CD
  8
0
 10
973.7147123214072
 20
772.3642910315791
 30
0.0
  0
VERTEX
  5
6CE
  8
0
 10
973.3182850706779
 20
772.1775199060028
 30
0.0
  0
VERTEX
  5
6CF
  8
0
 10
973.121732453347
 20
772.0968687381401
 30
0.0
  0
VERTEX
  5
6D0
  8
0
 10
972.9262871747054
 20
772.0247071668947
 30
0.0
  0
VERTEX
  5
6D1
  8
0
 10
972.7319492347528
 20
771.9610351922664
 30
0.0
  0
VERTEX
  5
6D2
  8
0
 10
972.5387186334897
 20
771.9058528142552
 30
0.0
  0
VERTEX
  5
6D3
  8
0
 10
972.3465953709156
 20
771.8591600328612
 30
0.0
  0
VERTEX
  5
6D4
  8
0
 10
972.1555794470306
 20
771.8209568480842
 30
0.0
  0
VERTEX
  5
6D5
  8
0
 10
971.965670861835
 20
771.7912432599243
 30
0.0
  0
VERTEX
  5
6D6
  8
0
 10
971.7768696153283
 20
771.7700192683816
 30
0.0
  0
VERTEX
  5
6D7
  8
0
 10
971.589175707511
 20
771.7572848734559
 30
0.0
  0
VERTEX
  5
6D8
  8
0
 10
971.4025891383828
 20
771.7530400751473
 30
0.0
  0
VERTEX
  5
6D9
  8
0
 10
971.1731624037168
 20
771.7594764812782
 30
0.0
  0
VERTEX
  5
6DA
  8
0
 10
970.9514409007629
 20
771.7787856996708
 30
0.0
  0
VERTEX
  5
6DB
  8
0
 10
970.7374246295213
 20
771.8109677303255
 30
0.0
  0
VERTEX
  5
6DC
  8
0
 10
970.531113589992
 20
771.8560225732417
 30
0.0
  0
VERTEX
  5
6DD
  8
0
 10
970.3325077821748
 20
771.9139502284199
 30
0.0
  0
VERTEX
  5
6DE
  8
0
 10
970.1416072060701
 20
771.9847506958598
 30
0.0
  0
VERTEX
  5
6DF
  8
0
 10
969.9584118616776
 20
772.0684239755616
 30
0.0
  0
VERTEX
  5
6E0
  8
0
 10
969.7829217489973
 20
772.1649700675252
 30
0.0
  0
VERTEX
  5
6E1
  8
0
 10
969.6151368680294
 20
772.2743889717507
 30
0.0
  0
VERTEX
  5
6E2
  8
0
 10
969.4550572187736
 20
772.3966806882379
 30
0.0
  0
VERTEX
  5
6E3
  8
0
 10
969.30268280123
 20
772.5318452169869
 30
0.0
  0
VERTEX
  5
6E4
  8
0
 10
969.1580136153989
 20
772.6798825579976
 30
0.0
  0
VERTEX
  5
6E5
  8
0
 10
969.0210496612799
 20
772.8407927112702
 30
0.0
  0
VERTEX
  5
6E6
  8
0
 10
968.8917909388733
 20
773.0145756768046
 30
0.0
  0
VERTEX
  5
6E7
  8
0
 10
968.7702374481789
 20
773.2012314546009
 30
0.0
  0
VERTEX
  5
6E8
  8
0
 10
968.6563891891967
 20
773.4007600446589
 30
0.0
  0
VERTEX
  5
6E9
  8
0
 10
968.5502461619269
 20
773.6131614469787
 30
0.0
  0
VERTEX
  5
6EA
  8
0
 10
968.4518083663693
 20
773.8384356615604
 30
0.0
  0
VERTEX
  5
6EB
  8
0
 10
968.3610758025238
 20
774.076582688404
 30
0.0
  0
VERTEX
  5
6EC
  8
0
 10
968.2780484703908
 20
774.3276025275093
 30
0.0
  0
VERTEX
  5
6ED
  8
0
 10
968.20272636997
 20
774.5914951788764
 30
0.0
  0
VERTEX
  5
6EE
  8
0
 10
968.1351095012615
 20
774.8682606425054
 30
0.0
  0
VERTEX
  5
6EF
  8
0
 10
968.0751978642652
 20
775.1578989183961
 30
0.0
  0
VERTEX
  5
6F0
  8
0
 10
968.0229914589812
 20
775.4604100065486
 30
0.0
  0
VERTEX
  5
6F1
  8
0
 10
967.9784902854096
 20
775.7757939069629
 30
0.0
  0
VERTEX
  5
6F2
  8
0
 10
967.9416943435501
 20
776.104050619639
 30
0.0
  0
VERTEX
  5
6F3
  8
0
 10
967.9126036334029
 20
776.445180144577
 30
0.0
  0
VERTEX
  5
6F4
  8
0
 10
967.8912181549679
 20
776.7991824817768
 30
0.0
  0
VERTEX
  5
6F5
  8
0
 10
967.8775379082451
 20
777.1660576312385
 30
0.0
  0
VERTEX
  5
6F6
  8
0
 10
967.8715628932348
 20
777.5458055929619
 30
0.0
  0
VERTEX
  5
6F7
  8
0
 10
967.8732931099368
 20
777.938426366947
 30
0.0
  0
VERTEX
  5
6F8
  8
0
 10
967.8827285583508
 20
778.343919953194
 30
0.0
  0
VERTEX
  5
6F9
  8
0
 10
967.2978691740113
 20
777.5270731134697
 30
0.0
  0
VERTEX
  5
6FA
  8
0
 10
966.7244522894603
 20
776.7655932082048
 30
0.0
  0
VERTEX
  5
6FB
  8
0
 10
966.1624779046974
 20
776.0594802373993
 30
0.0
  0
VERTEX
  5
6FC
  8
0
 10
965.6119460197228
 20
775.4087342010531
 30
0.0
  0
VERTEX
  5
6FD
  8
0
 10
965.0728566345365
 20
774.8133550991663
 30
0.0
  0
VERTEX
  5
6FE
  8
0
 10
964.8076028793639
 20
774.5364281486454
 30
0.0
  0
VERTEX
  5
6FF
  8
0
 10
964.5452097491384
 20
774.2733429317391
 30
0.0
  0
VERTEX
  5
700
  8
0
 10
964.2856772438599
 20
774.0240994484477
 30
0.0
  0
VERTEX
  5
701
  8
0
 10
964.0290053635285
 20
773.7886976987711
 30
0.0
  0
VERTEX
  5
702
  8
0
 10
963.7751941081442
 20
773.5671376827095
 30
0.0
  0
VERTEX
  5
703
  8
0
 10
963.5242434777072
 20
773.3594194002626
 30
0.0
  0
VERTEX
  5
704
  8
0
 10
963.274215629511
 20
773.164896903862
 30
0.0
  0
VERTEX
  5
705
  8
0
 10
963.0231727208496
 20
772.9829242459388
 30
0.0
  0
VERTEX
  5
706
  8
0
 10
962.7711147517232
 20
772.813501426493
 30
0.0
  0
VERTEX
  5
707
  8
0
 10
962.5180417221318
 20
772.6566284455247
 30
0.0
  0
VERTEX
  5
708
  8
0
 10
962.2639536320752
 20
772.5123053030339
 30
0.0
  0
VERTEX
  5
709
  8
0
 10
962.0088504815535
 20
772.3805319990206
 30
0.0
  0
VERTEX
  5
70A
  8
0
 10
961.7527322705666
 20
772.2613085334847
 30
0.0
  0
VERTEX
  5
70B
  8
0
 10
961.4955989991148
 20
772.1546349064262
 30
0.0
  0
VERTEX
  5
70C
  8
0
 10
961.2374506671979
 20
772.0605111178452
 30
0.0
  0
VERTEX
  5
70D
  8
0
 10
960.9782872748158
 20
771.9789371677416
 30
0.0
  0
VERTEX
  5
70E
  8
0
 10
960.7181088219687
 20
771.9099130561156
 30
0.0
  0
VERTEX
  5
70F
  8
0
 10
960.4569153086566
 20
771.8534387829669
 30
0.0
  0
VERTEX
  5
710
  8
0
 10
960.1947067348792
 20
771.8095143482958
 30
0.0
  0
VERTEX
  5
711
  8
0
 10
959.9314831006368
 20
771.7781397521022
 30
0.0
  0
VERTEX
  5
712
  8
0
 10
959.6672444059293
 20
771.759314994386
 30
0.0
  0
VERTEX
  5
713
  8
0
 10
959.4019906507567
 20
771.7530400751473
 30
0.0
  0
VERTEX
  5
714
  8
0
 10
959.1445805446325
 20
771.7606530286355
 30
0.0
  0
VERTEX
  5
715
  8
0
 10
958.8920611843856
 20
771.7834918891
 30
0.0
  0
VERTEX
  5
716
  8
0
 10
958.644432570016
 20
771.8215566565409
 30
0.0
  0
VERTEX
  5
717
  8
0
 10
958.4016947015236
 20
771.874847330958
 30
0.0
  0
VERTEX
  5
718
  8
0
 10
958.1638475789084
 20
771.9433639123515
 30
0.0
  0
VERTEX
  5
719
  8
0
 10
957.9308912021705
 20
772.0271064007213
 30
0.0
  0
VERTEX
  5
71A
  8
0
 10
957.7028255713099
 20
772.1260747960674
 30
0.0
  0
VERTEX
  5
71B
  8
0
 10
957.4796506863265
 20
772.24026909839
 30
0.0
  0
VERTEX
  5
71C
  8
0
 10
957.2613665472203
 20
772.3696893076888
 30
0.0
  0
VERTEX
  5
71D
  8
0
 10
957.0479731539914
 20
772.514335423964
 30
0.0
  0
VERTEX
  5
71E
  8
0
 10
956.8394705066397
 20
772.6742074472155
 30
0.0
  0
VERTEX
  5
71F
  8
0
 10
956.6358586051654
 20
772.8493053774434
 30
0.0
  0
VERTEX
  5
720
  8
0
 10
956.4371374495681
 20
773.0396292146477
 30
0.0
  0
VERTEX
  5
721
  8
0
 10
956.2433070398481
 20
773.2451789588281
 30
0.0
  0
VERTEX
  5
722
  8
0
 10
956.0543673760054
 20
773.465954609985
 30
0.0
  0
VERTEX
  5
723
  8
0
 10
955.8703184580401
 20
773.7019561681182
 30
0.0
  0
VERTEX
  5
724
  8
0
 10
955.7319435724339
 20
773.8943358603756
 30
0.0
  0
VERTEX
  5
725
  8
0
 10
955.6004937462169
 20
774.0909358342367
 30
0.0
  0
VERTEX
  5
726
  8
0
 10
955.475970399821
 20
774.291754640234
 30
0.0
  0
VERTEX
  5
727
  8
0
 10
955.3583749536778
 20
774.4967908288997
 30
0.0
  0
VERTEX
  5
728
  8
0
 10
955.2477088282193
 20
774.7060429507665
 30
0.0
  0
VERTEX
  5
729
  8
0
 10
955.1439734438776
 20
774.9195095563664
 30
0.0
  0
VERTEX
  5
72A
  8
0
 10
955.0471702210843
 20
775.1371891962319
 30
0.0
  0
VERTEX
  5
72B
  8
0
 10
954.9573005802714
 20
775.3590804208955
 30
0.0
  0
VERTEX
  5
72C
  8
0
 10
954.8743659418708
 20
775.5851817808892
 30
0.0
  0
VERTEX
  5
72D
  8
0
 10
954.7983677263144
 20
775.8154918267456
 30
0.0
  0
VERTEX
  5
72E
  8
0
 10
954.7293073540338
 20
776.050009108997
 30
0.0
  0
VERTEX
  5
72F
  8
0
 10
954.6671862454614
 20
776.2887321781757
 30
0.0
  0
VERTEX
  5
730
  8
0
 10
954.6120058210288
 20
776.531659584814
 30
0.0
  0
VERTEX
  5
731
  8
0
 10
954.563767501168
 20
776.7787898794445
 30
0.0
  0
VERTEX
  5
732
  8
0
 10
954.4881228568888
 20
777.2856533348112
 30
0.0
  0
VERTEX
  5
733
  8
0
 10
953.7931476411741
 20
776.6135276980958
 30
0.0
  0
VERTEX
  5
734
  8
0
 10
953.1212356901898
 20
775.9860671722746
 30
0.0
  0
VERTEX
  5
735
  8
0
 10
952.4723983673912
 20
775.4032601616067
 30
0.0
  0
VERTEX
  5
736
  8
0
 10
951.8466470362332
 20
774.8650950703507
 30
0.0
  0
VERTEX
  5
737
  8
0
 10
951.2439930601711
 20
774.3715603027654
 30
0.0
  0
VERTEX
  5
738
  8
0
 10
950.6644478026599
 20
773.92264426311
 30
0.0
  0
VERTEX
  5
739
  8
0
 10
950.1080226271546
 20
773.5183353556429
 30
0.0
  0
VERTEX
  5
73A
  8
0
 10
949.5747288971103
 20
773.1586219846232
 30
0.0
  0
VERTEX
  5
73B
  8
0
 10
949.3038923093798
 20
772.9884148002726
 30
0.0
  0
VERTEX
  5
73C
  8
0
 10
949.0347167296829
 20
772.8291887245898
 30
0.0
  0
VERTEX
  5
73D
  8
0
 10
948.76720215802
 20
772.6809437575748
 30
0.0
  0
VERTEX
  5
73E
  8
0
 10
948.5013485943908
 20
772.5436798992275
 30
0.0
  0
VERTEX
  5
73F
  8
0
 10
948.2371560387954
 20
772.417397149548
 30
0.0
  0
VERTEX
  5
740
  8
0
 10
947.9746244912337
 20
772.3020955085364
 30
0.0
  0
VERTEX
  5
741
  8
0
 10
947.7137539517059
 20
772.1977749761925
 30
0.0
  0
VERTEX
  5
742
  8
0
 10
947.4545444202118
 20
772.1044355525163
 30
0.0
  0
VERTEX
  5
743
  8
0
 10
947.1969958967517
 20
772.0220772375079
 30
0.0
  0
VERTEX
  5
744
  8
0
 10
946.9411083813251
 20
771.9507000311673
 30
0.0
  0
VERTEX
  5
745
  8
0
 10
946.6868818739323
 20
771.8903039334946
 30
0.0
  0
VERTEX
  5
746
  8
0
 10
946.4343163745733
 20
771.8408889444895
 30
0.0
  0
VERTEX
  5
747
  8
0
 10
946.1834118832481
 20
771.8024550641524
 30
0.0
  0
VERTEX
  5
748
  8
0
 10
945.9341683999568
 20
771.7750022924829
 30
0.0
  0
VERTEX
  5
749
  8
0
 10
945.6865859246992
 20
771.7585306294811
 30
0.0
  0
VERTEX
  5
74A
  8
0
 10
945.4406644574753
 20
771.7530400751473
 30
0.0
  0
VERTEX
  5
74B
  8
0
 10
945.1897138270382
 20
771.7597302463945
 30
0.0
  0
VERTEX
  5
74C
  8
0
 10
944.9447612811674
 20
771.7798007601359
 30
0.0
  0
VERTEX
  5
74D
  8
0
 10
944.705806819863
 20
771.8132516163719
 30
0.0
  0
VERTEX
  5
74E
  8
0
 10
944.472850443125
 20
771.8600828151021
 30
0.0
  0
VERTEX
  5
74F
  8
0
 10
944.2458921509535
 20
771.9202943563268
 30
0.0
  0
VERTEX
  5
750
  8
0
 10
944.0249319433485
 20
771.9938862400456
 30
0.0
  0
VERTEX
  5
751
  8
0
 10
943.8099698203099
 20
772.0808584662591
 30
0.0
  0
VERTEX
  5
752
  8
0
 10
943.6010057818378
 20
772.1812110349667
 30
0.0
  0
VERTEX
  5
753
  8
0
 10
943.398039827932
 20
772.2949439461688
 30
0.0
  0
VERTEX
  5
754
  8
0
 10
943.2010719585928
 20
772.4220571998651
 30
0.0
  0
VERTEX
  5
755
  8
0
 10
943.0101021738199
 20
772.5625507960558
 30
0.0
  0
VERTEX
  5
756
  8
0
 10
942.8251304736134
 20
772.7164247347408
 30
0.0
  0
VERTEX
  5
757
  8
0
 10
942.6461568579734
 20
772.8836790159203
 30
0.0
  0
VERTEX
  5
758
  8
0
 10
942.4731813269
 20
773.064313639594
 30
0.0
  0
VERTEX
  5
759
  8
0
 10
942.3062038803928
 20
773.2583286057622
 30
0.0
  0
VERTEX
  5
75A
  8
0
 10
942.1452245184521
 20
773.4657239144246
 30
0.0
  0
VERTEX
  5
75B
  8
0
 10
942.0106573981957
 20
773.656432696819
 30
0.0
  0
VERTEX
  5
75C
  8
0
 10
941.883663648189
 20
773.8535819465899
 30
0.0
  0
VERTEX
  5
75D
  8
0
 10
941.764243810338
 20
774.0571716883167
 30
0.0
  0
VERTEX
  5
75E
  8
0
 10
941.6523984265486
 20
774.2672019465783
 30
0.0
  0
VERTEX
  5
75F
  8
0
 10
941.5481280387264
 20
774.4836727459541
 30
0.0
  0
VERTEX
  5
760
  8
0
 10
941.4514331887773
 20
774.7065841110233
 30
0.0
  0
VERTEX
  5
761
  8
0
 10
941.3623144186067
 20
774.9359360663649
 30
0.0
  0
VERTEX
  5
762
  8
0
 10
941.2807722701207
 20
775.171728636558
 30
0.0
  0
VERTEX
  5
763
  8
0
 10
941.206807285225
 20
775.4139618461819
 30
0.0
  0
VERTEX
  5
764
  8
0
 10
941.1404200058251
 20
775.6626357198161
 30
0.0
  0
VERTEX
  5
765
  8
0
 10
941.0816109738271
 20
775.9177502820393
 30
0.0
  0
VERTEX
  5
766
  8
0
 10
941.0303807311366
 20
776.1793055574309
 30
0.0
  0
VERTEX
  5
767
  8
0
 10
940.9867298196593
 20
776.4473015705701
 30
0.0
  0
VERTEX
  5
768
  8
0
 10
940.9506587813011
 20
776.721738346036
 30
0.0
  0
VERTEX
  5
769
  8
0
 10
940.9221681579676
 20
777.0026159084077
 30
0.0
  0
VERTEX
  5
76A
  8
0
 10
940.9012584915646
 20
777.2899342822648
 30
0.0
  0
VERTEX
  5
76B
  8
0
 10
940.034793599623
 20
776.4770191645379
 30
0.0
  0
VERTEX
  5
76C
  8
0
 10
939.2312478755694
 20
775.7374284786043
 30
0.0
  0
VERTEX
  5
76D
  8
0
 10
938.4906256546499
 20
775.0711624210976
 30
0.0
  0
VERTEX
  5
76E
  8
0
 10
937.8129312721105
 20
774.4782211886513
 30
0.0
  0
VERTEX
  5
76F
  8
0
 10
937.1981690631974
 20
773.9586049778986
 30
0.0
  0
VERTEX
  5
770
  8
0
 10
936.6463433631563
 20
773.5123139854732
 30
0.0
  0
VERTEX
  5
771
  8
0
 10
936.1574585072337
 20
773.1393484080081
 30
0.0
  0
VERTEX
  5
772
  8
0
 10
935.7315188306754
 20
772.8397084421372
 30
0.0
  0
VERTEX
  5
773
  8
0
 10
935.3262328704327
 20
772.5850205436241
 30
0.0
  0
VERTEX
  5
774
  8
0
 10
934.9253762649466
 20
772.3642910315791
 30
0.0
  0
VERTEX
  5
775
  8
0
 10
934.5289490142173
 20
772.1775199060028
 30
0.0
  0
VERTEX
  5
776
  8
0
 10
934.3323963968865
 20
772.0968687381401
 30
0.0
  0
VERTEX
  5
777
  8
0
 10
934.1369511182448
 20
772.0247071668947
 30
0.0
  0
VERTEX
  5
778
  8
0
 10
933.9426131782923
 20
771.9610351922664
 30
0.0
  0
VERTEX
  5
779
  8
0
 10
933.7493825770291
 20
771.9058528142552
 30
0.0
  0
VERTEX
  5
77A
  8
0
 10
933.557259314455
 20
771.8591600328612
 30
0.0
  0
VERTEX
  5
77B
  8
0
 10
933.36624339057
 20
771.8209568480842
 30
0.0
  0
VERTEX
  5
77C
  8
0
 10
933.1763348053744
 20
771.7912432599243
 30
0.0
  0
VERTEX
  5
77D
  8
0
 10
932.9875335588678
 20
771.7700192683816
 30
0.0
  0
VERTEX
  5
77E
  8
0
 10
932.7998396510504
 20
771.7572848734559
 30
0.0
  0
VERTEX
  5
77F
  8
0
 10
932.6132530819223
 20
771.7530400751473
 30
0.0
  0
VERTEX
  5
780
  8
0
 10
932.3838263472562
 20
771.7594764812782
 30
0.0
  0
VERTEX
  5
781
  8
0
 10
932.1621048443023
 20
771.7787856996708
 30
0.0
  0
VERTEX
  5
782
  8
0
 10
931.9480885730608
 20
771.8109677303255
 30
0.0
  0
VERTEX
  5
783
  8
0
 10
931.7417775335314
 20
771.8560225732417
 30
0.0
  0
VERTEX
  5
784
  8
0
 10
931.5431717257143
 20
771.9139502284199
 30
0.0
  0
VERTEX
  5
785
  8
0
 10
931.3522711496096
 20
771.9847506958598
 30
0.0
  0
VERTEX
  5
786
  8
0
 10
931.1690758052171
 20
772.0684239755616
 30
0.0
  0
VERTEX
  5
787
  8
0
 10
930.9935856925367
 20
772.1649700675252
 30
0.0
  0
VERTEX
  5
788
  8
0
 10
930.8258008115688
 20
772.2743889717507
 30
0.0
  0
VERTEX
  5
789
  8
0
 10
930.665721162313
 20
772.3966806882379
 30
0.0
  0
VERTEX
  5
78A
  8
0
 10
930.5133467447695
 20
772.5318452169869
 30
0.0
  0
VERTEX
  5
78B
  8
0
 10
930.3686775589383
 20
772.6798825579976
 30
0.0
  0
VERTEX
  5
78C
  8
0
 10
930.2317136048193
 20
772.8407927112702
 30
0.0
  0
VERTEX
  5
78D
  8
0
 10
930.1024548824128
 20
773.0145756768046
 30
0.0
  0
VERTEX
  5
78E
  8
0
 10
929.9809013917184
 20
773.2012314546009
 30
0.0
  0
VERTEX
  5
78F
  8
0
 10
929.8670531327361
 20
773.4007600446589
 30
0.0
  0
VERTEX
  5
790
  8
0
 10
929.7609101054663
 20
773.6131614469787
 30
0.0
  0
VERTEX
  5
791
  8
0
 10
929.6624723099087
 20
773.8384356615604
 30
0.0
  0
VERTEX
  5
792
  8
0
 10
929.5717397460633
 20
774.076582688404
 30
0.0
  0
VERTEX
  5
793
  8
0
 10
929.4887124139302
 20
774.3276025275093
 30
0.0
  0
VERTEX
  5
794
  8
0
 10
929.4133903135095
 20
774.5914951788764
 30
0.0
  0
VERTEX
  5
795
  8
0
 10
929.3457734448009
 20
774.8682606425054
 30
0.0
  0
VERTEX
  5
796
  8
0
 10
929.2858618078046
 20
775.1578989183961
 30
0.0
  0
VERTEX
  5
797
  8
0
 10
929.2336554025206
 20
775.4604100065486
 30
0.0
  0
VERTEX
  5
798
  8
0
 10
929.1891542289491
 20
775.7757939069629
 30
0.0
  0
VERTEX
  5
799
  8
0
 10
929.1523582870896
 20
776.104050619639
 30
0.0
  0
VERTEX
  5
79A
  8
0
 10
929.1232675769423
 20
776.445180144577
 30
0.0
  0
VERTEX
  5
79B
  8
0
 10
929.1018820985073
 20
776.7991824817768
 30
0.0
  0
VERTEX
  5
79C
  8
0
 10
929.0882018517846
 20
777.1660576312385
 30
0.0
  0
VERTEX
  5
79D
  8
0
 10
929.0822268367742
 20
777.5458055929619
 30
0.0
  0
VERTEX
  5
79E
  8
0
 10
929.0839570534762
 20
777.938426366947
 30
0.0
  0
VERTEX
  5
79F
  8
0
 10
929.0933925018902
 20
778.343919953194
 30
0.0
  0
VERTEX
  5
7A0
  8
0
 10
928.5085331175508
 20
777.5270731134697
 30
0.0
  0
VERTEX
  5
7A1
  8
0
 10
927.9351162329997
 20
776.7655932082048
 30
0.0
  0
VERTEX
  5
7A2
  8
0
 10
927.3731418482369
 20
776.0594802373993
 30
0.0
  0
VERTEX
  5
7A3
  8
0
 10
926.8226099632623
 20
775.4087342010531
 30
0.0
  0
VERTEX
  5
7A4
  8
0
 10
926.2835205780759
 20
774.8133550991663
 30
0.0
  0
VERTEX
  5
7A5
  8
0
 10
926.0182668229033
 20
774.5364281486454
 30
0.0
  0
VERTEX
  5
7A6
  8
0
 10
925.7558736926778
 20
774.2733429317391
 30
0.0
  0
VERTEX
  5
7A7
  8
0
 10
925.4963411873994
 20
774.0240994484477
 30
0.0
  0
VERTEX
  5
7A8
  8
0
 10
925.239669307068
 20
773.7886976987711
 30
0.0
  0
VERTEX
  5
7A9
  8
0
 10
924.9858580516836
 20
773.5671376827095
 30
0.0
  0
VERTEX
  5
7AA
  8
0
 10
924.7349074212466
 20
773.3594194002626
 30
0.0
  0
VERTEX
  5
7AB
  8
0
 10
924.4848795730504
 20
773.164896903862
 30
0.0
  0
VERTEX
  5
7AC
  8
0
 10
924.2338366643891
 20
772.9829242459388
 30
0.0
  0
VERTEX
  5
7AD
  8
0
 10
923.9817786952626
 20
772.813501426493
 30
0.0
  0
VERTEX
  5
7AE
  8
0
 10
923.7287056656712
 20
772.6566284455247
 30
0.0
  0
VERTEX
  5
7AF
  8
0
 10
923.4746175756146
 20
772.5123053030339
 30
0.0
  0
VERTEX
  5
7B0
  8
0
 10
923.2195144250929
 20
772.3805319990206
 30
0.0
  0
VERTEX
  5
7B1
  8
0
 10
922.9633962141061
 20
772.2613085334847
 30
0.0
  0
VERTEX
  5
7B2
  8
0
 10
922.7062629426542
 20
772.1546349064262
 30
0.0
  0
VERTEX
  5
7B3
  8
0
 10
922.4481146107373
 20
772.0605111178452
 30
0.0
  0
VERTEX
  5
7B4
  8
0
 10
922.1889512183552
 20
771.9789371677416
 30
0.0
  0
VERTEX
  5
7B5
  8
0
 10
921.9287727655081
 20
771.9099130561156
 30
0.0
  0
VERTEX
  5
7B6
  8
0
 10
921.667579252196
 20
771.8534387829669
 30
0.0
  0
VERTEX
  5
7B7
  8
0
 10
921.4053706784186
 20
771.8095143482958
 30
0.0
  0
VERTEX
  5
7B8
  8
0
 10
921.1421470441762
 20
771.7781397521022
 30
0.0
  0
VERTEX
  5
7B9
  8
0
 10
920.8779083494687
 20
771.759314994386
 30
0.0
  0
VERTEX
  5
7BA
  8
0
 10
920.6126545942961
 20
771.7530400751473
 30
0.0
  0
VERTEX
  5
7BB
  8
0
 10
920.3552444881719
 20
771.7606530286355
 30
0.0
  0
VERTEX
  5
7BC
  8
0
 10
920.102725127925
 20
771.7834918891
 30
0.0
  0
VERTEX
  5
7BD
  8
0
 10
919.8550965135554
 20
771.8215566565409
 30
0.0
  0
VERTEX
  5
7BE
  8
0
 10
919.6123586450631
 20
771.874847330958
 30
0.0
  0
VERTEX
  5
7BF
  8
0
 10
919.3745115224478
 20
771.9433639123515
 30
0.0
  0
VERTEX
  5
7C0
  8
0
 10
919.14155514571
 20
772.0271064007213
 30
0.0
  0
VERTEX
  5
7C1
  8
0
 10
918.9134895148493
 20
772.1260747960674
 30
0.0
  0
VERTEX
  5
7C2
  8
0
 10
918.690314629866
 20
772.24026909839
 30
0.0
  0
VERTEX
  5
7C3
  8
0
 10
918.4720304907597
 20
772.3696893076888
 30
0.0
  0
VERTEX
  5
7C4
  8
0
 10
918.2586370975308
 20
772.514335423964
 30
0.0
  0
VERTEX
  5
7C5
  8
0
 10
918.0501344501791
 20
772.6742074472155
 30
0.0
  0
VERTEX
  5
7C6
  8
0
 10
917.8465225487048
 20
772.8493053774434
 30
0.0
  0
VERTEX
  5
7C7
  8
0
 10
917.6478013931076
 20
773.0396292146477
 30
0.0
  0
VERTEX
  5
7C8
  8
0
 10
917.4539709833875
 20
773.2451789588281
 30
0.0
  0
VERTEX
  5
7C9
  8
0
 10
917.2650313195448
 20
773.465954609985
 30
0.0
  0
VERTEX
  5
7CA
  8
0
 10
917.0809824015795
 20
773.7019561681182
 30
0.0
  0
VERTEX
  5
7CB
  8
0
 10
916.9430592831689
 20
773.8936851619258
 30
0.0
  0
VERTEX
  5
7CC
  8
0
 10
916.8120157906627
 20
774.0896079454762
 30
0.0
  0
VERTEX
  5
7CD
  8
0
 10
916.6878541837349
 20
774.2897247925175
 30
0.0
  0
VERTEX
  5
7CE
  8
0
 10
916.5705767220588
 20
774.4940359767977
 30
0.0
  0
VERTEX
  5
7CF
  8
0
 10
916.4601856653082
 20
774.7025417720652
 30
0.0
  0
VERTEX
  5
7D0
  8
0
 10
916.3566832731566
 20
774.9152424520679
 30
0.0
  0
VERTEX
  5
7D1
  8
0
 10
916.2600718052774
 20
775.1321382905542
 30
0.0
  0
VERTEX
  5
7D2
  8
0
 10
916.1703535213445
 20
775.353229561272
 30
0.0
  0
VERTEX
  5
7D3
  8
0
 10
916.0875306810314
 20
775.5785165379696
 30
0.0
  0
VERTEX
  5
7D4
  8
0
 10
916.0116055440116
 20
775.8079994943952
 30
0.0
  0
VERTEX
  5
7D5
  8
0
 10
915.9425803699588
 20
776.0416787042968
 30
0.0
  0
VERTEX
  5
7D6
  8
0
 10
915.8804574185465
 20
776.2795544414228
 30
0.0
  0
VERTEX
  5
7D7
  8
0
 10
915.8252389494482
 20
776.5216269795212
 30
0.0
  0
VERTEX
  5
7D8
  8
0
 10
915.7769272223378
 20
776.7678965923401
 30
0.0
  0
VERTEX
  5
7D9
  8
0
 10
915.7010330327745
 20
777.2730281371325
 30
0.0
  0
VERTEX
  5
7DA
  8
0
 10
915.043682297955
 20
776.6046023483074
 30
0.0
  0
VERTEX
  5
7DB
  8
0
 10
914.3979629967357
 20
775.9792988199843
 30
0.0
  0
VERTEX
  5
7DC
  8
0
 10
913.7638773887903
 20
775.3971178259114
 30
0.0
  0
VERTEX
  5
7DD
  8
0
 10
913.1414277337924
 20
774.858059639837
 30
0.0
  0
VERTEX
  5
7DE
  8
0
 10
912.5306162914155
 20
774.3621245355092
 30
0.0
  0
VERTEX
  5
7DF
  8
0
 10
911.9314453213334
 20
773.9093127866761
 30
0.0
  0
VERTEX
  5
7E0
  8
0
 10
911.3439170832194
 20
773.4996246670858
 30
0.0
  0
VERTEX
  5
7E1
  8
0
 10
911.0545196947985
 20
773.3109520538029
 30
0.0
  0
VERTEX
  5
7E2
  8
0
 10
910.7680338367472
 20
773.1330604504864
 30
0.0
  0
VERTEX
  5
7E3
  8
0
 10
910.4844597915248
 20
772.9659498913546
 30
0.0
  0
VERTEX
  5
7E4
  8
0
 10
910.2037978415905
 20
772.8096204106262
 30
0.0
  0
VERTEX
  5
7E5
  8
0
 10
909.9260482694034
 20
772.6640720425196
 30
0.0
  0
VERTEX
  5
7E6
  8
0
 10
909.6512113574228
 20
772.5293048212534
 30
0.0
  0
VERTEX
  5
7E7
  8
0
 10
909.3792873881077
 20
772.405318781046
 30
0.0
  0
VERTEX
  5
7E8
  8
0
 10
909.1102766439176
 20
772.292113956116
 30
0.0
  0
VERTEX
  5
7E9
  8
0
 10
908.8441794073115
 20
772.1896903806819
 30
0.0
  0
VERTEX
  5
7EA
  8
0
 10
908.5809959607486
 20
772.0980480889623
 30
0.0
  0
VERTEX
  5
7EB
  8
0
 10
908.3207265866882
 20
772.0171871151756
 30
0.0
  0
VERTEX
  5
7EC
  8
0
 10
908.0633715675896
 20
771.9471074935404
 30
0.0
  0
VERTEX
  5
7ED
  8
0
 10
907.8089311859117
 20
771.8878092582752
 30
0.0
  0
VERTEX
  5
7EE
  8
0
 10
907.5574057241138
 20
771.8392924435985
 30
0.0
  0
VERTEX
  5
7EF
  8
0
 10
907.3087954646551
 20
771.8015570837288
 30
0.0
  0
VERTEX
  5
7F0
  8
0
 10
907.0631006899949
 20
771.7746032128848
 30
0.0
  0
VERTEX
  5
7F1
  8
0
 10
906.8203216825924
 20
771.7584308652847
 30
0.0
  0
VERTEX
  5
7F2
  8
0
 10
906.5804587249067
 20
771.7530400751473
 30
0.0
  0
VERTEX
  5
7F3
  8
0
 10
906.385013446265
 20
771.75737715168
 30
0.0
  0
VERTEX
  5
7F4
  8
0
 10
906.1943666352765
 20
771.7703883812779
 30
0.0
  0
VERTEX
  5
7F5
  8
0
 10
906.0085182919411
 20
771.7920737639413
 30
0.0
  0
VERTEX
  5
7F6
  8
0
 10
905.8274684162589
 20
771.8224332996698
 30
0.0
  0
VERTEX
  5
7F7
  8
0
 10
905.6512170082299
 20
771.8614669884637
 30
0.0
  0
VERTEX
  5
7F8
  8
0
 10
905.4797640678539
 20
771.9091748303229
 30
0.0
  0
VERTEX
  5
7F9
  8
0
 10
905.3131095951312
 20
771.9655568252473
 30
0.0
  0
VERTEX
  5
7FA
  8
0
 10
905.1512535900615
 20
772.0306129732371
 30
0.0
  0
VERTEX
  5
7FB
  8
0
 10
904.9941960526451
 20
772.1043432742922
 30
0.0
  0
VERTEX
  5
7FC
  8
0
 10
904.8419369828816
 20
772.1867477284126
 30
0.0
  0
VERTEX
  5
7FD
  8
0
 10
904.6944763807714
 20
772.2778263355983
 30
0.0
  0
VERTEX
  5
7FE
  8
0
 10
904.5518142463143
 20
772.3775790958493
 30
0.0
  0
VERTEX
  5
7FF
  8
0
 10
904.4139505795104
 20
772.4860060091656
 30
0.0
  0
VERTEX
  5
800
  8
0
 10
904.2808853803597
 20
772.6031070755472
 30
0.0
  0
VERTEX
  5
801
  8
0
 10
904.152618648862
 20
772.7288822949942
 30
0.0
  0
VERTEX
  5
802
  8
0
 10
904.0291503850176
 20
772.8633316675064
 30
0.0
  0
VERTEX
  5
803
  8
0
 10
903.9118647621879
 20
773.0050710197224
 30
0.0
  0
VERTEX
  5
804
  8
0
 10
903.8021459537341
 20
773.1527161782809
 30
0.0
  0
VERTEX
  5
805
  8
0
 10
903.6999939596565
 20
773.3062671431817
 30
0.0
  0
VERTEX
  5
806
  8
0
 10
903.605408779955
 20
773.4657239144248
 30
0.0
  0
VERTEX
  5
807
  8
0
 10
903.5183904146297
 20
773.6310864920101
 30
0.0
  0
VERTEX
  5
808
  8
0
 10
903.4389388636805
 20
773.8023548759379
 30
0.0
  0
VERTEX
  5
809
  8
0
 10
903.3670541271074
 20
773.979529066208
 30
0.0
  0
VERTEX
  5
80A
  8
0
 10
903.3027362049104
 20
774.1626090628204
 30
0.0
  0
VERTEX
  5
80B
  8
0
 10
903.2459850970895
 20
774.351594865775
 30
0.0
  0
VERTEX
  5
80C
  8
0
 10
903.1968008036447
 20
774.5464864750722
 30
0.0
  0
VERTEX
  5
80D
  8
0
 10
903.155183324576
 20
774.7472838907116
 30
0.0
  0
VERTEX
  5
80E
  8
0
 10
903.1211326598834
 20
774.9539871126934
 30
0.0
  0
VERTEX
  5
80F
  8
0
 10
903.094648809567
 20
775.1665961410176
 30
0.0
  0
VERTEX
  5
810
  8
0
 10
903.0757317736268
 20
775.3851109756839
 30
0.0
  0
VERTEX
  5
811
  8
0
 10
903.0643815520626
 20
775.6095316166927
 30
0.0
  0
VERTEX
  5
812
  8
0
 10
903.0605981448746
 20
775.8398580640437
 30
0.0
  0
VERTEX
  5
813
  8
0
 10
903.0687186285952
 20
776.1662461426819
 30
0.0
  0
VERTEX
  5
814
  8
0
 10
903.0930800797574
 20
776.5134890999664
 30
0.0
  0
VERTEX
  5
815
  8
0
 10
903.1336824983609
 20
776.8815869358973
 30
0.0
  0
VERTEX
  5
816
  8
0
 10
903.190525884406
 20
777.2705396504745
 30
0.0
  0
VERTEX
  5
817
  8
0
 10
903.2636102378924
 20
777.6803472436982
 30
0.0
  0
VERTEX
  5
818
  8
0
 10
903.3529355588203
 20
778.1110097155681
 30
0.0
  0
VERTEX
  5
819
  8
0
 10
903.4585018471894
 20
778.5625270660846
 30
0.0
  0
VERTEX
  5
81A
  8
0
 10
903.5803091030001
 20
779.0348992952472
 30
0.0
  0
VERTEX
  5
81B
  8
0
 10
903.7183573262521
 20
779.5281264030564
 30
0.0
  0
VERTEX
  5
81C
  8
0
 10
903.8726465169457
 20
780.0422083895119
 30
0.0
  0
VERTEX
  5
81D
  8
0
 10
904.0431766750806
 20
780.5771452546138
 30
0.0
  0
VERTEX
  5
81E
  8
0
 10
904.2299478006571
 20
781.132936998362
 30
0.0
  0
VERTEX
  5
81F
  8
0
 10
904.4329598936749
 20
781.7095836207566
 30
0.0
  0
VERTEX
  5
820
  8
0
 10
904.652212954134
 20
782.3070851217976
 30
0.0
  0
VERTEX
  5
821
  8
0
 10
904.8877069820347
 20
782.925441501485
 30
0.0
  0
VERTEX
  5
822
  8
0
 10
905.1394419773768
 20
783.5646527598187
 30
0.0
  0
VERTEX
  5
823
  8
0
 10
905.3996665693359
 20
784.2297941991242
 30
0.0
  0
VERTEX
  5
824
  8
0
 10
905.6251945490338
 20
784.8314482202497
 30
0.0
  0
VERTEX
  5
825
  8
0
 10
905.8160259164706
 20
785.369614823195
 30
0.0
  0
VERTEX
  5
826
  8
0
 10
905.9721606716462
 20
785.8442940079602
 30
0.0
  0
VERTEX
  5
827
  8
0
 10
906.0935988145604
 20
786.2554857745454
 30
0.0
  0
VERTEX
  5
828
  8
0
 10
906.1803403452135
 20
786.6031901229503
 30
0.0
  0
VERTEX
  5
829
  8
0
 10
906.2323852636052
 20
786.8874070531754
 30
0.0
  0
VERTEX
  5
82A
  8
0
 10
906.2497335697359
 20
787.1081365652201
 30
0.0
  0
VERTEX
  5
82B
  8
0
 10
906.240505747326
 20
787.2853107554902
 30
0.0
  0
VERTEX
  5
82C
  8
0
 10
906.2128222800962
 20
787.4388617203908
 30
0.0
  0
VERTEX
  5
82D
  8
0
 10
906.1666831680468
 20
787.5687894599223
 30
0.0
  0
VERTEX
  5
82E
  8
0
 10
906.1020884111774
 20
787.6750939740843
 30
0.0
  0
VERTEX
  5
82F
  8
0
 10
906.0190380094884
 20
787.757775262877
 30
0.0
  0
VERTEX
  5
830
  8
0
 10
905.9175319629795
 20
787.8168333263003
 30
0.0
  0
VERTEX
  5
831
  8
0
 10
905.7975702716509
 20
787.8522681643543
 30
0.0
  0
VERTEX
  5
832
  8
0
 10
905.6591529355023
 20
787.864079777039
 30
0.0
  0
VERTEX
  5
833
  8
0
 10
905.5731496306421
 20
787.8589121964895
 30
0.0
  0
VERTEX
  5
834
  8
0
 10
905.4805022936466
 20
787.8434094548409
 30
0.0
  0
VERTEX
  5
835
  8
0
 10
905.3812109245162
 20
787.8175715520932
 30
0.0
  0
VERTEX
  5
836
  8
0
 10
905.2752755232505
 20
787.7813984882464
 30
0.0
  0
VERTEX
  5
837
  8
0
 10
905.0434726243138
 20
787.6780468772554
 30
0.0
  0
VERTEX
  5
838
  8
0
 10
904.7850935968366
 20
787.5333546218683
 30
0.0
  0
VERTEX
  5
839
  8
0
 10
904.5267145693595
 20
787.3517510768415
 30
0.0
  0
VERTEX
  5
83A
  8
0
 10
904.2476652196841
 20
787.1376655969317
 30
0.0
  0
VERTEX
  5
83B
  8
0
 10
903.9479455478106
 20
786.8910981821392
 30
0.0
  0
VERTEX
  5
83C
  8
0
 10
903.6275555537388
 20
786.6120488324639
 30
0.0
  0
VERTEX
  5
83D
  8
0
 10
903.3234065271085
 20
786.3256172248607
 30
0.0
  0
VERTEX
  5
83E
  8
0
 10
903.0015400814514
 20
786.0096565855456
 30
0.0
  0
VERTEX
  5
83F
  8
0
 10
902.661956216767
 20
785.664166914519
 30
0.0
  0
VERTEX
  5
840
  8
0
 10
902.3046549330556
 20
785.2891482117807
 30
0.0
  0
VERTEX
  5
841
  8
0
 10
901.6432046227139
 20
784.5804514507004
 30
0.0
  0
VERTEX
  5
842
  8
0
 10
900.9345078616338
 20
783.7772617881428
 30
0.0
  0
VERTEX
  5
843
  8
0
 10
899.6116072409507
 20
782.2417521391355
 30
0.0
  0
VERTEX
  5
844
  8
0
 10
899.4034275673832
 20
781.9741452892483
 30
0.0
  0
VERTEX
  5
845
  8
0
 10
899.2159182160141
 20
781.7028473103974
 30
0.0
  0
VERTEX
  5
846
  8
0
 10
899.0490791868431
 20
781.4278582025823
 30
0.0
  0
VERTEX
  5
847
  8
0
 10
898.9029104798702
 20
781.1491779658033
 30
0.0
  0
VERTEX
  5
848
  8
0
 10
898.7774120950955
 20
780.8668066000603
 30
0.0
  0
VERTEX
  5
849
  8
0
 10
898.6725840325191
 20
780.5807441053535
 30
0.0
  0
VERTEX
  5
84A
  8
0
 10
898.5884262921409
 20
780.2909904816827
 30
0.0
  0
VERTEX
  5
84B
  8
0
 10
898.5249388739608
 20
779.9975457290479
 30
0.0
  0
VERTEX
  5
84C
  8
0
 10
898.3625291995465
 20
779.0142289730491
 30
0.0
  0
VERTEX
  5
84D
  8
0
 10
898.229648556844
 20
778.0722528614465
 30
0.0
  0
VERTEX
  5
84E
  8
0
 10
898.126296945853
 20
777.1716173942403
 30
0.0
  0
VERTEX
  5
84F
  8
0
 10
898.052474366574
 20
776.3123225714305
 30
0.0
  0
VERTEX
  5
850
  8
0
 10
898.0214688832768
 20
775.6316783904763
 30
0.0
  0
VERTEX
  5
851
  8
0
 10
897.9993221094929
 20
774.8417767921889
 30
0.0
  0
VERTEX
  5
852
  8
0
 10
897.9860340452227
 20
773.9426177765682
 30
0.0
  0
VERTEX
  5
853
  8
0
 10
897.9816046904659
 20
772.9342013436144
 30
0.0
  0
VERTEX
  5
854
  8
0
 10
892.7608718838412
 20
771.7057936244087
 30
0.0
  0
VERTEX
  5
855
  8
0
 10
892.6471851117512
 20
773.198486177434
 30
0.0
  0
VERTEX
  5
856
  8
0
 10
892.5659802745442
 20
774.4874284116488
 30
0.0
  0
VERTEX
  5
857
  8
0
 10
892.5172573722199
 20
775.5726203270531
 30
0.0
  0
VERTEX
  5
858
  8
0
 10
892.5010164047785
 20
776.4540619236466
 30
0.0
  0
VERTEX
  5
859
  8
0
 10
892.5135462046097
 20
777.2996943133916
 30
0.0
  0
VERTEX
  5
85A
  8
0
 10
891.8062686980725
 20
776.6251657768577
 30
0.0
  0
VERTEX
  5
85B
  8
0
 10
891.1166653140685
 20
775.9954650847128
 30
0.0
  0
VERTEX
  5
85C
  8
0
 10
890.4447530470807
 20
775.4105918141106
 30
0.0
  0
VERTEX
  5
85D
  8
0
 10
889.7905488915911
 20
774.870545542205
 30
0.0
  0
VERTEX
  5
85E
  8
0
 10
889.1540698420821
 20
774.3753258461497
 30
0.0
  0
VERTEX
  5
85F
  8
0
 10
888.535332893036
 20
773.9249323030986
 30
0.0
  0
VERTEX
  5
860
  8
0
 10
887.9343550389351
 20
773.5193644902051
 30
0.0
  0
VERTEX
  5
861
  8
0
 10
887.3511532742617
 20
773.1586219846232
 30
0.0
  0
VERTEX
  5
862
  8
0
 10
887.0509722112677
 20
772.9884148002726
 30
0.0
  0
VERTEX
  5
863
  8
0
 10
886.7469154628616
 20
772.8291887245898
 30
0.0
  0
VERTEX
  5
864
  8
0
 10
886.4389830290431
 20
772.6809437575748
 30
0.0
  0
VERTEX
  5
865
  8
0
 10
886.1271749098128
 20
772.5436798992275
 30
0.0
  0
VERTEX
  5
866
  8
0
 10
885.81149110517
 20
772.417397149548
 30
0.0
  0
VERTEX
  5
867
  8
0
 10
885.4919316151154
 20
772.3020955085364
 30
0.0
  0
VERTEX
  5
868
  8
0
 10
885.1684964396484
 20
772.1977749761925
 30
0.0
  0
VERTEX
  5
869
  8
0
 10
884.8411855787692
 20
772.1044355525163
 30
0.0
  0
VERTEX
  5
86A
  8
0
 10
884.5099990324779
 20
772.0220772375079
 30
0.0
  0
VERTEX
  5
86B
  8
0
 10
884.1749368007745
 20
771.9507000311673
 30
0.0
  0
VERTEX
  5
86C
  8
0
 10
883.8359988836588
 20
771.8903039334946
 30
0.0
  0
VERTEX
  5
86D
  8
0
 10
883.493185281131
 20
771.8408889444895
 30
0.0
  0
VERTEX
  5
86E
  8
0
 10
883.1464959931911
 20
771.8024550641524
 30
0.0
  0
VERTEX
  5
86F
  8
0
 10
882.7959310198389
 20
771.7750022924829
 30
0.0
  0
VERTEX
  5
870
  8
0
 10
882.4414903610747
 20
771.7585306294811
 30
0.0
  0
VERTEX
  5
871
  8
0
 10
882.0831740168983
 20
771.7530400751473
 30
0.0
  0
VERTEX
  5
872
  8
0
 10
881.6864237923846
 20
771.7610682806439
 30
0.0
  0
VERTEX
  5
873
  8
0
 10
881.2993627814014
 20
771.7851528971338
 30
0.0
  0
VERTEX
  5
874
  8
0
 10
880.9219909839486
 20
771.8252939246169
 30
0.0
  0
VERTEX
  5
875
  8
0
 10
880.5543084000262
 20
771.8814913630931
 30
0.0
  0
VERTEX
  5
876
  8
0
 10
880.1963150296342
 20
771.9537452125627
 30
0.0
  0
VERTEX
  5
877
  8
0
 10
879.8480108727724
 20
772.0420554730255
 30
0.0
  0
VERTEX
  5
878
  8
0
 10
879.5093959294411
 20
772.1464221444814
 30
0.0
  0
VERTEX
  5
879
  8
0
 10
879.1804701996402
 20
772.2668452269306
 30
0.0
  0
VERTEX
  5
87A
  8
0
 10
878.8612336833698
 20
772.4033247203731
 30
0.0
  0
VERTEX
  5
87B
  8
0
 10
878.5516863806297
 20
772.5558606248087
 30
0.0
  0
VERTEX
  5
87C
  8
0
 10
878.25182829142
 20
772.7244529402375
 30
0.0
  0
VERTEX
  5
87D
  8
0
 10
877.9616594157408
 20
772.9091016666596
 30
0.0
  0
VERTEX
  5
87E
  8
0
 10
877.6811797535918
 20
773.1098068040749
 30
0.0
  0
VERTEX
  5
87F
  8
0
 10
877.4103893049734
 20
773.3265683524835
 30
0.0
  0
VERTEX
  5
880
  8
0
 10
877.1492880698853
 20
773.5593863118852
 30
0.0
  0
VERTEX
  5
881
  8
0
 10
876.8978760483276
 20
773.8082606822802
 30
0.0
  0
VERTEX
  5
882
  8
0
 10
876.7213909295501
 20
773.9991748883747
 30
0.0
  0
VERTEX
  5
883
  8
0
 10
876.5531759708565
 20
774.1955353455551
 30
0.0
  0
VERTEX
  5
884
  8
0
 10
876.3932318979696
 20
774.3973413720947
 30
0.0
  0
VERTEX
  5
885
  8
0
 10
876.2415594366124
 20
774.6045922862668
 30
0.0
  0
VERTEX
  5
886
  8
0
 10
876.0981593125078
 20
774.8172874063448
 30
0.0
  0
VERTEX
  5
887
  8
0
 10
875.9630322513789
 20
775.0354260506018
 30
0.0
  0
VERTEX
  5
888
  8
0
 10
875.8361789789483
 20
775.2590075373114
 30
0.0
  0
VERTEX
  5
889
  8
0
 10
875.7176002209391
 20
775.4880311847464
 30
0.0
  0
VERTEX
  5
88A
  8
0
 10
875.6072967030741
 20
775.7224963111805
 30
0.0
  0
VERTEX
  5
88B
  8
0
 10
875.5052691510764
 20
775.962402234887
 30
0.0
  0
VERTEX
  5
88C
  8
0
 10
875.4115182906686
 20
776.2077482741391
 30
0.0
  0
VERTEX
  5
88D
  8
0
 10
875.3260448475739
 20
776.4585337472101
 30
0.0
  0
VERTEX
  5
88E
  8
0
 10
875.2488495475152
 20
776.7147579723734
 30
0.0
  0
VERTEX
  5
88F
  8
0
 10
875.1799331162154
 20
776.9764202679021
 30
0.0
  0
VERTEX
  5
890
  8
0
 10
875.1192962793973
 20
777.2435199520696
 30
0.0
  0
SEQEND
  5
89A
  8
0
  0
ENDSEC
  0
EOF
